Anton-Regular_ik.ufo
<glyph name="exclam" format="1">
  <advance width="510.0"/>
  <unicode hex="0021"/>
  <outline>
    <contour>
      <point x="6.0" y="299.0" type="line"/>
      <point x="-41.0" y="1.0" type="line"/>
      <point x="317.0" y="1.0" type="line"/>
      <point x="364.0" y="299.0" type="line"/>
    </contour>
    <contour>
      <point x="236.0" y="1760.0" type="line"/>
      <point x="104.0" y="479.0" type="line"/>
      <point x="322.0" y="479.0" type="line"/>
      <point x="594.0" y="1760.0" type="line"/>
    </contour>
  </outline>
</glyph>
<glyph name="numbersign" format="1">
  <advance width="1144.0"/>
  <unicode hex="0023"/>
  <outline>
    <contour>
      <point x="111.0" y="509.0" type="line"/>
      <point x="-69.0" y="0.0" type="line"/>
      <point x="214.0" y="0.0" type="line"/>
      <point x="394.0" y="509.0" type="line"/>
      <point x="561.0" y="509.0" type="line"/>
      <point x="381.0" y="0.0" type="line"/>
      <point x="664.0" y="0.0" type="line"/>
      <point x="844.0" y="509.0" type="line"/>
      <point x="998.0" y="509.0" type="line"/>
      <point x="1034.0" y="741.0" type="line"/>
      <point x="926.0" y="741.0" type="line"/>
      <point x="977.0" y="886.0" type="line"/>
      <point x="1115.0" y="886.0" type="line"/>
      <point x="1152.0" y="1118.0" type="line"/>
      <point x="1059.0" y="1118.0" type="line"/>
      <point x="1227.0" y="1593.0" type="line"/>
      <point x="943.0" y="1593.0" type="line"/>
      <point x="775.0" y="1118.0" type="line"/>
      <point x="609.0" y="1118.0" type="line"/>
      <point x="777.0" y="1593.0" type="line"/>
      <point x="493.0" y="1593.0" type="line"/>
      <point x="325.0" y="1118.0" type="line"/>
      <point x="170.0" y="1118.0" type="line"/>
      <point x="133.0" y="886.0" type="line"/>
      <point x="243.0" y="886.0" type="line"/>
      <point x="192.0" y="741.0" type="line"/>
      <point x="52.0" y="741.0" type="line"/>
      <point x="16.0" y="509.0" type="line"/>
    </contour>
    <contour>
      <point x="642.0" y="741.0" type="line"/>
      <point x="476.0" y="741.0" type="line"/>
      <point x="527.0" y="886.0" type="line"/>
      <point x="693.0" y="886.0" type="line"/>
    </contour>
  </outline>
</glyph>
<glyph name="dollar" format="1">
  <advance width="965.0"/>
  <unicode hex="0024"/>
  <outline>
    <contour>
      <point x="281.0" y="36.0" type="curve"/>
      <point x="257.0" y="-113.0" type="line"/>
      <point x="430.0" y="-113.0" type="line"/>
      <point x="454.0" y="34.0" type="line"/>
      <point x="660.0" y="57.0"/>
      <point x="833.0" y="193.0"/>
      <point x="868.0" y="413.0" type="curve" smooth="yes"/>
      <point x="890.0" y="559.0"/>
      <point x="840.0" y="677.0"/>
      <point x="771.0" y="758.0" type="curve" smooth="yes"/>
      <point x="534.0" y="1034.0" type="line" smooth="yes"/>
      <point x="479.0" y="1099.0"/>
      <point x="453.0" y="1149.0"/>
      <point x="459.0" y="1182.0" type="curve" smooth="yes"/>
      <point x="466.0" y="1228.0"/>
      <point x="508.0" y="1259.0"/>
      <point x="554.0" y="1259.0" type="curve" smooth="yes"/>
      <point x="594.0" y="1259.0"/>
      <point x="629.0" y="1227.0"/>
      <point x="626.0" y="1190.0" type="curve"/>
      <point x="615.0" y="1105.0" type="line"/>
      <point x="972.0" y="1105.0" type="line"/>
      <point x="1013.0" y="1366.0"/>
      <point x="918.0" y="1532.0"/>
      <point x="695.0" y="1561.0" type="curve"/>
      <point x="713.0" y="1679.0" type="line"/>
      <point x="540.0" y="1679.0" type="line"/>
      <point x="521.0" y="1558.0" type="line"/>
      <point x="335.0" y="1526.0"/>
      <point x="163.0" y="1392.0"/>
      <point x="131.0" y="1192.0" type="curve" smooth="yes"/>
      <point x="112.0" y="1069.0"/>
      <point x="147.0" y="954.0"/>
      <point x="235.0" y="849.0" type="curve" smooth="yes"/>
      <point x="478.0" y="560.0" type="line"/>
      <point x="511.0" y="514.0"/>
      <point x="527.0" y="479.0"/>
      <point x="523.0" y="456.0" type="curve" smooth="yes"/>
      <point x="514.0" y="397.0"/>
      <point x="477.0" y="347.0"/>
      <point x="421.0" y="347.0" type="curve" smooth="yes"/>
      <point x="358.0" y="347.0"/>
      <point x="336.0" y="398.0"/>
      <point x="352.0" y="501.0" type="curve" smooth="yes"/>
      <point x="359.0" y="543.0" type="line"/>
      <point x="11.0" y="543.0" type="line"/>
      <point x="2.0" y="488.0" type="line" smooth="yes"/>
      <point x="-42.0" y="208.0"/>
      <point x="35.0" y="65.0"/>
    </contour>
  </outline>
</glyph>
<glyph name="ampersand" format="1">
  <advance width="1024.0"/>
  <unicode hex="0026"/>
  <outline>
    <contour>
      <point x="20.0" y="-21.0"/>
      <point x="239.0" y="-21.0" type="curve" smooth="yes"/>
      <point x="349.0" y="-21.0"/>
      <point x="450.0" y="32.0"/>
      <point x="512.0" y="97.0" type="curve"/>
      <point x="534.0" y="0.0" type="line"/>
      <point x="874.0" y="0.0" type="line"/>
      <point x="763.0" y="432.0" type="line"/>
      <point x="839.0" y="578.0"/>
      <point x="921.0" y="682.0"/>
      <point x="1009.0" y="744.0" type="curve"/>
      <point x="904.0" y="961.0" type="line"/>
      <point x="820.0" y="906.0"/>
      <point x="750.0" y="827.0"/>
      <point x="695.0" y="726.0" type="curve"/>
      <point x="655.0" y="875.0" type="line"/>
      <point x="833.0" y="1000.0"/>
      <point x="931.0" y="1133.0"/>
      <point x="953.0" y="1273.0" type="curve" smooth="yes"/>
      <point x="984.0" y="1472.0"/>
      <point x="853.0" y="1582.0"/>
      <point x="657.0" y="1582.0" type="curve" smooth="yes"/>
      <point x="458.0" y="1582.0"/>
      <point x="291.0" y="1464.0"/>
      <point x="259.0" y="1262.0" type="curve" smooth="yes"/>
      <point x="240.0" y="1143.0"/>
      <point x="274.0" y="1010.0"/>
      <point x="305.0" y="921.0" type="curve"/>
      <point x="127.0" y="804.0"/>
      <point x="26.0" y="661.0"/>
      <point x="-18.0" y="386.0" type="curve" smooth="yes"/>
      <point x="-54.0" y="158.0"/>
    </contour>
    <contour>
      <point x="393.0" y="235.0"/>
      <point x="336.0" y="235.0" type="curve" smooth="yes"/>
      <point x="265.0" y="235.0"/>
      <point x="282.0" y="341.0"/>
      <point x="292.0" y="413.0" type="curve" smooth="yes"/>
      <point x="295.0" y="423.0" type="line" smooth="yes"/>
      <point x="305.0" y="488.0"/>
      <point x="332.0" y="572.0"/>
      <point x="361.0" y="606.0" type="curve"/>
      <point x="376.0" y="625.0" type="line"/>
      <point x="452.0" y="334.0" type="line"/>
      <point x="434.0" y="289.0"/>
    </contour>
    <contour>
      <point x="621.0" y="1128.0" type="curve" smooth="yes"/>
      <point x="602.0" y="1110.0" type="line"/>
      <point x="584.0" y="1183.0"/>
      <point x="579.0" y="1237.0"/>
      <point x="584.0" y="1273.0" type="curve" smooth="yes"/>
      <point x="589.0" y="1307.0"/>
      <point x="614.0" y="1336.0"/>
      <point x="648.0" y="1336.0" type="curve" smooth="yes"/>
      <point x="687.0" y="1336.0"/>
      <point x="704.0" y="1315.0"/>
      <point x="697.0" y="1273.0" type="curve" smooth="yes"/>
      <point x="688.0" y="1219.0"/>
      <point x="651.0" y="1155.0"/>
    </contour>
  </outline>
</glyph>
<glyph name="quotesingle" format="1">
  <advance width="428.0"/>
  <unicode hex="0027"/>
  <outline>
    <contour>
      <point x="192.0" y="1760.0" type="line"/>
      <point x="192.0" y="1124.0" type="line"/>
      <point x="368.0" y="1124.0" type="line"/>
      <point x="544.0" y="1760.0" type="line"/>
    </contour>
  </outline>
</glyph>
<glyph name="parenleft" format="1">
  <advance width="641.0"/>
  <unicode hex="0028"/>
  <outline>
    <contour>
      <point x="152.0" y="-4.0"/>
      <point x="467.0" y="-17.0" type="curve"/>
      <point x="512.0" y="268.0" type="line"/>
      <point x="436.0" y="289.0"/>
      <point x="386.0" y="350.0"/>
      <point x="401.0" y="450.0" type="curve" smooth="yes"/>
      <point x="535.0" y="1297.0" type="line" smooth="yes"/>
      <point x="554.0" y="1415.0"/>
      <point x="601.0" y="1476.0"/>
      <point x="705.0" y="1494.0" type="curve"/>
      <point x="747.0" y="1761.0" type="line"/>
      <point x="401.0" y="1751.0"/>
      <point x="202.0" y="1546.0"/>
      <point x="145.0" y="1183.0" type="curve" smooth="yes"/>
      <point x="47.0" y="562.0" type="line" smooth="yes"/>
      <point x="-6.0" y="227.0"/>
    </contour>
  </outline>
</glyph>
<glyph name="parenright" format="1">
  <advance width="641.0"/>
  <unicode hex="0029"/>
  <outline>
    <contour>
      <point x="-21.0" y="268.0" type="curve"/>
      <point x="-66.0" y="-17.0" type="line"/>
      <point x="251.0" y="-4.0"/>
      <point x="482.0" y="225.0"/>
      <point x="536.0" y="562.0" type="curve" smooth="yes"/>
      <point x="634.0" y="1183.0" type="line" smooth="yes"/>
      <point x="691.0" y="1546.0"/>
      <point x="558.0" y="1751.0"/>
      <point x="214.0" y="1761.0" type="curve"/>
      <point x="172.0" y="1494.0" type="line"/>
      <point x="270.0" y="1476.0"/>
      <point x="299.0" y="1415.0"/>
      <point x="280.0" y="1297.0" type="curve" smooth="yes"/>
      <point x="146.0" y="450.0" type="line" smooth="yes"/>
      <point x="131.0" y="350.0"/>
      <point x="61.0" y="289.0"/>
    </contour>
  </outline>
</glyph>
<glyph name="asterisk" format="1">
  <advance width="945.0"/>
  <unicode hex="002A"/>
  <outline>
    <contour>
      <point x="446.0" y="1043.0" type="line"/>
      <point x="354.0" y="741.0" type="line"/>
      <point x="586.0" y="741.0" type="line"/>
      <point x="598.0" y="1036.0" type="line"/>
      <point x="799.0" y="854.0" type="line"/>
      <point x="947.0" y="1054.0" type="line"/>
      <point x="690.0" y="1171.0" type="line"/>
      <point x="983.0" y="1280.0" type="line"/>
      <point x="898.0" y="1480.0" type="line"/>
      <point x="641.0" y="1307.0" type="line"/>
      <point x="721.0" y="1593.0" type="line"/>
      <point x="489.0" y="1593.0" type="line"/>
      <point x="486.0" y="1301.0" type="line"/>
      <point x="276.0" y="1480.0" type="line"/>
      <point x="129.0" y="1280.0" type="line"/>
      <point x="385.0" y="1171.0" type="line"/>
      <point x="93.0" y="1054.0" type="line"/>
      <point x="177.0" y="854.0" type="line"/>
    </contour>
  </outline>
</glyph>
<glyph name="plus" format="1">
  <advance width="748.0"/>
  <unicode hex="002B"/>
  <outline>
    <contour>
      <point x="221.0" y="509.0" type="line"/>
      <point x="187.0" y="301.0" type="line"/>
      <point x="419.0" y="301.0" type="line"/>
      <point x="453.0" y="509.0" type="line"/>
      <point x="661.0" y="509.0" type="line"/>
      <point x="697.0" y="741.0" type="line"/>
      <point x="489.0" y="741.0" type="line"/>
      <point x="522.0" y="949.0" type="line"/>
      <point x="290.0" y="949.0" type="line"/>
      <point x="257.0" y="741.0" type="line"/>
      <point x="49.0" y="741.0" type="line"/>
      <point x="13.0" y="509.0" type="line"/>
    </contour>
  </outline>
</glyph>
<glyph name="comma" format="1">
  <advance width="500.0"/>
  <unicode hex="002C"/>
  <outline>
    <contour>
      <point x="73.0" y="1.0" type="line"/>
      <point x="-31.0" y="-235.0" type="line"/>
      <point x="180.0" y="-235.0" type="line"/>
      <point x="322.0" y="10.0" type="line"/>
      <point x="367.0" y="299.0" type="line"/>
      <point x="-7.0" y="299.0" type="line"/>
      <point x="-54.0" y="1.0" type="line"/>
    </contour>
    <contour>
      <point x="158.0" y="131" type="move" name="_mid"/>
    </contour>
  </outline>
</glyph>
<glyph name="period" format="1">
  <advance width="486.0"/>
  <unicode hex="002E"/>
  <outline>
    <contour>
      <point x="-6.0" y="299.0" type="line"/>
      <point x="-53.0" y="1.0" type="line"/>
      <point x="305.0" y="1.0" type="line"/>
      <point x="352.0" y="299.0" type="line"/>
    </contour>
  </outline>
</glyph>
<glyph name="slash" format="1">
  <advance width="842.0"/>
  <unicode hex="002F"/>
  <outline>
    <contour>
      <point x="606.0" y="1767.0" type="line"/>
      <point x="-83.0" y="0.0" type="line"/>
      <point x="280.0" y="0.0" type="line"/>
      <point x="970.0" y="1767.0" type="line"/>
    </contour>
  </outline>
</glyph>
<glyph name="zero" format="1">
  <advance width="1097.0"/>
  <unicode hex="0030"/>
  <outline>
    <contour>
      <point x="534.0" y="308.0"/>
      <point x="480.0" y="308.0" type="curve" smooth="yes"/>
      <point x="426.0" y="308.0"/>
      <point x="402.0" y="366.0"/>
      <point x="411.0" y="428.0" type="curve" smooth="yes"/>
      <point x="548.0" y="1297.0" type="line" smooth="yes"/>
      <point x="561.0" y="1379.0"/>
      <point x="580.0" y="1452.0"/>
      <point x="660.0" y="1452.0" type="curve" smooth="yes"/>
      <point x="740.0" y="1452.0"/>
      <point x="735.0" y="1379.0"/>
      <point x="722.0" y="1297.0" type="curve" smooth="yes"/>
      <point x="585.0" y="428.0" type="line" smooth="yes"/>
      <point x="576.0" y="366.0"/>
    </contour>
    <contour>
      <point x="130.0" y="-16.0"/>
      <point x="428.0" y="-16.0" type="curve" smooth="yes"/>
      <point x="726.0" y="-16.0"/>
      <point x="921.0" y="156.0"/>
      <point x="971.0" y="469.0" type="curve" smooth="yes"/>
      <point x="1096.0" y="1263.0" type="line" smooth="yes"/>
      <point x="1149.0" y="1594.0"/>
      <point x="1025.0" y="1776.0"/>
      <point x="711.0" y="1776.0" type="curve" smooth="yes"/>
      <point x="397.0" y="1776.0"/>
      <point x="217.0" y="1594.0"/>
      <point x="164.0" y="1263.0" type="curve" smooth="yes"/>
      <point x="39.0" y="469.0" type="line" smooth="yes"/>
      <point x="-11.0" y="156.0"/>
    </contour>
  </outline>
</glyph>
<glyph name="one" format="1">
  <advance width="725.0"/>
  <unicode hex="0031"/>
  <outline>
    <contour>
      <point x="346.0" y="1356.0" type="curve"/>
      <point x="133.0" y="0.0" type="line"/>
      <point x="506.0" y="0.0" type="line"/>
      <point x="783.0" y="1761.0" type="line"/>
      <point x="500.0" y="1761.0" type="line"/>
      <point x="423.0" y="1629.0"/>
      <point x="266.0" y="1556.0"/>
      <point x="157.0" y="1541.0" type="curve"/>
      <point x="113.0" y="1260.0" type="line"/>
      <point x="187.0" y="1260.0"/>
      <point x="289.0" y="1299.0"/>
    </contour>
  </outline>
</glyph>
<glyph name="two" format="1">
  <advance width="1051.0"/>
  <unicode hex="0032"/>
  <outline>
    <contour>
      <point x="-38.0" y="84.0" type="curve" smooth="yes"/>
      <point x="-51.0" y="0.0" type="line"/>
      <point x="862.0" y="0.0" type="line"/>
      <point x="915.0" y="332.0" type="line"/>
      <point x="435.0" y="332.0" type="line"/>
      <point x="642.0" y="645.0"/>
      <point x="1004.0" y="823.0"/>
      <point x="1078.0" y="1293.0" type="curve" smooth="yes"/>
      <point x="1126.0" y="1597.0"/>
      <point x="983.0" y="1767.0"/>
      <point x="691.0" y="1767.0" type="curve" smooth="yes"/>
      <point x="322.0" y="1767.0"/>
      <point x="191.0" y="1553.0"/>
      <point x="130.0" y="1173.0" type="curve" smooth="yes"/>
      <point x="117.0" y="1065.0" type="line"/>
      <point x="487.0" y="1065.0" type="line"/>
      <point x="521.0" y="1280.0" type="line" smooth="yes"/>
      <point x="538.0" y="1384.0"/>
      <point x="574.0" y="1437.0"/>
      <point x="633.0" y="1437.0" type="curve" smooth="yes"/>
      <point x="710.0" y="1437.0"/>
      <point x="718.0" y="1369.0"/>
      <point x="705.0" y="1286.0" type="curve" smooth="yes"/>
      <point x="686.0" y="1164.0"/>
      <point x="641.0" y="1067.0"/>
      <point x="569.0" y="992.0" type="curve" smooth="yes"/>
      <point x="427.0" y="844.0"/>
      <point x="330.0" y="743.0"/>
      <point x="283.0" y="689.0" type="curve" smooth="yes"/>
      <point x="104.0" y="484.0"/>
      <point x="2.0" y="337.0"/>
    </contour>
  </outline>
</glyph>
<glyph name="three" format="1">
  <advance width="1057.0"/>
  <unicode hex="0033"/>
  <outline>
    <contour>
      <point x="75.0" y="-20.0"/>
      <point x="386.0" y="-20.0" type="curve" smooth="yes"/>
      <point x="727.0" y="-20.0"/>
      <point x="894.0" y="178.0"/>
      <point x="950.0" y="530.0" type="curve" smooth="yes"/>
      <point x="987.0" y="766.0"/>
      <point x="987.0" y="889.0"/>
      <point x="849.0" y="962.0" type="curve"/>
      <point x="982.0" y="1007.0"/>
      <point x="1039.0" y="1122.0"/>
      <point x="1067.0" y="1295.0" type="curve" smooth="yes"/>
      <point x="1116.0" y="1609.0"/>
      <point x="990.0" y="1763.0"/>
      <point x="690.0" y="1763.0" type="curve" smooth="yes"/>
      <point x="379.0" y="1763.0"/>
      <point x="210.0" y="1618.0"/>
      <point x="158.0" y="1295.0" type="curve" smooth="yes"/>
      <point x="149.0" y="1233.0" type="line"/>
      <point x="513.0" y="1233.0" type="line"/>
      <point x="521.0" y="1286.0" type="line"/>
      <point x="547.0" y="1369.0"/>
      <point x="547.0" y="1440.0"/>
      <point x="641.0" y="1440.0" type="curve" smooth="yes"/>
      <point x="698.0" y="1440.0"/>
      <point x="719.0" y="1391.0"/>
      <point x="704.0" y="1291.0" type="curve" smooth="yes"/>
      <point x="683.0" y="1164.0"/>
      <point x="609.0" y="1115.0"/>
      <point x="488.0" y="1115.0" type="curve"/>
      <point x="439.0" y="799.0" type="line"/>
      <point x="447.0" y="800.0"/>
      <point x="458.0" y="801.0"/>
      <point x="473.0" y="801.0" type="curve" smooth="yes"/>
      <point x="591.0" y="801.0"/>
      <point x="607.0" y="695.0"/>
      <point x="587.0" y="574.0" type="curve" smooth="yes"/>
      <point x="581.0" y="530.0" type="line" smooth="yes"/>
      <point x="563.0" y="418.0"/>
      <point x="549.0" y="306.0"/>
      <point x="454.0" y="306.0" type="curve" smooth="yes"/>
      <point x="367.0" y="306.0"/>
      <point x="365.0" y="380.0"/>
      <point x="380.0" y="473.0" type="curve" smooth="yes"/>
      <point x="408.0" y="658.0" type="line"/>
      <point x="47.0" y="658.0" type="line"/>
      <point x="19.0" y="474.0" type="line" smooth="yes"/>
      <point x="-34.0" y="143.0"/>
    </contour>
  </outline>
</glyph>
<glyph name="four" format="1">
  <advance width="1061.0"/>
  <unicode hex="0034"/>
  <outline>
    <contour>
      <point x="487.0" y="278.0" type="line"/>
      <point x="443.0" y="-1.0" type="line"/>
      <point x="802.0" y="-1.0" type="line"/>
      <point x="846.0" y="278.0" type="line"/>
      <point x="940.0" y="278.0" type="line"/>
      <point x="986.0" y="572.0" type="line"/>
      <point x="892.0" y="572.0" type="line"/>
      <point x="1080.0" y="1761.0" type="line"/>
      <point x="532.0" y="1761.0" type="line"/>
      <point x="9.0" y="553.0" type="line"/>
      <point x="-35.0" y="278.0" type="line"/>
    </contour>
    <contour>
      <point x="533.0" y="572.0" type="line"/>
      <point x="325.0" y="572.0" type="line"/>
      <point x="673.0" y="1459.0" type="line"/>
    </contour>
  </outline>
</glyph>
<glyph name="five" format="1">
  <advance width="1056.0"/>
  <unicode hex="0035"/>
  <outline>
    <contour>
      <point x="134.0" y="-25.0"/>
      <point x="405.0" y="-25.0" type="curve" smooth="yes"/>
      <point x="816.0" y="-25.0"/>
      <point x="918.0" y="245.0"/>
      <point x="985.0" y="668.0" type="curve" smooth="yes"/>
      <point x="1036.0" y="999.0"/>
      <point x="1016.0" y="1264.0"/>
      <point x="696.0" y="1264.0" type="curve" smooth="yes"/>
      <point x="616.0" y="1264.0"/>
      <point x="548.0" y="1226.0"/>
      <point x="508.0" y="1183.0" type="curve"/>
      <point x="546.0" y="1431.0" type="line"/>
      <point x="1051.0" y="1431.0" type="line"/>
      <point x="1104.0" y="1761.0" type="line"/>
      <point x="265.0" y="1761.0" type="line"/>
      <point x="117.0" y="825.0" type="line"/>
      <point x="440.0" y="825.0" type="line"/>
      <point x="456.0" y="922.0"/>
      <point x="496.0" y="970.0"/>
      <point x="563.0" y="970.0" type="curve" smooth="yes"/>
      <point x="646.0" y="970.0"/>
      <point x="639.0" y="873.0"/>
      <point x="625.0" y="787.0" type="curve" smooth="yes"/>
      <point x="571.0" y="441.0" type="line" smooth="yes"/>
      <point x="558.0" y="361.0"/>
      <point x="532.0" y="304.0"/>
      <point x="456.0" y="304.0" type="curve" smooth="yes"/>
      <point x="369.0" y="304.0"/>
      <point x="377.0" y="400.0"/>
      <point x="393.0" y="495.0" type="curve" smooth="yes"/>
      <point x="416.0" y="646.0" type="line"/>
      <point x="50.0" y="646.0" type="line"/>
      <point x="9.0" y="384.0" type="line" smooth="yes"/>
      <point x="-35.0" y="107.0"/>
    </contour>
  </outline>
</glyph>
<glyph name="six" format="1">
  <advance width="1073.0"/>
  <unicode hex="0036"/>
  <outline>
    <contour>
      <point x="68.0" y="-16.0"/>
      <point x="435.0" y="-16.0" type="curve" smooth="yes"/>
      <point x="779.0" y="-16.0"/>
      <point x="932.0" y="217.0"/>
      <point x="987.0" y="569.0" type="curve" smooth="yes"/>
      <point x="1041.0" y="916.0"/>
      <point x="997.0" y="1092.0"/>
      <point x="706.0" y="1092.0" type="curve" smooth="yes"/>
      <point x="610.0" y="1092.0"/>
      <point x="536.0" y="1050.0"/>
      <point x="492.0" y="988.0" type="curve"/>
      <point x="549.0" y="1341.0" type="line" smooth="yes"/>
      <point x="562.0" y="1422.0"/>
      <point x="594.0" y="1467.0"/>
      <point x="673.0" y="1467.0" type="curve" smooth="yes"/>
      <point x="758.0" y="1467.0"/>
      <point x="746.0" y="1365.0"/>
      <point x="732.0" y="1277.0" type="curve" smooth="yes"/>
      <point x="725.0" y="1241.0" type="line"/>
      <point x="1064.0" y="1241.0" type="line"/>
      <point x="1095.0" y="1431.0" type="line" smooth="yes"/>
      <point x="1131.0" y="1660.0"/>
      <point x="950.0" y="1776.0"/>
      <point x="728.0" y="1776.0" type="curve" smooth="yes"/>
      <point x="295.0" y="1776.0"/>
      <point x="202.0" y="1512.0"/>
      <point x="125.0" y="1025.0" type="curve" smooth="yes"/>
      <point x="49.0" y="549.0" type="line" smooth="yes"/>
      <point x="-10.0" y="172.0"/>
    </contour>
    <contour>
      <point x="557.0" y="308.0"/>
      <point x="474.0" y="308.0" type="curve" smooth="yes"/>
      <point x="415.0" y="308.0"/>
      <point x="392.0" y="351.0"/>
      <point x="406.0" y="438.0" type="curve" smooth="yes"/>
      <point x="440.0" y="656.0" type="line" smooth="yes"/>
      <point x="454.0" y="739.0"/>
      <point x="491.0" y="781.0"/>
      <point x="553.0" y="781.0" type="curve" smooth="yes"/>
      <point x="607.0" y="781.0"/>
      <point x="627.0" y="733.0"/>
      <point x="611.0" y="637.0" type="curve" smooth="yes"/>
      <point x="589.0" y="495.0" type="line" smooth="yes"/>
      <point x="571.0" y="386.0"/>
    </contour>
  </outline>
</glyph>
<glyph name="seven" format="1">
  <advance width="968.0"/>
  <unicode hex="0037"/>
  <outline>
    <contour>
      <point x="106.0" y="492.0"/>
      <point x="-3.0" y="1.0" type="curve"/>
      <point x="395.0" y="1.0" type="line"/>
      <point x="475.0" y="368.0"/>
      <point x="611.0" y="676.0"/>
      <point x="759.0" y="946.0" type="curve" smooth="yes"/>
      <point x="858.0" y="1129.0"/>
      <point x="991.0" y="1292.0"/>
      <point x="1046.0" y="1499.0" type="curve"/>
      <point x="1087.0" y="1761.0" type="line"/>
      <point x="199.0" y="1761.0" type="line"/>
      <point x="148.0" y="1435.0" type="line"/>
      <point x="645.0" y="1435.0" type="line"/>
      <point x="546.0" y="1252.0" type="line" smooth="yes"/>
      <point x="346.0" y="883.0"/>
    </contour>
  </outline>
</glyph>
<glyph name="eight" format="1">
  <advance width="1071.0"/>
  <unicode hex="0038"/>
  <outline>
    <contour>
      <point x="85.0" y="-19.0"/>
      <point x="416.0" y="-19.0" type="curve" smooth="yes"/>
      <point x="747.0" y="-19.0"/>
      <point x="906.0" y="178.0"/>
      <point x="961.0" y="525.0" type="curve"/>
      <point x="963.0" y="535.0"/>
      <point x="966.0" y="550.0"/>
      <point x="969.0" y="569.0" type="curve" smooth="yes"/>
      <point x="1001.0" y="776.0"/>
      <point x="1010.0" y="918.0"/>
      <point x="883.0" y="984.0" type="curve"/>
      <point x="1010.0" y="1034.0"/>
      <point x="1059.0" y="1152.0"/>
      <point x="1085.0" y="1321.0" type="curve" smooth="yes"/>
      <point x="1136.0" y="1644.0"/>
      <point x="1006.0" y="1782.0"/>
      <point x="700.0" y="1782.0" type="curve" smooth="yes"/>
      <point x="401.0" y="1782.0"/>
      <point x="219.0" y="1647.0"/>
      <point x="170.0" y="1335.0" type="curve" smooth="yes"/>
      <point x="163.0" y="1289.0" type="line" smooth="yes"/>
      <point x="139.0" y="1135.0"/>
      <point x="164.0" y="1030.0"/>
      <point x="264.0" y="986.0" type="curve"/>
      <point x="140.0" y="927.0"/>
      <point x="88.0" y="820.0"/>
      <point x="60.0" y="642.0" type="curve" smooth="yes"/>
      <point x="42.0" y="525.0" type="line" smooth="yes"/>
      <point x="-13.0" y="178.0"/>
    </contour>
    <contour>
      <point x="535.0" y="329.0"/>
      <point x="471.0" y="329.0" type="curve" smooth="yes"/>
      <point x="407.0" y="329.0"/>
      <point x="384.0" y="387.0"/>
      <point x="402.0" y="503.0" type="curve" smooth="yes"/>
      <point x="404.0" y="514.0"/>
      <point x="411.0" y="550.0"/>
      <point x="412.0" y="560.0" type="curve" smooth="yes"/>
      <point x="415.0" y="575.0" type="line"/>
      <point x="423.0" y="674.0"/>
      <point x="456.0" y="815.0"/>
      <point x="547.0" y="815.0" type="curve" smooth="yes"/>
      <point x="638.0" y="815.0"/>
      <point x="622.0" y="686.0"/>
      <point x="607.0" y="592.0" type="curve" smooth="yes"/>
      <point x="604.0" y="571.0"/>
      <point x="598.0" y="525.0"/>
      <point x="594.0" y="503.0" type="curve" smooth="yes"/>
      <point x="576.0" y="387.0"/>
    </contour>
    <contour>
      <point x="659.0" y="1134.0"/>
      <point x="597.0" y="1134.0" type="curve" smooth="yes"/>
      <point x="535.0" y="1134.0"/>
      <point x="513.0" y="1190.0"/>
      <point x="531.0" y="1302.0" type="curve" smooth="yes"/>
      <point x="543.0" y="1377.0"/>
      <point x="577.0" y="1458.0"/>
      <point x="649.0" y="1458.0" type="curve" smooth="yes"/>
      <point x="721.0" y="1458.0"/>
      <point x="729.0" y="1377.0"/>
      <point x="717.0" y="1302.0" type="curve" smooth="yes"/>
      <point x="699.0" y="1190.0"/>
    </contour>
  </outline>
</glyph>
<glyph name="nine" format="1">
  <advance width="1073.0"/>
  <unicode hex="0039"/>
  <outline>
    <contour>
      <point x="166.0" y="-16.0"/>
      <point x="388.0" y="-16.0" type="curve" smooth="yes"/>
      <point x="821.0" y="-16.0"/>
      <point x="915.0" y="248.0"/>
      <point x="992.0" y="735.0" type="curve" smooth="yes"/>
      <point x="1067.0" y="1211.0" type="line" smooth="yes"/>
      <point x="1126.0" y="1588.0"/>
      <point x="1048.0" y="1776.0"/>
      <point x="681.0" y="1776.0" type="curve" smooth="yes"/>
      <point x="337.0" y="1776.0"/>
      <point x="185.0" y="1543.0"/>
      <point x="130.0" y="1191.0" type="curve" smooth="yes"/>
      <point x="75.0" y="844.0"/>
      <point x="119.0" y="668.0"/>
      <point x="410.0" y="668.0" type="curve" smooth="yes"/>
      <point x="506.0" y="668.0"/>
      <point x="581.0" y="710.0"/>
      <point x="624.0" y="772.0" type="curve"/>
      <point x="568.0" y="419.0" type="line" smooth="yes"/>
      <point x="555.0" y="338.0"/>
      <point x="522.0" y="293.0"/>
      <point x="443.0" y="293.0" type="curve" smooth="yes"/>
      <point x="358.0" y="293.0"/>
      <point x="371.0" y="395.0"/>
      <point x="385.0" y="483.0" type="curve" smooth="yes"/>
      <point x="391.0" y="519.0" type="line"/>
      <point x="52.0" y="519.0" type="line"/>
      <point x="21.0" y="329.0" type="line" smooth="yes"/>
      <point x="-15.0" y="100.0"/>
    </contour>
    <contour>
      <point x="625.0" y="979.0"/>
      <point x="563.0" y="979.0" type="curve" smooth="yes"/>
      <point x="509.0" y="979.0"/>
      <point x="490.0" y="1027.0"/>
      <point x="505.0" y="1123.0" type="curve" smooth="yes"/>
      <point x="527.0" y="1265.0" type="line" smooth="yes"/>
      <point x="545.0" y="1374.0"/>
      <point x="560.0" y="1452.0"/>
      <point x="643.0" y="1452.0" type="curve" smooth="yes"/>
      <point x="702.0" y="1452.0"/>
      <point x="724.0" y="1409.0"/>
      <point x="710.0" y="1322.0" type="curve" smooth="yes"/>
      <point x="676.0" y="1104.0" type="line" smooth="yes"/>
      <point x="663.0" y="1021.0"/>
    </contour>
  </outline>
</glyph>
<glyph name="colon" format="1">
  <advance width="540.0"/>
  <unicode hex="003A"/>
  <outline>
    <contour>
      <point x="57.0" y="535.0" type="line"/>
      <point x="11.0" y="237.0" type="line"/>
      <point x="369.0" y="237.0" type="line"/>
      <point x="415.0" y="535.0" type="line"/>
    </contour>
    <contour>
      <point x="174.0" y="1274.0" type="line"/>
      <point x="127.0" y="976.0" type="line"/>
      <point x="485.0" y="976.0" type="line"/>
      <point x="532.0" y="1274.0" type="line"/>
    </contour>
  </outline>
</glyph>
<glyph name="semicolon" format="1">
  <advance width="562.0"/>
  <unicode hex="003B"/>
  <outline>
    <contour>
      <point x="141.0" y="236.0" type="line"/>
      <point x="38.0" y="0.0" type="line"/>
      <point x="249.0" y="0.0" type="line"/>
      <point x="389.0" y="245.0" type="line"/>
      <point x="434.0" y="534.0" type="line"/>
      <point x="60.0" y="534.0" type="line"/>
      <point x="14.0" y="236.0" type="line"/>
    </contour>
    <contour>
      <point x="177.0" y="1274.0" type="line"/>
      <point x="130.0" y="976.0" type="line"/>
      <point x="488.0" y="976.0" type="line"/>
      <point x="535.0" y="1274.0" type="line"/>
    </contour>
  </outline>
</glyph>
<glyph name="less" format="1">
  <advance width="708.0"/>
  <unicode hex="003C"/>
  <outline>
    <contour>
      <point x="19.0" y="545.0" type="line"/>
      <point x="535.0" y="200.0" type="line"/>
      <point x="591.0" y="558.0" type="line"/>
      <point x="279.0" y="749.0" type="line"/>
      <point x="651.0" y="941.0" type="line"/>
      <point x="708.0" y="1300.0" type="line"/>
      <point x="84.0" y="959.0" type="line"/>
    </contour>
  </outline>
</glyph>
<glyph name="equal" format="1">
  <advance width="699.0"/>
  <unicode hex="003D"/>
  <outline>
    <contour>
      <point x="92.0" y="741.0" type="line"/>
      <point x="55.0" y="509.0" type="line"/>
      <point x="569.0" y="509.0" type="line"/>
      <point x="606.0" y="741.0" type="line"/>
    </contour>
    <contour>
      <point x="151.0" y="1116.0" type="line"/>
      <point x="115.0" y="892.0" type="line"/>
      <point x="629.0" y="892.0" type="line"/>
      <point x="665.0" y="1116.0" type="line"/>
    </contour>
  </outline>
</glyph>
<glyph name="greater" format="1">
  <advance width="708.0"/>
  <unicode hex="003E"/>
  <outline>
    <contour>
      <point x="58.0" y="558.0" type="line"/>
      <point x="2.0" y="200.0" type="line"/>
      <point x="626.0" y="545.0" type="line"/>
      <point x="691.0" y="959.0" type="line"/>
      <point x="175.0" y="1300.0" type="line"/>
      <point x="118.0" y="941.0" type="line"/>
      <point x="430.0" y="749.0" type="line"/>
    </contour>
  </outline>
</glyph>
<glyph name="question" format="1">
  <advance width="1025.0"/>
  <unicode hex="003F"/>
  <outline>
    <contour>
      <point x="157.0" y="871.0" type="curve"/>
      <point x="92.0" y="455.0" type="line"/>
      <point x="425.0" y="455.0" type="line"/>
      <point x="452.0" y="625.0" type="line"/>
      <point x="802.0" y="625.0"/>
      <point x="1010.0" y="880.0"/>
      <point x="1064.0" y="1226.0" type="curve" smooth="yes"/>
      <point x="1120.0" y="1579.0"/>
      <point x="1036.0" y="1776.0"/>
      <point x="681.0" y="1776.0" type="curve" smooth="yes"/>
      <point x="410.0" y="1776.0"/>
      <point x="201.0" y="1648.0"/>
      <point x="158.0" y="1379.0" type="curve" smooth="yes"/>
      <point x="118.0" y="1125.0" type="line"/>
      <point x="484.0" y="1125.0" type="line"/>
      <point x="507.0" y="1271.0" type="line" smooth="yes"/>
      <point x="522.0" y="1363.0"/>
      <point x="544.0" y="1457.0"/>
      <point x="631.0" y="1457.0" type="curve" smooth="yes"/>
      <point x="711.0" y="1457.0"/>
      <point x="712.0" y="1381.0"/>
      <point x="698.0" y="1294.0" type="curve" smooth="yes"/>
      <point x="638.0" y="912.0"/>
      <point x="490.0" y="871.0"/>
    </contour>
    <contour>
      <point x="56.0" y="299.0" type="line"/>
      <point x="9.0" y="1.0" type="line"/>
      <point x="367.0" y="1.0" type="line"/>
      <point x="414.0" y="299.0" type="line"/>
    </contour>
  </outline>
</glyph>
<glyph name="at" format="1">
  <advance width="1721.0"/>
  <unicode hex="0040"/>
  <outline>
    <contour>
      <point x="280.0" y="-158.0"/>
      <point x="751.0" y="-158.0" type="curve" smooth="yes"/>
      <point x="839.0" y="-158.0"/>
      <point x="945.0" y="-148.0"/>
      <point x="1068.0" y="-127.0" type="curve"/>
      <point x="1072.0" y="99.0" type="line"/>
      <point x="964.0" y="85.0"/>
      <point x="875.0" y="78.0"/>
      <point x="804.0" y="78.0" type="curve" smooth="yes"/>
      <point x="450.0" y="78.0"/>
      <point x="254.0" y="298.0"/>
      <point x="323.0" y="734.0" type="curve" smooth="yes"/>
      <point x="409.0" y="1282.0"/>
      <point x="661.0" y="1536.0"/>
      <point x="1060.0" y="1536.0" type="curve" smooth="yes"/>
      <point x="1398.0" y="1536.0"/>
      <point x="1522.0" y="1264.0"/>
      <point x="1466.0" y="907.0" type="curve" smooth="yes"/>
      <point x="1443.0" y="761.0"/>
      <point x="1401.0" y="505.0"/>
      <point x="1311.0" y="505.0" type="curve" smooth="yes"/>
      <point x="1262.0" y="505.0"/>
      <point x="1215.0" y="582.0"/>
      <point x="1227.0" y="650.0" type="curve" smooth="yes"/>
      <point x="1327.0" y="1290.0" type="line"/>
      <point x="1101.0" y="1290.0" type="line"/>
      <point x="1041.0" y="1159.0" type="line"/>
      <point x="1005.0" y="1243.0"/>
      <point x="955.0" y="1299.0"/>
      <point x="859.0" y="1299.0" type="curve" smooth="yes"/>
      <point x="640.0" y="1299.0"/>
      <point x="533.0" y="1048.0"/>
      <point x="484.0" y="744.0" type="curve" smooth="yes"/>
      <point x="447.0" y="502.0"/>
      <point x="504.0" y="285.0"/>
      <point x="682.0" y="285.0" type="curve" smooth="yes"/>
      <point x="808.0" y="285.0"/>
      <point x="890.0" y="350.0"/>
      <point x="941.0" y="491.0" type="curve"/>
      <point x="968.0" y="367.0"/>
      <point x="1034.0" y="277.0"/>
      <point x="1230.0" y="277.0" type="curve" smooth="yes"/>
      <point x="1503.0" y="277.0"/>
      <point x="1646.0" y="493.0"/>
      <point x="1708.0" y="882.0" type="curve" smooth="yes"/>
      <point x="1796.0" y="1440.0"/>
      <point x="1581.0" y="1776.0"/>
      <point x="1115.0" y="1776.0" type="curve" smooth="yes"/>
      <point x="587.0" y="1776.0"/>
      <point x="155.0" y="1480.0"/>
      <point x="34.0" y="717.0" type="curve" smooth="yes"/>
      <point x="-66.0" y="86.0"/>
    </contour>
    <contour>
      <point x="905.0" y="532.0"/>
      <point x="844.0" y="532.0" type="curve" smooth="yes"/>
      <point x="779.0" y="532.0"/>
      <point x="777.0" y="638.0"/>
      <point x="793.0" y="733.0" type="curve" smooth="yes"/>
      <point x="822.0" y="924.0"/>
      <point x="850.0" y="1074.0"/>
      <point x="1008.0" y="1074.0" type="curve"/>
      <point x="947.0" y="682.0" type="line" smooth="yes"/>
      <point x="935.0" y="609.0"/>
    </contour>
  </outline>
</glyph>
<glyph name="A" format="1">
  <advance width="986.0"/>
  <unicode hex="0041"/>
  <outline>
    <contour>
      <point x="356.0" y="1760.0" type="line"/>
      <point x="-91.0" y="0.0" type="line"/>
      <point x="251.0" y="0.0" type="line"/>
      <point x="317.0" y="284.0" type="line"/>
      <point x="529.0" y="284.0" type="line"/>
      <point x="510.0" y="0.0" type="line"/>
      <point x="843.0" y="0.0" type="line"/>
      <point x="953.0" y="1760.0" type="line"/>
    </contour>
    <contour>
      <point x="546.0" y="565.0" type="line"/>
      <point x="386.0" y="565.0" type="line"/>
      <point x="595.0" y="1460.0" type="line"/>
      <point x="611.0" y="1460.0" type="line"/>
    </contour>
    <contour>
      <point x="669.0" y="0" type="move" name="ogonek"/>
    </contour>
    <contour>
      <point x="652.0" y="1760" type="move" name="top"/>
    </contour>
  </outline>
</glyph>
<glyph name="B" format="1">
  <advance width="987.0"/>
  <unicode hex="0042"/>
  <outline>
    <contour>
      <point x="242.0" y="1760.0" type="line"/>
      <point x="-35.0" y="0.0" type="line"/>
      <point x="442.0" y="0.0" type="line" smooth="yes"/>
      <point x="752.0" y="0.0"/>
      <point x="864.0" y="226.0"/>
      <point x="918.0" y="569.0" type="curve" smooth="yes"/>
      <point x="952.0" y="781.0"/>
      <point x="934.0" y="939.0"/>
      <point x="783.0" y="979.0" type="curve"/>
      <point x="909.0" y="1011.0"/>
      <point x="985.0" y="1116.0"/>
      <point x="1010.0" y="1281.0" type="curve" smooth="yes"/>
      <point x="1023.0" y="1358.0" type="line" smooth="yes"/>
      <point x="1068.0" y="1645.0"/>
      <point x="975.0" y="1760.0"/>
      <point x="719.0" y="1760.0" type="curve" smooth="yes"/>
    </contour>
    <contour>
      <point x="483.0" y="310.0"/>
      <point x="392.0" y="310.0" type="curve" smooth="yes"/>
      <point x="385.0" y="310.0"/>
      <point x="373.0" y="311.0"/>
      <point x="357.0" y="312.0" type="curve"/>
      <point x="438.0" y="822.0" type="line"/>
      <point x="503.0" y="822.0" type="line" smooth="yes"/>
      <point x="586.0" y="822.0"/>
      <point x="600.0" y="760.0"/>
      <point x="585.0" y="660.0" type="curve" smooth="yes"/>
      <point x="550.0" y="440.0" type="line" smooth="yes"/>
      <point x="536.0" y="354.0"/>
    </contour>
    <contour>
      <point x="554.0" y="1097.0" type="curve" smooth="yes"/>
      <point x="482.0" y="1097.0" type="line"/>
      <point x="544.0" y="1488.0" type="line"/>
      <point x="618.0" y="1488.0" type="line" smooth="yes"/>
      <point x="668.0" y="1488.0"/>
      <point x="688.0" y="1460.0"/>
      <point x="679.0" y="1403.0" type="curve" smooth="yes"/>
      <point x="650.0" y="1226.0" type="line" smooth="yes"/>
      <point x="640.0" y="1155.0"/>
      <point x="619.0" y="1097.0"/>
    </contour>
    <contour>
      <point x="615.0" y="1760" type="move" name="top"/>
    </contour>
  </outline>
</glyph>
<glyph name="C" format="1">
  <advance width="984.0"/>
  <unicode hex="0043"/>
  <outline>
    <contour>
      <point x="112.0" y="-16.0"/>
      <point x="367.0" y="-16.0" type="curve" smooth="yes"/>
      <point x="647.0" y="-16.0"/>
      <point x="832.0" y="116.0"/>
      <point x="881.0" y="425.0" type="curve" smooth="yes"/>
      <point x="933.0" y="758.0" type="line"/>
      <point x="579.0" y="758.0" type="line"/>
      <point x="529.0" y="441.0" type="line" smooth="yes"/>
      <point x="517.0" y="362.0"/>
      <point x="487.0" y="308.0"/>
      <point x="427.0" y="308.0" type="curve" smooth="yes"/>
      <point x="373.0" y="308.0"/>
      <point x="349.0" y="344.0"/>
      <point x="364.0" y="441.0" type="curve" smooth="yes"/>
      <point x="503.0" y="1322.0" type="line" smooth="yes"/>
      <point x="516.0" y="1400.0"/>
      <point x="542.0" y="1452.0"/>
      <point x="607.0" y="1452.0" type="curve" smooth="yes"/>
      <point x="663.0" y="1452.0"/>
      <point x="685.0" y="1423.0"/>
      <point x="668.0" y="1318.0" type="curve" smooth="yes"/>
      <point x="627.0" y="1058.0" type="line"/>
      <point x="977.0" y="1058.0" type="line"/>
      <point x="1025.0" y="1362.0" type="line" smooth="yes"/>
      <point x="1068.0" y="1639.0"/>
      <point x="908.0" y="1776.0"/>
      <point x="658.0" y="1776.0" type="curve" smooth="yes"/>
      <point x="353.0" y="1776.0"/>
      <point x="196.0" y="1589.0"/>
      <point x="143.0" y="1248.0" type="curve" smooth="yes"/>
      <point x="14.0" y="436.0" type="line" smooth="yes"/>
      <point x="-31.0" y="151.0"/>
    </contour>
    <contour>
      <point x="371.0" y="0" type="move" name="bot"/>
    </contour>
    <contour>
      <point x="644.0" y="1760" type="move" name="top"/>
    </contour>
  </outline>
</glyph>
<glyph name="D" format="1">
  <advance width="1015.0"/>
  <unicode hex="0044"/>
  <outline>
    <contour>
      <point x="428.0" y="311.0" type="curve" smooth="yes"/>
      <point x="367.0" y="311.0" type="line"/>
      <point x="547.0" y="1452.0" type="line"/>
      <point x="586.0" y="1452.0" type="line" smooth="yes"/>
      <point x="682.0" y="1452.0"/>
      <point x="701.0" y="1430.0"/>
      <point x="683.0" y="1313.0" type="curve" smooth="yes"/>
      <point x="541.0" y="405.0" type="line" smooth="yes"/>
      <point x="530.0" y="342.0"/>
      <point x="491.0" y="311.0"/>
    </contour>
    <contour>
      <point x="242.0" y="1760.0" type="line"/>
      <point x="-35.0" y="0.0" type="line"/>
      <point x="438.0" y="0.0" type="line" smooth="yes"/>
      <point x="730.0" y="0.0"/>
      <point x="864.0" y="189.0"/>
      <point x="915.0" y="522.0" type="curve" smooth="yes"/>
      <point x="1041.0" y="1346.0" type="line" smooth="yes"/>
      <point x="1082.0" y="1616.0"/>
      <point x="980.0" y="1760.0"/>
      <point x="727.0" y="1760.0" type="curve" smooth="yes"/>
    </contour>
    <contour>
      <point x="303.0" y="923" type="move" name="mid"/>
    </contour>
    <contour>
      <point x="668.0" y="1760" type="move" name="top"/>
    </contour>
  </outline>
</glyph>
<glyph name="E" format="1">
  <advance width="854.0"/>
  <unicode hex="0045"/>
  <outline>
    <contour>
      <point x="242.0" y="1760.0" type="line"/>
      <point x="-35.0" y="0.0" type="line"/>
      <point x="692.0" y="0.0" type="line"/>
      <point x="746.0" y="343.0" type="line"/>
      <point x="377.0" y="343.0" type="line"/>
      <point x="440.0" y="746.0" type="line"/>
      <point x="772.0" y="746.0" type="line"/>
      <point x="824.0" y="1077.0" type="line"/>
      <point x="492.0" y="1077.0" type="line"/>
      <point x="546.0" y="1420.0" type="line"/>
      <point x="892.0" y="1420.0" type="line"/>
      <point x="946.0" y="1760.0" type="line"/>
    </contour>
    <contour>
      <point x="295.0" y="0" type="move" name="bot"/>
    </contour>
    <contour>
      <point x="381.0" y="0" type="move" name="ogonek"/>
    </contour>
  </outline>
</glyph>
<glyph name="F" format="1">
  <advance width="832.0"/>
  <unicode hex="0046"/>
  <outline>
    <contour>
      <point x="242.0" y="1760.0" type="line"/>
      <point x="-35.0" y="0.0" type="line"/>
      <point x="319.0" y="0.0" type="line"/>
      <point x="444.0" y="798.0" type="line"/>
      <point x="776.0" y="798.0" type="line"/>
      <point x="830.0" y="1137.0" type="line"/>
      <point x="498.0" y="1137.0" type="line"/>
      <point x="542.0" y="1417.0" type="line"/>
      <point x="892.0" y="1417.0" type="line"/>
      <point x="946.0" y="1760.0" type="line"/>
    </contour>
    <contour>
      <point x="616.0" y="1760" type="move" name="top"/>
    </contour>
  </outline>
</glyph>
<glyph name="G" format="1">
  <advance width="999.0"/>
  <unicode hex="0047"/>
  <outline>
    <contour>
      <point x="66.0" y="-16.0"/>
      <point x="320.0" y="-16.0" type="curve" smooth="yes"/>
      <point x="451.0" y="-16.0"/>
      <point x="555.0" y="36.0"/>
      <point x="636.0" y="148.0" type="curve"/>
      <point x="673.0" y="0.0" type="line"/>
      <point x="814.0" y="0.0" type="line"/>
      <point x="976.0" y="1025.0" type="line"/>
      <point x="546.0" y="1025.0" type="line"/>
      <point x="497.0" y="721.0" type="line"/>
      <point x="591.0" y="721.0" type="line"/>
      <point x="552.0" y="470.0" type="line" smooth="yes"/>
      <point x="537.0" y="372.0"/>
      <point x="508.0" y="308.0"/>
      <point x="434.0" y="308.0" type="curve" smooth="yes"/>
      <point x="362.0" y="308.0"/>
      <point x="353.0" y="373.0"/>
      <point x="367.0" y="468.0" type="curve" smooth="yes"/>
      <point x="502.0" y="1321.0" type="line" smooth="yes"/>
      <point x="512.0" y="1386.0"/>
      <point x="541.0" y="1452.0"/>
      <point x="623.0" y="1452.0" type="curve" smooth="yes"/>
      <point x="688.0" y="1452.0"/>
      <point x="694.0" y="1394.0"/>
      <point x="682.0" y="1318.0" type="curve" smooth="yes"/>
      <point x="658.0" y="1162.0" type="line"/>
      <point x="1002.0" y="1162.0" type="line"/>
      <point x="1063.0" y="1555.0"/>
      <point x="1013.0" y="1776.0"/>
      <point x="658.0" y="1776.0" type="curve" smooth="yes"/>
      <point x="370.0" y="1776.0"/>
      <point x="199.0" y="1608.0"/>
      <point x="148.0" y="1283.0" type="curve" smooth="yes"/>
      <point x="28.0" y="524.0" type="line" smooth="yes"/>
      <point x="-28.0" y="161.0"/>
    </contour>
    <contour>
      <point x="386.0" y="0" type="move" name="bot"/>
    </contour>
    <contour>
      <point x="654.0" y="1760" type="move" name="top"/>
    </contour>
  </outline>
</glyph>
<glyph name="H" format="1">
  <advance width="1030.0"/>
  <unicode hex="0048"/>
  <outline>
    <contour>
      <point x="242.0" y="1760.0" type="line"/>
      <point x="-35.0" y="0.0" type="line"/>
      <point x="315.0" y="0.0" type="line"/>
      <point x="440.0" y="798.0" type="line"/>
      <point x="606.0" y="798.0" type="line"/>
      <point x="481.0" y="0.0" type="line"/>
      <point x="831.0" y="0.0" type="line"/>
      <point x="1108.0" y="1760.0" type="line"/>
      <point x="758.0" y="1760.0" type="line"/>
      <point x="659.0" y="1131.0" type="line"/>
      <point x="493.0" y="1131.0" type="line"/>
      <point x="592.0" y="1760.0" type="line"/>
    </contour>
    <contour>
      <point x="680.0" y="1760" type="move" name="top"/>
    </contour>
  </outline>
</glyph>
<glyph name="I" format="1">
  <advance width="504.0"/>
  <unicode hex="0049"/>
  <outline>
    <contour>
      <point x="242.0" y="1760.0" type="line"/>
      <point x="-35.0" y="0.0" type="line"/>
      <point x="305.0" y="0.0" type="line"/>
      <point x="582.0" y="1760.0" type="line"/>
    </contour>
    <contour>
      <point x="129.0" y="0" type="move" name="ogonek"/>
    </contour>
    <contour>
      <point x="425.0" y="1760" type="move" name="top"/>
    </contour>
  </outline>
</glyph>
<glyph name="J" format="1">
  <advance width="978.0"/>
  <unicode hex="004A"/>
  <outline>
    <contour>
      <point x="113.0" y="-16.0"/>
      <point x="352.0" y="-16.0" type="curve" smooth="yes"/>
      <point x="603.0" y="-16.0"/>
      <point x="810.0" y="160.0"/>
      <point x="854.0" y="440.0" type="curve" smooth="yes"/>
      <point x="1062.0" y="1760.0" type="line"/>
      <point x="707.0" y="1760.0" type="line"/>
      <point x="494.0" y="405.0" type="line" smooth="yes"/>
      <point x="484.0" y="344.0"/>
      <point x="452.0" y="308.0"/>
      <point x="399.0" y="308.0" type="curve" smooth="yes"/>
      <point x="344.0" y="308.0"/>
      <point x="328.0" y="348.0"/>
      <point x="337.0" y="410.0" type="curve" smooth="yes"/>
      <point x="404.0" y="830.0" type="line"/>
      <point x="56.0" y="830.0" type="line"/>
      <point x="-14.0" y="389.0" type="line" smooth="yes"/>
      <point x="-56.0" y="124.0"/>
    </contour>
    <contour>
      <point x="874.0" y="1760" type="move" name="top"/>
    </contour>
  </outline>
</glyph>
<glyph name="K" format="1">
  <advance width="974.0"/>
  <unicode hex="004B"/>
  <outline>
    <contour>
      <point x="242.0" y="1760.0" type="line"/>
      <point x="-35.0" y="0.0" type="line"/>
      <point x="315.0" y="0.0" type="line"/>
      <point x="449.0" y="852.0" type="line"/>
      <point x="507.0" y="0.0" type="line"/>
      <point x="872.0" y="0.0" type="line"/>
      <point x="784.0" y="954.0" type="line"/>
      <point x="1108.0" y="1760.0" type="line"/>
      <point x="754.0" y="1760.0" type="line"/>
      <point x="478.0" y="1055.0" type="line"/>
      <point x="590.0" y="1760.0" type="line"/>
    </contour>
    <contour>
      <point x="410.0" y="0" type="move" name="bot"/>
    </contour>
    <contour>
      <point x="675.0" y="1760" type="move" name="top"/>
    </contour>
  </outline>
</glyph>
<glyph name="L" format="1">
  <advance width="808.0"/>
  <unicode hex="004C"/>
  <outline>
    <contour>
      <point x="242.0" y="1760.0" type="line"/>
      <point x="-35.0" y="0.0" type="line"/>
      <point x="679.0" y="0.0" type="line"/>
      <point x="726.0" y="300.0" type="line"/>
      <point x="364.0" y="300.0" type="line"/>
      <point x="594.0" y="1760.0" type="line"/>
    </contour>
    <contour>
      <point x="320.0" y="0" type="move" name="bot"/>
    </contour>
    <contour>
      <point x="387.0" y="1500" type="move" name="caron.alt"/>
    </contour>
    <contour>
      <point x="762.0" y="1011" type="move" name="mid"/>
    </contour>
    <contour>
      <point x="665.0" y="1760" type="move" name="top"/>
    </contour>
  </outline>
</glyph>
<glyph name="M" format="1">
  <advance width="1536.0"/>
  <unicode hex="004D"/>
  <outline>
    <contour>
      <point x="242.0" y="1760.0" type="line"/>
      <point x="-35.0" y="0.0" type="line"/>
      <point x="283.0" y="0.0" type="line"/>
      <point x="483.0" y="1268.0" type="line"/>
      <point x="497.0" y="0.0" type="line"/>
      <point x="813.0" y="0.0" type="line"/>
      <point x="1215.0" y="1268.0" type="line"/>
      <point x="1015.0" y="0.0" type="line"/>
      <point x="1337.0" y="0.0" type="line"/>
      <point x="1614.0" y="1760.0" type="line"/>
      <point x="1073.0" y="1760.0" type="line"/>
      <point x="757.0" y="687.0" type="line"/>
      <point x="778.0" y="1760.0" type="line"/>
    </contour>
    <contour>
      <point x="932.0" y="1760" type="move" name="top"/>
    </contour>
  </outline>
</glyph>
<glyph name="N" format="1">
  <advance width="1028.0"/>
  <unicode hex="004E"/>
  <outline>
    <contour>
      <point x="242.0" y="1760.0" type="line"/>
      <point x="-35.0" y="0.0" type="line"/>
      <point x="309.0" y="0.0" type="line"/>
      <point x="447.0" y="880.0" type="line"/>
      <point x="485.0" y="0.0" type="line"/>
      <point x="829.0" y="0.0" type="line"/>
      <point x="1106.0" y="1760.0" type="line"/>
      <point x="766.0" y="1760.0" type="line"/>
      <point x="633.0" y="917.0" type="line"/>
      <point x="604.0" y="1760.0" type="line"/>
    </contour>
    <contour>
      <point x="390.0" y="0" type="move" name="bot"/>
    </contour>
    <contour>
      <point x="695.0" y="1760" type="move" name="top"/>
    </contour>
  </outline>
</glyph>
<glyph name="O" format="1">
  <advance width="995.0"/>
  <unicode hex="004F"/>
  <outline>
    <contour>
      <point x="496.0" y="308.0"/>
      <point x="429.0" y="308.0" type="curve" smooth="yes"/>
      <point x="357.0" y="308.0"/>
      <point x="352.0" y="369.0"/>
      <point x="367.0" y="461.0" type="curve" smooth="yes"/>
      <point x="502.0" y="1319.0" type="line" smooth="yes"/>
      <point x="514.0" y="1394.0"/>
      <point x="543.0" y="1452.0"/>
      <point x="611.0" y="1452.0" type="curve" smooth="yes"/>
      <point x="680.0" y="1452.0"/>
      <point x="678.0" y="1384.0"/>
      <point x="668.0" y="1322.0" type="curve" smooth="yes"/>
      <point x="533.0" y="463.0" type="line" smooth="yes"/>
      <point x="519.0" y="378.0"/>
    </contour>
    <contour>
      <point x="89.0" y="-16.0"/>
      <point x="377.0" y="-16.0" type="curve" smooth="yes"/>
      <point x="665.0" y="-16.0"/>
      <point x="840.0" y="167.0"/>
      <point x="890.0" y="480.0" type="curve" smooth="yes"/>
      <point x="1022.0" y="1316.0" type="line" smooth="yes"/>
      <point x="1070.0" y="1619.0"/>
      <point x="942.0" y="1776.0"/>
      <point x="660.0" y="1776.0" type="curve" smooth="yes"/>
      <point x="378.0" y="1776.0"/>
      <point x="202.0" y="1619.0"/>
      <point x="154.0" y="1316.0" type="curve" smooth="yes"/>
      <point x="22.0" y="480.0" type="line" smooth="yes"/>
      <point x="-28.0" y="167.0"/>
    </contour>
    <contour>
      <point x="332.0" y="0" type="move" name="ogonek"/>
    </contour>
    <contour>
      <point x="658.0" y="1760" type="move" name="top"/>
    </contour>
  </outline>
</glyph>
<glyph name="P" format="1">
  <advance width="969.0"/>
  <unicode hex="0050"/>
  <outline>
    <contour>
      <point x="242.0" y="1760.0" type="line"/>
      <point x="-35.0" y="0.0" type="line"/>
      <point x="311.0" y="0.0" type="line"/>
      <point x="420.0" y="697.0" type="line"/>
      <point x="563.0" y="697.0" type="line" smooth="yes"/>
      <point x="855.0" y="697.0"/>
      <point x="963.0" y="903.0"/>
      <point x="1013.0" y="1224.0" type="curve" smooth="yes"/>
      <point x="1066.0" y="1556.0"/>
      <point x="999.0" y="1760.0"/>
      <point x="707.0" y="1760.0" type="curve" smooth="yes"/>
    </contour>
    <contour>
      <point x="490.0" y="1013.0" type="curve" smooth="yes"/>
      <point x="470.0" y="1013.0" type="line"/>
      <point x="538.0" y="1439.0" type="line"/>
      <point x="577.0" y="1439.0" type="line" smooth="yes"/>
      <point x="683.0" y="1439.0"/>
      <point x="687.0" y="1363.0"/>
      <point x="666.0" y="1230.0" type="curve" smooth="yes"/>
      <point x="643.0" y="1087.0"/>
      <point x="620.0" y="1013.0"/>
    </contour>
    <contour>
      <point x="647.0" y="1760" type="move" name="top"/>
    </contour>
  </outline>
</glyph>
<glyph name="Q" format="1">
  <advance width="1003.0"/>
  <unicode hex="0051"/>
  <outline>
    <contour>
      <point x="468.0" y="-3.0" type="curve"/>
      <point x="718.0" y="-187.0" type="line"/>
      <point x="871.0" y="23.0" type="line"/>
      <point x="735.0" y="119.0" type="line"/>
      <point x="813.0" y="202.0"/>
      <point x="864.0" y="318.0"/>
      <point x="887.0" y="462.0" type="curve" smooth="yes"/>
      <point x="1021.0" y="1313.0" type="line" smooth="yes"/>
      <point x="1068.0" y="1616.0"/>
      <point x="941.0" y="1776.0"/>
      <point x="660.0" y="1776.0" type="curve" smooth="yes"/>
      <point x="379.0" y="1776.0"/>
      <point x="200.0" y="1616.0"/>
      <point x="153.0" y="1313.0" type="curve" smooth="yes"/>
      <point x="19.0" y="462.0" type="line" smooth="yes"/>
      <point x="-31.0" y="150.0"/>
      <point x="91.0" y="-16.0"/>
      <point x="377.0" y="-16.0" type="curve" smooth="yes"/>
      <point x="390.0" y="-16.0"/>
      <point x="422.0" y="-10.0"/>
    </contour>
    <contour>
      <point x="504.0" y="308.0"/>
      <point x="429.0" y="308.0" type="curve" smooth="yes"/>
      <point x="347.0" y="308.0"/>
      <point x="358.0" y="407.0"/>
      <point x="370.0" y="477.0" type="curve" smooth="yes"/>
      <point x="501.0" y="1308.0" type="line" smooth="yes"/>
      <point x="512.0" y="1384.0"/>
      <point x="538.0" y="1452.0"/>
      <point x="607.0" y="1452.0" type="curve" smooth="yes"/>
      <point x="675.0" y="1452.0"/>
      <point x="678.0" y="1382.0"/>
      <point x="666.0" y="1307.0" type="curve" smooth="yes"/>
      <point x="536.0" y="484.0" type="line" smooth="yes"/>
      <point x="524.0" y="407.0"/>
    </contour>
  </outline>
</glyph>
<glyph name="R" format="1">
  <advance width="994.0"/>
  <unicode hex="0052"/>
  <outline>
    <contour>
      <point x="242.0" y="1760.0" type="line"/>
      <point x="-35.0" y="0.0" type="line"/>
      <point x="321.0" y="0.0" type="line"/>
      <point x="447.0" y="803.0" type="line"/>
      <point x="540.0" y="803.0"/>
      <point x="578.0" y="792.0"/>
      <point x="562.0" y="689.0" type="curve" smooth="yes"/>
      <point x="454.0" y="0.0" type="line"/>
      <point x="798.0" y="0.0" type="line"/>
      <point x="907.0" y="666.0" type="line" smooth="yes"/>
      <point x="929.0" y="805.0"/>
      <point x="902.0" y="895.0"/>
      <point x="796.0" y="918.0" type="curve"/>
      <point x="936.0" y="962.0"/>
      <point x="994.0" y="1075.0"/>
      <point x="1024.0" y="1267.0" type="curve" smooth="yes"/>
      <point x="1071.0" y="1564.0"/>
      <point x="1052.0" y="1760.0"/>
      <point x="782.0" y="1760.0" type="curve" smooth="yes"/>
    </contour>
    <contour>
      <point x="582.0" y="1108.0" type="curve" smooth="yes"/>
      <point x="497.0" y="1108.0" type="line"/>
      <point x="549.0" y="1434.0" type="line"/>
      <point x="631.0" y="1434.0" type="line" smooth="yes"/>
      <point x="690.0" y="1434.0"/>
      <point x="702.0" y="1404.0"/>
      <point x="680.0" y="1267.0" type="curve" smooth="yes"/>
      <point x="663.0" y="1160.0"/>
      <point x="629.0" y="1108.0"/>
    </contour>
    <contour>
      <point x="402.0" y="0" type="move" name="bot"/>
    </contour>
    <contour>
      <point x="643.0" y="1760" type="move" name="top"/>
    </contour>
  </outline>
</glyph>
<glyph name="S" format="1">
  <advance width="941.0"/>
  <unicode hex="0053"/>
  <outline>
    <contour>
      <point x="55.0" y="-16.0"/>
      <point x="377.0" y="-16.0" type="curve" smooth="yes"/>
      <point x="679.0" y="-16.0"/>
      <point x="818.0" y="182.0"/>
      <point x="871.0" y="513.0" type="curve" smooth="yes"/>
      <point x="909.0" y="758.0"/>
      <point x="825.0" y="877.0"/>
      <point x="722.0" y="994.0" type="curve" smooth="yes"/>
      <point x="550.0" y="1189.0" type="line" smooth="yes"/>
      <point x="482.0" y="1264.0"/>
      <point x="471.0" y="1319.0"/>
      <point x="479.0" y="1368.0" type="curve" smooth="yes"/>
      <point x="486.0" y="1417.0"/>
      <point x="517.0" y="1452.0"/>
      <point x="573.0" y="1452.0" type="curve" smooth="yes"/>
      <point x="619.0" y="1452.0"/>
      <point x="643.0" y="1424.0"/>
      <point x="636.0" y="1376.0" type="curve" smooth="yes"/>
      <point x="619.0" y="1255.0" type="line"/>
      <point x="976.0" y="1255.0" type="line"/>
      <point x="1031.0" y="1605.0"/>
      <point x="936.0" y="1776.0"/>
      <point x="613.0" y="1776.0" type="curve" smooth="yes"/>
      <point x="349.0" y="1776.0"/>
      <point x="180.0" y="1615.0"/>
      <point x="133.0" y="1315.0" type="curve" smooth="yes"/>
      <point x="111.0" y="1172.0"/>
      <point x="152.0" y="1049.0"/>
      <point x="250.0" y="933.0" type="curve" smooth="yes"/>
      <point x="378.0" y="783.0" type="line" smooth="yes"/>
      <point x="480.0" y="663.0"/>
      <point x="538.0" y="610.0"/>
      <point x="509.0" y="428.0" type="curve" smooth="yes"/>
      <point x="496.0" y="342.0"/>
      <point x="470.0" y="308.0"/>
      <point x="406.0" y="308.0" type="curve" smooth="yes"/>
      <point x="344.0" y="308.0"/>
      <point x="330.0" y="356.0"/>
      <point x="343.0" y="438.0" type="curve" smooth="yes"/>
      <point x="378.0" y="658.0" type="line"/>
      <point x="30.0" y="658.0" type="line"/>
      <point x="3.0" y="486.0" type="line" smooth="yes"/>
      <point x="-52.0" y="136.0"/>
    </contour>
    <contour>
      <point x="350.0" y="0" type="move" name="bot"/>
    </contour>
    <contour>
      <point x="642.0" y="1760" type="move" name="top"/>
    </contour>
  </outline>
</glyph>
<glyph name="U" format="1">
  <advance width="1008.0"/>
  <unicode hex="0055"/>
  <outline>
    <contour>
      <point x="91.0" y="-16.0"/>
      <point x="384.0" y="-16.0" type="curve" smooth="yes"/>
      <point x="677.0" y="-16.0"/>
      <point x="838.0" y="151.0"/>
      <point x="889.0" y="471.0" type="curve" smooth="yes"/>
      <point x="1092.0" y="1760.0" type="line"/>
      <point x="750.0" y="1760.0" type="line"/>
      <point x="548.0" y="485.0" type="line" smooth="yes"/>
      <point x="535.0" y="396.0"/>
      <point x="516.0" y="308.0"/>
      <point x="435.0" y="308.0" type="curve" smooth="yes"/>
      <point x="355.0" y="308.0"/>
      <point x="363.0" y="397.0"/>
      <point x="376.0" y="485.0" type="curve" smooth="yes"/>
      <point x="578.0" y="1760.0" type="line"/>
      <point x="236.0" y="1760.0" type="line"/>
      <point x="33.0" y="471.0" type="line" smooth="yes"/>
      <point x="-18.0" y="151.0"/>
    </contour>
    <contour>
      <point x="409.0" y="0" type="move" name="ogonek"/>
    </contour>
    <contour>
      <point x="670.0" y="1760" type="move" name="top"/>
    </contour>
  </outline>
</glyph>
<glyph name="V" format="1">
  <advance width="951.0"/>
  <unicode hex="0056"/>
  <outline>
    <contour>
      <point x="178.0" y="1761.0" type="line"/>
      <point x="118.0" y="0.0" type="line"/>
      <point x="598.0" y="0.0" type="line"/>
      <point x="1092.0" y="1761.0" type="line"/>
      <point x="757.0" y="1761.0" type="line"/>
      <point x="453.0" y="563.0" type="line"/>
      <point x="513.0" y="1761.0" type="line"/>
    </contour>
  </outline>
</glyph>
<glyph name="W" format="1">
  <advance width="1446.0"/>
  <unicode hex="0057"/>
  <outline>
    <contour>
      <point x="181.0" y="1760.0" type="line"/>
      <point x="93.0" y="0.0" type="line"/>
      <point x="522.0" y="0.0" type="line"/>
      <point x="739.0" y="847.0" type="line"/>
      <point x="694.0" y="0.0" type="line"/>
      <point x="1116.0" y="0.0" type="line"/>
      <point x="1585.0" y="1760.0" type="line"/>
      <point x="1237.0" y="1760.0" type="line"/>
      <point x="968.0" y="649.0" type="line"/>
      <point x="1049.0" y="1760.0" type="line"/>
      <point x="721.0" y="1760.0" type="line"/>
      <point x="447.0" y="649.0" type="line"/>
      <point x="525.0" y="1760.0" type="line"/>
    </contour>
    <contour>
      <point x="897.0" y="1760" type="move" name="top"/>
    </contour>
  </outline>
</glyph>
<glyph name="X" format="1">
  <advance width="938.0"/>
  <unicode hex="0058"/>
  <outline>
    <contour>
      <point x="218.0" y="933.0" type="line"/>
      <point x="-117.0" y="0.0" type="line"/>
      <point x="240.0" y="0.0" type="line"/>
      <point x="462.0" y="688.0" type="line"/>
      <point x="465.0" y="0.0" type="line"/>
      <point x="821.0" y="0.0" type="line"/>
      <point x="779.0" y="933.0" type="line"/>
      <point x="1060.0" y="1761.0" type="line"/>
      <point x="715.0" y="1761.0" type="line"/>
      <point x="539.0" y="1156.0" type="line"/>
      <point x="543.0" y="1761.0" type="line"/>
      <point x="199.0" y="1761.0" type="line"/>
    </contour>
  </outline>
</glyph>
<glyph name="Y" format="1">
  <advance width="900.0"/>
  <unicode hex="0059"/>
  <outline>
    <contour>
      <point x="258.0" y="579.0" type="line"/>
      <point x="167.0" y="0.0" type="line"/>
      <point x="499.0" y="0.0" type="line"/>
      <point x="590.0" y="579.0" type="line"/>
      <point x="1056.0" y="1760.0" type="line"/>
      <point x="708.0" y="1760.0" type="line"/>
      <point x="516.0" y="1164.0" type="line"/>
      <point x="512.0" y="1760.0" type="line"/>
      <point x="163.0" y="1760.0" type="line"/>
    </contour>
    <contour>
      <point x="609.0" y="1760" type="move" name="top"/>
    </contour>
  </outline>
</glyph>
<glyph name="Z" format="1">
  <advance width="822.0"/>
  <unicode hex="005A"/>
  <outline>
    <contour>
      <point x="-45.0" y="320.0" type="line"/>
      <point x="-95.0" y="0.0" type="line"/>
      <point x="662.0" y="0.0" type="line"/>
      <point x="713.0" y="324.0" type="line"/>
      <point x="320.0" y="324.0" type="line"/>
      <point x="907.0" y="1452.0" type="line"/>
      <point x="956.0" y="1760.0" type="line"/>
      <point x="221.0" y="1760.0" type="line"/>
      <point x="170.0" y="1436.0" type="line"/>
      <point x="534.0" y="1436.0" type="line"/>
    </contour>
    <contour>
      <point x="628.0" y="1760" type="move" name="top"/>
    </contour>
  </outline>
</glyph>
<glyph name="bracketleft" format="1">
  <advance width="705.0"/>
  <unicode hex="005B"/>
  <outline>
    <contour>
      <point x="259.0" y="1761.0" type="line"/>
      <point x="-18.0" y="0.0" type="line"/>
      <point x="536.0" y="0.0" type="line"/>
      <point x="579.0" y="281.0" type="line"/>
      <point x="377.0" y="281.0" type="line"/>
      <point x="566.0" y="1480.0" type="line"/>
      <point x="768.0" y="1480.0" type="line"/>
      <point x="813.0" y="1761.0" type="line"/>
    </contour>
  </outline>
</glyph>
<glyph name="backslash" format="1">
  <advance width="829.0"/>
  <unicode hex="005C"/>
  <outline>
    <contour>
      <point x="188.0" y="1767.0" type="line"/>
      <point x="320.0" y="0.0" type="line"/>
      <point x="683.0" y="0.0" type="line"/>
      <point x="552.0" y="1767.0" type="line"/>
    </contour>
  </outline>
</glyph>
<glyph name="bracketright" format="1">
  <advance width="706.0"/>
  <unicode hex="005D"/>
  <outline>
    <contour>
      <point x="-21.0" y="281.0" type="line"/>
      <point x="-64.0" y="0.0" type="line"/>
      <point x="490.0" y="0.0" type="line"/>
      <point x="767.0" y="1761.0" type="line"/>
      <point x="213.0" y="1761.0" type="line"/>
      <point x="168.0" y="1480.0" type="line"/>
      <point x="370.0" y="1480.0" type="line"/>
      <point x="181.0" y="281.0" type="line"/>
    </contour>
  </outline>
</glyph>
<glyph name="asciicircum" format="1">
  <advance width="960.0"/>
  <unicode hex="005E"/>
  <outline>
    <contour>
      <point x="373.0" y="1355.0" type="line"/>
      <point x="-13.0" y="432.0" type="line"/>
      <point x="346.0" y="432.0" type="line"/>
      <point x="526.0" y="1027.0" type="line"/>
      <point x="518.0" y="432.0" type="line"/>
      <point x="877.0" y="432.0" type="line"/>
      <point x="781.0" y="1355.0" type="line"/>
    </contour>
  </outline>
</glyph>
<glyph name="underscore" format="1">
  <advance width="652.0"/>
  <unicode hex="005F"/>
  <outline>
    <contour>
      <point x="-135.0" y="-110.0" type="line"/>
      <point x="-171.0" y="-342.0" type="line"/>
      <point x="480.0" y="-342.0" type="line"/>
      <point x="516.0" y="-110.0" type="line"/>
    </contour>
  </outline>
</glyph>
<glyph name="grave" format="1">
  <advance width="650.0"/>
  <unicode hex="0060"/>
  <outline>
    <contour>
      <point x="126.0" y="1647.0" type="line"/>
      <point x="587.0" y="1553.0" type="line"/>
      <point x="621.0" y="1776.0" type="line"/>
      <point x="181.0" y="1994.0" type="line"/>
    </contour>
    <contour>
      <point x="397" y="1500" type="move" name="_top"/>
    </contour>
  </outline>
</glyph>
<glyph name="a" format="1">
  <advance width="989.0"/>
  <unicode hex="0061"/>
  <outline>
    <contour>
      <point x="-30.0" y="-16.0"/>
      <point x="220.0" y="-16.0" type="curve" smooth="yes"/>
      <point x="323.0" y="-16.0"/>
      <point x="418.0" y="53.0"/>
      <point x="473.0" y="178.0" type="curve"/>
      <point x="445.0" y="0.0" type="line"/>
      <point x="801.0" y="0.0" type="line"/>
      <point x="981.0" y="1143.0" type="line" smooth="yes"/>
      <point x="1019.0" y="1387.0"/>
      <point x="859.0" y="1516.0"/>
      <point x="619.0" y="1516.0" type="curve" smooth="yes"/>
      <point x="313.0" y="1516.0"/>
      <point x="161.0" y="1403.0"/>
      <point x="115.0" y="1105.0" type="curve" smooth="yes"/>
      <point x="111.0" y="1084.0"/>
      <point x="108.0" y="1067.0"/>
      <point x="108.0" y="1056.0" type="curve"/>
      <point x="456.0" y="1056.0" type="line"/>
      <point x="470.0" y="1146.0" type="line" smooth="yes"/>
      <point x="478.0" y="1201.0"/>
      <point x="505.0" y="1243.0"/>
      <point x="570.0" y="1239.0" type="curve" smooth="yes"/>
      <point x="615.0" y="1236.0"/>
      <point x="631.0" y="1213.0"/>
      <point x="617.0" y="1123.0" type="curve" smooth="yes"/>
      <point x="614.0" y="1102.0"/>
      <point x="597.0" y="998.0"/>
      <point x="593.0" y="972.0" type="curve" smooth="yes"/>
      <point x="593.0" y="969.0" type="line"/>
      <point x="239.0" y="854.0"/>
      <point x="50.0" y="839.0"/>
      <point x="-14.0" y="430.0" type="curve" smooth="yes"/>
      <point x="-55.0" y="174.0"/>
    </contour>
    <contour>
      <point x="462.0" y="262.0"/>
      <point x="404.0" y="262.0" type="curve" smooth="yes"/>
      <point x="351.0" y="262.0"/>
      <point x="331.0" y="306.0"/>
      <point x="345.0" y="395.0" type="curve" smooth="yes"/>
      <point x="376.0" y="588.0" type="line" smooth="yes"/>
      <point x="394.0" y="705.0"/>
      <point x="459.0" y="757.0"/>
      <point x="565.0" y="797.0" type="curve"/>
      <point x="498.0" y="379.0" type="line" smooth="yes"/>
      <point x="489.0" y="322.0"/>
    </contour>
    <contour>
      <point x="632.0" y="0" type="move" name="ogonek"/>
    </contour>
    <contour>
      <point x="616.0" y="1500" type="move" name="top"/>
    </contour>
  </outline>
</glyph>
<glyph name="b" format="1">
  <advance width="1035.0"/>
  <unicode hex="0062"/>
  <outline>
    <contour>
      <point x="438.0" y="-16.0"/>
      <point x="535.0" y="-16.0" type="curve" smooth="yes"/>
      <point x="759.0" y="-16.0"/>
      <point x="878.0" y="160.0"/>
      <point x="915.0" y="391.0" type="curve" smooth="yes"/>
      <point x="1028.0" y="1114.0" type="line" smooth="yes"/>
      <point x="1068.0" y="1360.0"/>
      <point x="1009.0" y="1516.0"/>
      <point x="765.0" y="1516.0" type="curve" smooth="yes"/>
      <point x="692.0" y="1516.0"/>
      <point x="620.0" y="1488.0"/>
      <point x="551.0" y="1427.0" type="curve"/>
      <point x="605.0" y="1770.0" type="line"/>
      <point x="237.0" y="1770.0" type="line"/>
      <point x="-42.0" y="0.0" type="line"/>
      <point x="326.0" y="0.0" type="line"/>
      <point x="351.0" y="160.0" type="line"/>
      <point x="377.0" y="41.0"/>
    </contour>
    <contour>
      <point x="536.0" y="263.0"/>
      <point x="457.0" y="263.0" type="curve" smooth="yes"/>
      <point x="374.0" y="263.0"/>
      <point x="381.0" y="349.0"/>
      <point x="398.0" y="457.0" type="curve" smooth="yes"/>
      <point x="497.0" y="1085.0" type="line" smooth="yes"/>
      <point x="511.0" y="1175.0"/>
      <point x="537.0" y="1239.0"/>
      <point x="609.0" y="1239.0" type="curve" smooth="yes"/>
      <point x="679.0" y="1239.0"/>
      <point x="674.0" y="1171.0"/>
      <point x="660.0" y="1081.0" type="curve" smooth="yes"/>
      <point x="562.0" y="457.0" type="line" smooth="yes"/>
      <point x="544.0" y="347.0"/>
    </contour>
    <contour>
      <point x="843.0" y="1760" type="move" name="top"/>
    </contour>
  </outline>
</glyph>
<glyph name="c" format="1">
  <advance width="999.0"/>
  <unicode hex="0063"/>
  <outline>
    <contour>
      <point x="64.0" y="-16.0"/>
      <point x="400.0" y="-16.0" type="curve" smooth="yes"/>
      <point x="650.0" y="-16.0"/>
      <point x="853.0" y="130.0"/>
      <point x="891.0" y="379.0" type="curve" smooth="yes"/>
      <point x="933.0" y="641.0" type="line"/>
      <point x="568.0" y="641.0" type="line"/>
      <point x="531.0" y="389.0" type="line" smooth="yes"/>
      <point x="520.0" y="322.0"/>
      <point x="488.0" y="264.0"/>
      <point x="426.0" y="264.0" type="curve" smooth="yes"/>
      <point x="365.0" y="264.0"/>
      <point x="350.0" y="326.0"/>
      <point x="360.0" y="387.0" type="curve" smooth="yes"/>
      <point x="475.0" y="1114.0" type="line" smooth="yes"/>
      <point x="488.0" y="1197.0"/>
      <point x="523.0" y="1239.0"/>
      <point x="582.0" y="1239.0" type="curve" smooth="yes"/>
      <point x="649.0" y="1239.0"/>
      <point x="653.0" y="1185.0"/>
      <point x="643.0" y="1116.0" type="curve" smooth="yes"/>
      <point x="610.0" y="906.0" type="line"/>
      <point x="975.0" y="906.0" type="line"/>
      <point x="1011.0" y="1135.0" type="line" smooth="yes"/>
      <point x="1049.0" y="1380.0"/>
      <point x="884.0" y="1516.0"/>
      <point x="636.0" y="1516.0" type="curve" smooth="yes"/>
      <point x="279.0" y="1516.0"/>
      <point x="149.0" y="1330.0"/>
      <point x="89.0" y="954.0" type="curve" smooth="yes"/>
      <point x="16.0" y="492.0" type="line" smooth="yes"/>
      <point x="-36.0" y="158.0"/>
    </contour>
    <contour>
      <point x="362.0" y="0" type="move" name="bot"/>
    </contour>
    <contour>
      <point x="630.0" y="1500" type="move" name="top"/>
    </contour>
  </outline>
</glyph>
<glyph name="d" format="1">
  <advance width="1027.0"/>
  <unicode hex="0064"/>
  <outline>
    <contour>
      <point x="-26.0" y="-16.0"/>
      <point x="251.0" y="-16.0" type="curve" smooth="yes"/>
      <point x="376.0" y="-16.0"/>
      <point x="444.0" y="51.0"/>
      <point x="501.0" y="159.0" type="curve"/>
      <point x="476.0" y="0.0" type="line"/>
      <point x="834.0" y="0.0" type="line"/>
      <point x="1113.0" y="1770.0" type="line"/>
      <point x="755.0" y="1770.0" type="line"/>
      <point x="700.0" y="1419.0" type="line"/>
      <point x="661.0" y="1485.0"/>
      <point x="593.0" y="1516.0"/>
      <point x="498.0" y="1516.0" type="curve" smooth="yes"/>
      <point x="293.0" y="1516.0"/>
      <point x="164.0" y="1357.0"/>
      <point x="131.0" y="1153.0" type="curve" smooth="yes"/>
      <point x="21.0" y="477.0" type="line" smooth="yes"/>
      <point x="-23.0" y="201.0"/>
    </contour>
    <contour>
      <point x="529.0" y="264.0"/>
      <point x="431.0" y="264.0" type="curve" smooth="yes"/>
      <point x="374.0" y="264.0"/>
      <point x="356.0" y="327.0"/>
      <point x="375.0" y="452.0" type="curve" smooth="yes"/>
      <point x="475.0" y="1083.0" type="line" smooth="yes"/>
      <point x="487.0" y="1160.0"/>
      <point x="510.0" y="1239.0"/>
      <point x="587.0" y="1239.0" type="curve" smooth="yes"/>
      <point x="657.0" y="1239.0"/>
      <point x="657.0" y="1153.0"/>
      <point x="647.0" y="1083.0" type="curve" smooth="yes"/>
      <point x="558.0" y="520.0" type="line" smooth="yes"/>
      <point x="542.0" y="422.0"/>
    </contour>
    <contour>
      <point x="885.0" y="1500" type="move" name="caron.alt"/>
    </contour>
    <contour>
      <point x="910.0" y="1629" type="move" name="mid"/>
    </contour>
    <contour>
      <point x="501.0" y="1618" type="move" name="top"/>
    </contour>
  </outline>
</glyph>
<glyph name="e" format="1">
  <advance width="996.0"/>
  <unicode hex="0065"/>
  <outline>
    <contour>
      <point x="49.0" y="-16.0"/>
      <point x="370.0" y="-16.0" type="curve" smooth="yes"/>
      <point x="710.0" y="-16.0"/>
      <point x="847.0" y="157.0"/>
      <point x="900.0" y="494.0" type="curve" smooth="yes"/>
      <point x="913.0" y="579.0" type="line"/>
      <point x="557.0" y="579.0" type="line"/>
      <point x="534.0" y="435.0" type="line" smooth="yes"/>
      <point x="521.0" y="350.0"/>
      <point x="511.0" y="260.0"/>
      <point x="425.0" y="260.0" type="curve" smooth="yes"/>
      <point x="345.0" y="260.0"/>
      <point x="352.0" y="346.0"/>
      <point x="365.0" y="427.0" type="curve" smooth="yes"/>
      <point x="411.0" y="717.0" type="line"/>
      <point x="931.0" y="717.0" type="line"/>
      <point x="942.0" y="768.0"/>
      <point x="956.0" y="848.0"/>
      <point x="977.0" y="983.0" type="curve" smooth="yes"/>
      <point x="994.0" y="1092.0" type="line" smooth="yes"/>
      <point x="1039.0" y="1376.0"/>
      <point x="917.0" y="1516.0"/>
      <point x="629.0" y="1516.0" type="curve" smooth="yes"/>
      <point x="349.0" y="1516.0"/>
      <point x="156.0" y="1371.0"/>
      <point x="112.0" y="1092.0" type="curve" smooth="yes"/>
      <point x="17.0" y="489.0" type="line" smooth="yes"/>
      <point x="-33.0" y="170.0"/>
    </contour>
    <contour>
      <point x="607.0" y="895.0" type="line"/>
      <point x="437.0" y="895.0" type="line"/>
      <point x="467.0" y="1087.0" type="line" smooth="yes"/>
      <point x="485.0" y="1199.0"/>
      <point x="526.0" y="1249.0"/>
      <point x="583.0" y="1249.0" type="curve" smooth="yes"/>
      <point x="636.0" y="1249.0"/>
      <point x="655.0" y="1195.0"/>
      <point x="637.0" y="1087.0" type="curve" smooth="yes"/>
    </contour>
    <contour>
      <point x="378.0" y="0" type="move" name="bot"/>
    </contour>
    <contour>
      <point x="407.0" y="0" type="move" name="ogonek"/>
    </contour>
    <contour>
      <point x="625.0" y="1500" type="move" name="top"/>
    </contour>
  </outline>
</glyph>
<glyph name="f" format="1">
  <advance width="577.0"/>
  <unicode hex="0066"/>
  <outline>
    <contour>
      <point x="173.0" y="1161.0" type="line"/>
      <point x="-9.0" y="0.0" type="line"/>
      <point x="346.0" y="0.0" type="line"/>
      <point x="528.0" y="1157.0" type="line"/>
      <point x="599.0" y="1157.0" type="line"/>
      <point x="643.0" y="1434.0" type="line"/>
      <point x="565.0" y="1434.0" type="line"/>
      <point x="568.0" y="1453.0" type="line" smooth="yes"/>
      <point x="575.0" y="1500.0"/>
      <point x="583.0" y="1533.0"/>
      <point x="625.0" y="1533.0" type="curve" smooth="yes"/>
      <point x="632.0" y="1533.0"/>
      <point x="643.0" y="1531.0"/>
      <point x="657.0" y="1528.0" type="curve"/>
      <point x="692.0" y="1749.0" type="line"/>
      <point x="650.0" y="1768.0"/>
      <point x="590.0" y="1778.0"/>
      <point x="513.0" y="1778.0" type="curve" smooth="yes"/>
      <point x="352.0" y="1778.0"/>
      <point x="258.0" y="1697.0"/>
      <point x="233.0" y="1536.0" type="curve" smooth="yes"/>
      <point x="217.0" y="1434.0" type="line"/>
      <point x="156.0" y="1434.0" type="line"/>
      <point x="129.0" y="1283.0"/>
      <point x="114.0" y="1192.0"/>
      <point x="108.0" y="1161.0" type="curve"/>
    </contour>
    <contour>
      <point x="484.0" y="1760" type="move" name="top"/>
    </contour>
  </outline>
</glyph>
<glyph name="g" format="1">
  <advance width="1025.0"/>
  <unicode hex="0067"/>
  <outline>
    <contour>
      <point x="103.0" y="-220.0"/>
      <point x="311.0" y="-220.0" type="curve" smooth="yes"/>
      <point x="648.0" y="-220.0"/>
      <point x="820.0" y="-86.0"/>
      <point x="874.0" y="254.0" type="curve" smooth="yes"/>
      <point x="1070.0" y="1500.0" type="line"/>
      <point x="705.0" y="1500.0" type="line"/>
      <point x="679.0" y="1331.0" type="line"/>
      <point x="671.0" y="1444.0"/>
      <point x="611.0" y="1516.0"/>
      <point x="479.0" y="1516.0" type="curve" smooth="yes"/>
      <point x="244.0" y="1516.0"/>
      <point x="153.0" y="1348.0"/>
      <point x="116.0" y="1106.0" type="curve" smooth="yes"/>
      <point x="27.0" y="543.0" type="line" smooth="yes"/>
      <point x="-7.0" y="328.0"/>
      <point x="51.0" y="160.0"/>
      <point x="266.0" y="160.0" type="curve" smooth="yes"/>
      <point x="389.0" y="160.0"/>
      <point x="473.0" y="211.0"/>
      <point x="518.0" y="314.0" type="curve"/>
      <point x="505.0" y="231.0" type="line" smooth="yes"/>
      <point x="487.0" y="113.0"/>
      <point x="419.0" y="33.0"/>
      <point x="304.0" y="33.0" type="curve" smooth="yes"/>
      <point x="217.0" y="33.0"/>
      <point x="133.0" y="59.0"/>
      <point x="54.0" y="111.0" type="curve"/>
      <point x="-99.0" y="-96.0" type="line"/>
      <point x="2.0" y="-194.0"/>
    </contour>
    <contour>
      <point x="509.0" y="430.0"/>
      <point x="453.0" y="430.0" type="curve" smooth="yes"/>
      <point x="379.0" y="430.0"/>
      <point x="383.0" y="510.0"/>
      <point x="394.0" y="582.0" type="curve" smooth="yes"/>
      <point x="479.0" y="1116.0" type="line" smooth="yes"/>
      <point x="489.0" y="1183.0"/>
      <point x="507.0" y="1243.0"/>
      <point x="576.0" y="1243.0" type="curve" smooth="yes"/>
      <point x="631.0" y="1243.0"/>
      <point x="654.0" y="1171.0"/>
      <point x="645.0" y="1116.0" type="curve" smooth="yes"/>
      <point x="560.0" y="582.0" type="line" smooth="yes"/>
      <point x="545.0" y="481.0"/>
    </contour>
    <contour>
      <point x="615.0" y="1500" type="move" name="top"/>
    </contour>
  </outline>
</glyph>
<glyph name="h" format="1">
  <advance width="1042.0"/>
  <unicode hex="0068"/>
  <outline>
    <contour>
      <point x="237.0" y="1770.0" type="line"/>
      <point x="-42.0" y="0.0" type="line"/>
      <point x="326.0" y="0.0" type="line"/>
      <point x="505.0" y="1135.0" type="line" smooth="yes"/>
      <point x="514.0" y="1194.0"/>
      <point x="553.0" y="1243.0"/>
      <point x="602.0" y="1243.0" type="curve" smooth="yes"/>
      <point x="661.0" y="1243.0"/>
      <point x="684.0" y="1197.0"/>
      <point x="674.0" y="1132.0" type="curve"/>
      <point x="494.0" y="0.0" type="line"/>
      <point x="853.0" y="0.0" type="line"/>
      <point x="1035.0" y="1155.0" type="line" smooth="yes"/>
      <point x="1070.0" y="1375.0"/>
      <point x="992.0" y="1516.0"/>
      <point x="784.0" y="1516.0" type="curve" smooth="yes"/>
      <point x="677.0" y="1516.0"/>
      <point x="595.0" y="1463.0"/>
      <point x="539.0" y="1351.0" type="curve"/>
      <point x="605.0" y="1770.0" type="line"/>
    </contour>
    <contour>
      <point x="388.0" y="1603" type="move" name="mid"/>
    </contour>
    <contour>
      <point x="898.0" y="1626" type="move" name="top"/>
    </contour>
  </outline>
</glyph>
<glyph name="i" format="1">
  <advance width="509.0"/>
  <unicode hex="0069"/>
  <outline>
    <contour>
      <point x="195.0" y="1500.0" type="line"/>
      <point x="-42.0" y="0.0" type="line"/>
      <point x="316.0" y="0.0" type="line"/>
      <point x="553.0" y="1500.0" type="line"/>
    </contour>
    <contour>
      <point x="250.0" y="1850.0" type="line"/>
      <point x="210.0" y="1600.0" type="line"/>
      <point x="568.0" y="1600.0" type="line"/>
      <point x="608.0" y="1850.0" type="line"/>
    </contour>
    <contour>
      <point x="135.0" y="0" type="move" name="ogonek"/>
    </contour>
  </outline>
</glyph>
<glyph name="j" format="1">
  <advance width="545.0"/>
  <unicode hex="006A"/>
  <outline>
    <contour>
      <point x="-34.0" y="-176.0"/>
      <point x="43.0" y="-176.0" type="curve" smooth="yes"/>
      <point x="249.0" y="-176.0"/>
      <point x="346.0" y="-47.0"/>
      <point x="379.0" y="166.0" type="curve" smooth="yes"/>
      <point x="590.0" y="1500.0" type="line"/>
      <point x="232.0" y="1500.0" type="line"/>
      <point x="20.0" y="156.0" type="line" smooth="yes"/>
      <point x="13.0" y="115.0"/>
      <point x="3.0" y="85.0"/>
      <point x="-35.0" y="85.0" type="curve" smooth="yes"/>
      <point x="-46.0" y="85.0"/>
      <point x="-56.0" y="87.0"/>
      <point x="-66.0" y="90.0" type="curve"/>
      <point x="-105.0" y="-150.0" type="line"/>
      <point x="-82.0" y="-167.0"/>
    </contour>
    <contour>
      <point x="287.0" y="1850.0" type="line"/>
      <point x="247.0" y="1600.0" type="line"/>
      <point x="605.0" y="1600.0" type="line"/>
      <point x="645.0" y="1850.0" type="line"/>
    </contour>
  </outline>
</glyph>
<glyph name="l" format="1">
  <advance width="515.0"/>
  <unicode hex="006C"/>
  <outline>
    <contour>
      <point x="237.0" y="1770.0" type="line"/>
      <point x="-42.0" y="0.0" type="line"/>
      <point x="322.0" y="0.0" type="line"/>
      <point x="601.0" y="1770.0" type="line"/>
    </contour>
    <contour>
      <point x="174.0" y="0" type="move" name="bot"/>
    </contour>
    <contour>
      <point x="373.0" y="1500" type="move" name="caron.alt"/>
    </contour>
    <contour>
      <point x="882.0" y="1603" type="move" name="mid"/>
    </contour>
    <contour>
      <point x="422.0" y="1760" type="move" name="top"/>
    </contour>
  </outline>
</glyph>
<glyph name="m" format="1">
  <advance width="1558.0"/>
  <unicode hex="006D"/>
  <outline>
    <contour>
      <point x="195.0" y="1500.0" type="line"/>
      <point x="-41.0" y="0.0" type="line"/>
      <point x="309.0" y="0.0" type="line"/>
      <point x="476.0" y="1059.0" type="line" smooth="yes"/>
      <point x="489.0" y="1140.0"/>
      <point x="523.0" y="1243.0"/>
      <point x="604.0" y="1243.0" type="curve" smooth="yes"/>
      <point x="667.0" y="1243.0"/>
      <point x="663.0" y="1165.0"/>
      <point x="653.0" y="1102.0" type="curve" smooth="yes"/>
      <point x="479.0" y="0.0" type="line"/>
      <point x="837.0" y="0.0" type="line"/>
      <point x="1007.0" y="1077.0" type="line" smooth="yes"/>
      <point x="1019.0" y="1154.0"/>
      <point x="1054.0" y="1247.0"/>
      <point x="1131.0" y="1247.0" type="curve" smooth="yes"/>
      <point x="1180.0" y="1247.0"/>
      <point x="1196.0" y="1199.0"/>
      <point x="1181.0" y="1102.0" type="curve" smooth="yes"/>
      <point x="1007.0" y="0.0" type="line"/>
      <point x="1368.0" y="0.0" type="line"/>
      <point x="1544.0" y="1096.0" type="line"/>
      <point x="1584.0" y="1343.0"/>
      <point x="1547.0" y="1516.0"/>
      <point x="1298.0" y="1516.0" type="curve" smooth="yes"/>
      <point x="1160.0" y="1516.0"/>
      <point x="1090.0" y="1464.0"/>
      <point x="1019.0" y="1365.0" type="curve"/>
      <point x="999.0" y="1456.0"/>
      <point x="920.0" y="1516.0"/>
      <point x="800.0" y="1516.0" type="curve" smooth="yes"/>
      <point x="650.0" y="1516.0"/>
      <point x="570.0" y="1448.0"/>
      <point x="518.0" y="1326.0" type="curve"/>
      <point x="545.0" y="1500.0" type="line"/>
    </contour>
    <contour>
      <point x="1046.0" y="1500" type="move" name="top"/>
    </contour>
  </outline>
</glyph>
<glyph name="n" format="1">
  <advance width="1029.0"/>
  <unicode hex="006E"/>
  <outline>
    <contour>
      <point x="195.0" y="1500.0" type="line"/>
      <point x="-41.0" y="0.0" type="line"/>
      <point x="317.0" y="0.0" type="line"/>
      <point x="483.0" y="1055.0" type="line" smooth="yes"/>
      <point x="497.0" y="1138.0"/>
      <point x="519.0" y="1239.0"/>
      <point x="602.0" y="1239.0" type="curve" smooth="yes"/>
      <point x="660.0" y="1239.0"/>
      <point x="673.0" y="1179.0"/>
      <point x="663.0" y="1120.0" type="curve" smooth="yes"/>
      <point x="487.0" y="0.0" type="line"/>
      <point x="840.0" y="0.0" type="line"/>
      <point x="1022.0" y="1157.0" type="line" smooth="yes"/>
      <point x="1057.0" y="1379.0"/>
      <point x="990.0" y="1516.0"/>
      <point x="782.0" y="1516.0" type="curve" smooth="yes"/>
      <point x="653.0" y="1516.0"/>
      <point x="568.0" y="1423.0"/>
      <point x="524.0" y="1309.0" type="curve"/>
      <point x="553.0" y="1500.0" type="line"/>
    </contour>
    <contour>
      <point x="404.0" y="0" type="move" name="bot"/>
    </contour>
    <contour>
      <point x="636.0" y="1500" type="move" name="top"/>
    </contour>
  </outline>
</glyph>
<glyph name="o" format="1">
  <advance width="1011.0"/>
  <unicode hex="006F"/>
  <outline>
    <contour>
      <point x="488.0" y="260.0"/>
      <point x="428.0" y="260.0" type="curve" smooth="yes"/>
      <point x="368.0" y="260.0"/>
      <point x="352.0" y="308.0"/>
      <point x="362.0" y="375.0" type="curve" smooth="yes"/>
      <point x="478.0" y="1108.0" type="line" smooth="yes"/>
      <point x="492.0" y="1195.0"/>
      <point x="526.0" y="1239.0"/>
      <point x="582.0" y="1239.0" type="curve" smooth="yes"/>
      <point x="638.0" y="1239.0"/>
      <point x="660.0" y="1195.0"/>
      <point x="646.0" y="1108.0" type="curve" smooth="yes"/>
      <point x="530.0" y="375.0" type="line" smooth="yes"/>
      <point x="520.0" y="308.0"/>
    </contour>
    <contour>
      <point x="86.0" y="-16.0"/>
      <point x="385.0" y="-16.0" type="curve" smooth="yes"/>
      <point x="686.0" y="-16.0"/>
      <point x="858.0" y="143.0"/>
      <point x="907.0" y="449.0" type="curve" smooth="yes"/>
      <point x="1002.0" y="1051.0" type="line" smooth="yes"/>
      <point x="1047.0" y="1334.0"/>
      <point x="907.0" y="1516.0"/>
      <point x="626.0" y="1516.0" type="curve" smooth="yes"/>
      <point x="346.0" y="1516.0"/>
      <point x="150.0" y="1333.0"/>
      <point x="105.0" y="1051.0" type="curve" smooth="yes"/>
      <point x="10.0" y="449.0" type="line" smooth="yes"/>
      <point x="-39.0" y="138.0"/>
    </contour>
    <contour>
      <point x="374.0" y="0" type="move" name="ogonek"/>
    </contour>
    <contour>
      <point x="624.0" y="1500" type="move" name="top"/>
    </contour>
  </outline>
</glyph>
<glyph name="p" format="1">
  <advance width="1031.0"/>
  <unicode hex="0070"/>
  <outline>
    <contour>
      <point x="195.0" y="1500.0" type="line"/>
      <point x="-88.0" y="-300.0" type="line"/>
      <point x="276.0" y="-300.0" type="line"/>
      <point x="332.0" y="59.0" type="line"/>
      <point x="371.0" y="8.0"/>
      <point x="436.0" y="-16.0"/>
      <point x="526.0" y="-16.0" type="curve" smooth="yes"/>
      <point x="822.0" y="-16.0"/>
      <point x="885.0" y="225.0"/>
      <point x="932.0" y="521.0" type="curve" smooth="yes"/>
      <point x="1020.0" y="1075.0" type="line" smooth="yes"/>
      <point x="1058.0" y="1323.0"/>
      <point x="1025.0" y="1516.0"/>
      <point x="777.0" y="1516.0" type="curve" smooth="yes"/>
      <point x="688.0" y="1516.0"/>
      <point x="611.0" y="1485.0"/>
      <point x="547.0" y="1419.0" type="curve"/>
      <point x="559.0" y="1500.0" type="line"/>
    </contour>
    <contour>
      <point x="523.0" y="262.0"/>
      <point x="450.0" y="262.0" type="curve" smooth="yes"/>
      <point x="375.0" y="262.0"/>
      <point x="376.0" y="336.0"/>
      <point x="390.0" y="422.0" type="curve" smooth="yes"/>
      <point x="493.0" y="1079.0" type="line" smooth="yes"/>
      <point x="509.0" y="1183.0"/>
      <point x="545.0" y="1235.0"/>
      <point x="601.0" y="1235.0" type="curve" smooth="yes"/>
      <point x="678.0" y="1235.0"/>
      <point x="668.0" y="1152.0"/>
      <point x="657.0" y="1075.0" type="curve" smooth="yes"/>
      <point x="556.0" y="438.0" type="line" smooth="yes"/>
      <point x="541.0" y="346.0"/>
    </contour>
    <contour>
      <point x="636.0" y="1500" type="move" name="top"/>
    </contour>
  </outline>
</glyph>
<glyph name="q" format="1">
  <advance width="1030.0"/>
  <unicode hex="0071"/>
  <outline>
    <contour>
      <point x="486.0" y="90.0" type="curve"/>
      <point x="425.0" y="-300.0" type="line"/>
      <point x="790.0" y="-300.0" type="line"/>
      <point x="1073.0" y="1500.0" type="line"/>
      <point x="708.0" y="1500.0" type="line"/>
      <point x="696.0" y="1419.0" type="line"/>
      <point x="653.0" y="1485.0"/>
      <point x="586.0" y="1516.0"/>
      <point x="496.0" y="1516.0" type="curve" smooth="yes"/>
      <point x="249.0" y="1516.0"/>
      <point x="154.0" y="1322.0"/>
      <point x="116.0" y="1075.0" type="curve" smooth="yes"/>
      <point x="22.0" y="482.0" type="line" smooth="yes"/>
      <point x="-24.0" y="191.0"/>
      <point x="-27.0" y="-16.0"/>
      <point x="265.0" y="-16.0" type="curve" smooth="yes"/>
      <point x="357.0" y="-16.0"/>
      <point x="434.0" y="32.0"/>
    </contour>
    <contour>
      <point x="503.0" y="262.0"/>
      <point x="427.0" y="262.0" type="curve" smooth="yes"/>
      <point x="354.0" y="262.0"/>
      <point x="362.0" y="346.0"/>
      <point x="377.0" y="438.0" type="curve" smooth="yes"/>
      <point x="478.0" y="1075.0" type="line" smooth="yes"/>
      <point x="489.0" y="1152.0"/>
      <point x="505.0" y="1235.0"/>
      <point x="582.0" y="1235.0" type="curve" smooth="yes"/>
      <point x="638.0" y="1235.0"/>
      <point x="658.0" y="1183.0"/>
      <point x="642.0" y="1079.0" type="curve" smooth="yes"/>
      <point x="539.0" y="422.0" type="line" smooth="yes"/>
      <point x="525.0" y="335.0"/>
    </contour>
  </outline>
</glyph>
<glyph name="r" format="1">
  <advance width="707.0"/>
  <unicode hex="0072"/>
  <outline>
    <contour>
      <point x="195.0" y="1500.0" type="line"/>
      <point x="-41.0" y="0.0" type="line"/>
      <point x="317.0" y="0.0" type="line"/>
      <point x="497.0" y="1147.0" type="line" smooth="yes"/>
      <point x="503.0" y="1187.0"/>
      <point x="679.0" y="1219.0"/>
      <point x="767.0" y="1219.0" type="curve"/>
      <point x="814.0" y="1518.0" type="line"/>
      <point x="681.0" y="1518.0"/>
      <point x="580.0" y="1449.0"/>
      <point x="527.0" y="1333.0" type="curve"/>
      <point x="553.0" y="1500.0" type="line"/>
    </contour>
    <contour>
      <point x="156.0" y="0" type="move" name="bot"/>
    </contour>
    <contour>
      <point x="536.0" y="1500" type="move" name="top"/>
    </contour>
  </outline>
</glyph>
<glyph name="s" format="1">
  <advance width="966.0"/>
  <unicode hex="0073"/>
  <outline>
    <contour>
      <point x="66.0" y="-16.0"/>
      <point x="362.0" y="-16.0" type="curve" smooth="yes"/>
      <point x="642.0" y="-16.0"/>
      <point x="836.0" y="135.0"/>
      <point x="881.0" y="418.0" type="curve" smooth="yes"/>
      <point x="917.0" y="646.0"/>
      <point x="827.0" y="768.0"/>
      <point x="706.0" y="870.0" type="curve" smooth="yes"/>
      <point x="511.0" y="1032.0" type="line" smooth="yes"/>
      <point x="472.0" y="1063.0"/>
      <point x="459.0" y="1106.0"/>
      <point x="467.0" y="1159.0" type="curve" smooth="yes"/>
      <point x="474.0" y="1209.0"/>
      <point x="505.0" y="1239.0"/>
      <point x="555.0" y="1239.0" type="curve" smooth="yes"/>
      <point x="615.0" y="1239.0"/>
      <point x="621.0" y="1170.0"/>
      <point x="611.0" y="1110.0" type="curve" smooth="yes"/>
      <point x="602.0" y="1053.0" type="line"/>
      <point x="972.0" y="1053.0" type="line"/>
      <point x="977.0" y="1081.0" type="line" smooth="yes"/>
      <point x="1022.0" y="1372.0"/>
      <point x="896.0" y="1516.0"/>
      <point x="609.0" y="1516.0" type="curve" smooth="yes"/>
      <point x="372.0" y="1516.0"/>
      <point x="146.0" y="1394.0"/>
      <point x="108.0" y="1157.0" type="curve" smooth="yes"/>
      <point x="76.0" y="951.0"/>
      <point x="126.0" y="865.0"/>
      <point x="232.0" y="772.0" type="curve" smooth="yes"/>
      <point x="400.0" y="625.0" type="line" smooth="yes"/>
      <point x="468.0" y="566.0"/>
      <point x="523.0" y="515.0"/>
      <point x="503.0" y="385.0" type="curve" smooth="yes"/>
      <point x="491.0" y="307.0"/>
      <point x="460.0" y="268.0"/>
      <point x="412.0" y="268.0" type="curve" smooth="yes"/>
      <point x="347.0" y="268.0"/>
      <point x="331.0" y="309.0"/>
      <point x="341.0" y="377.0" type="curve" smooth="yes"/>
      <point x="367.0" y="553.0" type="line"/>
      <point x="9.0" y="553.0" type="line"/>
      <point x="-12.0" y="434.0" type="line" smooth="yes"/>
      <point x="-59.0" y="133.0"/>
    </contour>
    <contour>
      <point x="350" y="0" type="move" name="bot"/>
    </contour>
    <contour>
      <point x="606" y="1500" type="move" name="top"/>
    </contour>
  </outline>
</glyph>
<glyph name="t" format="1">
  <advance width="611.0"/>
  <unicode hex="0074"/>
  <outline>
    <contour>
      <point x="59.0" y="-16.0"/>
      <point x="252.0" y="-16.0" type="curve" smooth="yes"/>
      <point x="339.0" y="-16.0"/>
      <point x="443.0" y="6.0"/>
      <point x="459.0" y="11.0" type="curve"/>
      <point x="497.0" y="255.0" type="line"/>
      <point x="497.0" y="255.0"/>
      <point x="460.0" y="251.0"/>
      <point x="434.0" y="251.0" type="curve" smooth="yes"/>
      <point x="396.0" y="251.0"/>
      <point x="402.0" y="288.0"/>
      <point x="408.0" y="328.0" type="curve" smooth="yes"/>
      <point x="540.0" y="1169.0" type="line"/>
      <point x="641.0" y="1169.0" type="line"/>
      <point x="685.0" y="1442.0" type="line"/>
      <point x="584.0" y="1442.0" type="line"/>
      <point x="634.0" y="1760.0" type="line"/>
      <point x="286.0" y="1760.0" type="line"/>
      <point x="236.0" y="1442.0" type="line"/>
      <point x="135.0" y="1442.0" type="line"/>
      <point x="91.0" y="1169.0" type="line"/>
      <point x="192.0" y="1169.0" type="line"/>
      <point x="46.0" y="234.0" type="line" smooth="yes"/>
      <point x="19.0" y="65.0"/>
    </contour>
    <contour>
      <point x="257.0" y="0" type="move" name="bot"/>
    </contour>
    <contour>
      <point x="430.0" y="1500" type="move" name="caron.alt"/>
    </contour>
    <contour>
      <point x="312.0" y="776" type="move" name="mid"/>
    </contour>
    <contour>
      <point x="467.0" y="1760" type="move" name="top"/>
    </contour>
  </outline>
</glyph>
<glyph name="u" format="1">
  <advance width="1029.0"/>
  <unicode hex="0075"/>
  <outline>
    <contour>
      <point x="3.0" y="-16.0"/>
      <point x="244.0" y="-16.0" type="curve" smooth="yes"/>
      <point x="380.0" y="-16.0"/>
      <point x="438.0" y="45.0"/>
      <point x="502.0" y="160.0" type="curve"/>
      <point x="478.0" y="0.0" type="line"/>
      <point x="836.0" y="0.0" type="line"/>
      <point x="1072.0" y="1500.0" type="line"/>
      <point x="716.0" y="1500.0" type="line"/>
      <point x="550.0" y="455.0" type="line"/>
      <point x="547.0" y="443.0" type="line" smooth="yes"/>
      <point x="534.0" y="360.0"/>
      <point x="518.0" y="264.0"/>
      <point x="435.0" y="264.0" type="curve" smooth="yes"/>
      <point x="347.0" y="264.0"/>
      <point x="368.0" y="342.0"/>
      <point x="386.0" y="455.0" type="curve" smooth="yes"/>
      <point x="550.0" y="1500.0" type="line"/>
      <point x="190.0" y="1500.0" type="line"/>
      <point x="14.0" y="383.0" type="line" smooth="yes"/>
      <point x="-24.0" y="143.0"/>
    </contour>
    <contour>
      <point x="641.0" y="0" type="move" name="ogonek"/>
    </contour>
    <contour>
      <point x="634.0" y="1500" type="move" name="top"/>
    </contour>
  </outline>
</glyph>
<glyph name="v" format="1">
  <advance width="930.0"/>
  <unicode hex="0076"/>
  <outline>
    <contour>
      <point x="135.0" y="1500.0" type="line"/>
      <point x="140.0" y="0.0" type="line"/>
      <point x="554.0" y="0.0" type="line"/>
      <point x="1035.0" y="1500.0" type="line"/>
      <point x="677.0" y="1500.0" type="line"/>
      <point x="475.0" y="743.0" type="line"/>
      <point x="422.0" y="498.0" type="line"/>
      <point x="448.0" y="741.0" type="line"/>
      <point x="494.0" y="1500.0" type="line"/>
    </contour>
  </outline>
</glyph>
<glyph name="w" format="1">
  <advance width="1371.0"/>
  <unicode hex="0077"/>
  <outline>
    <contour>
      <point x="142.0" y="1500.0" type="line"/>
      <point x="87.0" y="0.0" type="line"/>
      <point x="484.0" y="0.0" type="line"/>
      <point x="711.0" y="851.0" type="line"/>
      <point x="686.0" y="0.0" type="line"/>
      <point x="1043.0" y="0.0" type="line"/>
      <point x="1472.0" y="1500.0" type="line"/>
      <point x="1134.0" y="1500.0" type="line"/>
      <point x="924.0" y="694.0" type="line"/>
      <point x="948.0" y="1500.0" type="line"/>
      <point x="635.0" y="1500.0" type="line"/>
      <point x="421.0" y="694.0" type="line"/>
      <point x="449.0" y="1500.0" type="line"/>
    </contour>
    <contour>
      <point x="816.0" y="1500" type="move" name="top"/>
    </contour>
  </outline>
</glyph>
<glyph name="x" format="1">
  <advance width="898.0"/>
  <unicode hex="0078"/>
  <outline>
    <contour>
      <point x="283.0" y="833.0" type="line"/>
      <point x="-132.0" y="0.0" type="line"/>
      <point x="139.0" y="0.0" type="line"/>
      <point x="492.0" y="714.0" type="line"/>
      <point x="638.0" y="754.0" type="line"/>
      <point x="1016.0" y="1501.0" type="line"/>
      <point x="750.0" y="1501.0" type="line"/>
      <point x="430.0" y="869.0" type="line"/>
    </contour>
    <contour>
      <point x="129.0" y="1501.0" type="line"/>
      <point x="433.0" y="0.0" type="line"/>
      <point x="792.0" y="0.0" type="line"/>
      <point x="494.0" y="1501.0" type="line"/>
    </contour>
  </outline>
</glyph>
<glyph name="y" format="1">
  <advance width="932.0"/>
  <unicode hex="0079"/>
  <outline>
    <contour>
      <point x="-75.0" y="-23.0" type="line"/>
      <point x="-111.0" y="-250.0" type="line"/>
      <point x="293.0" y="-250.0" type="line" smooth="yes"/>
      <point x="422.0" y="-250.0"/>
      <point x="479.0" y="-191.0"/>
      <point x="517.0" y="-78.0" type="curve" smooth="yes"/>
      <point x="1044.0" y="1500.0" type="line"/>
      <point x="699.0" y="1500.0" type="line"/>
      <point x="503.0" y="767.0" type="line" smooth="yes"/>
      <point x="406.0" y="395.0" type="line"/>
      <point x="431.0" y="767.0" type="line" smooth="yes"/>
      <point x="481.0" y="1500.0" type="line"/>
      <point x="138.0" y="1500.0" type="line"/>
      <point x="141.0" y="31.0" type="line" smooth="yes"/>
      <point x="141.0" y="0.0"/>
      <point x="139.0" y="-23.0"/>
      <point x="97.0" y="-23.0" type="curve" smooth="yes"/>
    </contour>
    <contour>
      <point x="593.0" y="1500" type="move" name="top"/>
    </contour>
  </outline>
</glyph>
<glyph name="z" format="1">
  <advance width="813.0"/>
  <unicode hex="007A"/>
  <outline>
    <contour>
      <point x="-54.0" y="219.0" type="line"/>
      <point x="-88.0" y="0.0" type="line"/>
      <point x="660.0" y="0.0" type="line"/>
      <point x="702.0" y="268.0" type="line"/>
      <point x="346.0" y="268.0" type="line"/>
      <point x="854.0" y="1256.0" type="line"/>
      <point x="893.0" y="1500.0" type="line"/>
      <point x="166.0" y="1500.0" type="line"/>
      <point x="121.0" y="1216.0" type="line"/>
      <point x="477.0" y="1216.0" type="line"/>
    </contour>
    <contour>
      <point x="556" y="1500" type="move" name="top"/>
    </contour>
  </outline>
</glyph>
<glyph name="braceleft" format="1">
  <advance width="700.0"/>
  <unicode hex="007B"/>
  <outline>
    <contour>
      <point x="571.0" y="1097.0" type="curve" smooth="yes"/>
      <point x="637.0" y="1472.0" type="line" smooth="yes"/>
      <point x="650.0" y="1543.0"/>
      <point x="718.0" y="1551.0"/>
      <point x="791.0" y="1556.0" type="curve"/>
      <point x="838.0" y="1823.0" type="line"/>
      <point x="457.0" y="1815.0"/>
      <point x="332.0" y="1734.0"/>
      <point x="282.0" y="1455.0" type="curve" smooth="yes"/>
      <point x="223.0" y="1120.0" type="line" smooth="yes"/>
      <point x="200.0" y="987.0"/>
      <point x="173.0" y="930.0"/>
      <point x="48.0" y="916.0" type="curve"/>
      <point x="14.0" y="719.0" type="line"/>
      <point x="133.0" y="705.0"/>
      <point x="140.0" y="648.0"/>
      <point x="117.0" y="515.0" type="curve" smooth="yes"/>
      <point x="58.0" y="180.0" type="line" smooth="yes"/>
      <point x="8.0" y="-99.0"/>
      <point x="105.0" y="-180.0"/>
      <point x="484.0" y="-188.0" type="curve"/>
      <point x="531.0" y="79.0" type="line"/>
      <point x="460.0" y="84.0"/>
      <point x="394.0" y="92.0"/>
      <point x="407.0" y="163.0" type="curve" smooth="yes"/>
      <point x="473.0" y="538.0" type="line" smooth="yes"/>
      <point x="507.0" y="732.0"/>
      <point x="414.0" y="791.0"/>
      <point x="304.0" y="818.0" type="curve"/>
      <point x="423.0" y="844.0"/>
      <point x="537.0" y="903.0"/>
    </contour>
  </outline>
</glyph>
<glyph name="bar" format="1">
  <advance width="518.0"/>
  <unicode hex="007C"/>
  <outline>
    <contour>
      <point x="290.0" y="1953.0" type="line"/>
      <point x="-31.0" y="-84.0" type="line"/>
      <point x="288.0" y="-84.0" type="line"/>
      <point x="609.0" y="1953.0" type="line"/>
    </contour>
  </outline>
</glyph>
<glyph name="braceright" format="1">
  <advance width="700.0"/>
  <unicode hex="007D"/>
  <outline>
    <contour>
      <point x="250.0" y="1097.0" type="line" smooth="yes"/>
      <point x="216.0" y="903.0"/>
      <point x="310.0" y="844.0"/>
      <point x="419.0" y="818.0" type="curve"/>
      <point x="300.0" y="791.0"/>
      <point x="186.0" y="732.0"/>
      <point x="152.0" y="538.0" type="curve" smooth="yes"/>
      <point x="86.0" y="163.0" type="line" smooth="yes"/>
      <point x="73.0" y="92.0"/>
      <point x="5.0" y="84.0"/>
      <point x="-68.0" y="79.0" type="curve"/>
      <point x="-115.0" y="-188.0" type="line"/>
      <point x="266.0" y="-180.0"/>
      <point x="391.0" y="-99.0"/>
      <point x="441.0" y="180.0" type="curve" smooth="yes"/>
      <point x="500.0" y="515.0" type="line" smooth="yes"/>
      <point x="523.0" y="648.0"/>
      <point x="550.0" y="705.0"/>
      <point x="675.0" y="719.0" type="curve"/>
      <point x="709.0" y="916.0" type="line"/>
      <point x="590.0" y="930.0"/>
      <point x="583.0" y="987.0"/>
      <point x="606.0" y="1120.0" type="curve" smooth="yes"/>
      <point x="665.0" y="1455.0" type="line" smooth="yes"/>
      <point x="715.0" y="1734.0"/>
      <point x="618.0" y="1815.0"/>
      <point x="239.0" y="1823.0" type="curve"/>
      <point x="192.0" y="1556.0" type="line"/>
      <point x="263.0" y="1551.0"/>
      <point x="329.0" y="1543.0"/>
      <point x="316.0" y="1472.0" type="curve" smooth="yes"/>
    </contour>
  </outline>
</glyph>
<glyph name="asciitilde" format="1">
  <advance width="1026.0"/>
  <unicode hex="007E"/>
  <outline>
    <contour>
      <point x="565.0" y="810.0"/>
      <point x="728.0" y="810.0" type="curve" smooth="yes"/>
      <point x="893.0" y="810.0"/>
      <point x="966.0" y="948.0"/>
      <point x="1045.0" y="1095.0" type="curve"/>
      <point x="872.0" y="1155.0" type="line"/>
      <point x="833.0" y="1094.0"/>
      <point x="797.0" y="1073.0"/>
      <point x="757.0" y="1073.0" type="curve" smooth="yes"/>
      <point x="674.0" y="1073.0"/>
      <point x="577.0" y="1164.0"/>
      <point x="371.0" y="1164.0" type="curve" smooth="yes"/>
      <point x="215.0" y="1164.0"/>
      <point x="137.0" y="1053.0"/>
      <point x="63.0" y="921.0" type="curve"/>
      <point x="212.0" y="835.0" type="line"/>
      <point x="248.0" y="891.0"/>
      <point x="285.0" y="910.0"/>
      <point x="324.0" y="910.0" type="curve" smooth="yes"/>
      <point x="412.0" y="910.0"/>
    </contour>
  </outline>
</glyph>
<glyph name="exclamdown" format="1">
  <advance width="512.0"/>
  <unicode hex="00A1"/>
  <outline>
    <contour>
      <point x="183.0" y="1353.0" type="line"/>
      <point x="541.0" y="1353.0" type="line"/>
      <point x="593.0" y="1651.0" type="line"/>
      <point x="235.0" y="1651.0" type="line"/>
    </contour>
    <contour>
      <point x="-75.0" y="-108.0" type="line"/>
      <point x="283.0" y="-108.0" type="line"/>
      <point x="439.0" y="1173.0" type="line"/>
      <point x="221.0" y="1173.0" type="line"/>
    </contour>
  </outline>
</glyph>
<glyph name="cent" format="1">
  <advance width="1015.0"/>
  <unicode hex="00A2"/>
  <outline>
    <contour>
      <point x="314.0" y="-13.0" type="curve"/>
      <point x="291.0" y="-163.0" type="line"/>
      <point x="464.0" y="-163.0" type="line"/>
      <point x="488.0" y="-12.0" type="line"/>
      <point x="692.0" y="16.0"/>
      <point x="860.0" y="155.0"/>
      <point x="896.0" y="379.0" type="curve" smooth="yes"/>
      <point x="932.0" y="614.0" type="line"/>
      <point x="567.0" y="614.0" type="line"/>
      <point x="534.0" y="389.0" type="line" smooth="yes"/>
      <point x="524.0" y="322.0"/>
      <point x="493.0" y="264.0"/>
      <point x="431.0" y="264.0" type="curve" smooth="yes"/>
      <point x="370.0" y="264.0"/>
      <point x="354.0" y="326.0"/>
      <point x="364.0" y="387.0" type="curve" smooth="yes"/>
      <point x="478.0" y="1114.0" type="line" smooth="yes"/>
      <point x="491.0" y="1197.0"/>
      <point x="527.0" y="1239.0"/>
      <point x="586.0" y="1239.0" type="curve" smooth="yes"/>
      <point x="653.0" y="1239.0"/>
      <point x="658.0" y="1185.0"/>
      <point x="646.0" y="1116.0" type="curve" smooth="yes"/>
      <point x="609.0" y="879.0" type="line"/>
      <point x="974.0" y="879.0" type="line"/>
      <point x="1014.0" y="1135.0" type="line" smooth="yes"/>
      <point x="1049.0" y="1354.0"/>
      <point x="920.0" y="1483.0"/>
      <point x="728.0" y="1511.0" type="curve"/>
      <point x="754.0" y="1677.0" type="line"/>
      <point x="581.0" y="1677.0" type="line"/>
      <point x="555.0" y="1514.0" type="line"/>
      <point x="258.0" y="1485.0"/>
      <point x="147.0" y="1294.0"/>
      <point x="93.0" y="954.0" type="curve" smooth="yes"/>
      <point x="21.0" y="492.0" type="line" smooth="yes"/>
      <point x="-28.0" y="190.0"/>
      <point x="46.0" y="18.0"/>
    </contour>
  </outline>
</glyph>
<glyph name="sterling" format="1">
  <advance width="1004.0"/>
  <unicode hex="00A3"/>
  <outline>
    <contour>
      <point x="-14.0" y="281.0" type="curve"/>
      <point x="-58.0" y="0.0" type="line"/>
      <point x="824.0" y="0.0" type="line"/>
      <point x="869.0" y="291.0" type="line"/>
      <point x="399.0" y="291.0" type="line"/>
      <point x="483.0" y="337.0"/>
      <point x="555.0" y="422.0"/>
      <point x="581.0" y="541.0" type="curve"/>
      <point x="590.0" y="673.0" type="line"/>
      <point x="839.0" y="673.0" type="line"/>
      <point x="876.0" y="905.0" type="line"/>
      <point x="592.0" y="905.0" type="line"/>
      <point x="579.0" y="1053.0"/>
      <point x="574.0" y="1142.0"/>
      <point x="579.0" y="1173.0" type="curve" smooth="yes"/>
      <point x="580.0" y="1186.0" type="line" smooth="yes"/>
      <point x="590.0" y="1250.0"/>
      <point x="594.0" y="1312.0"/>
      <point x="657.0" y="1312.0" type="curve" smooth="yes"/>
      <point x="724.0" y="1312.0"/>
      <point x="704.0" y="1212.0"/>
      <point x="691.0" y="1125.0" type="curve"/>
      <point x="1010.0" y="1125.0" type="line"/>
      <point x="1056.0" y="1421.0"/>
      <point x="986.0" y="1608.0"/>
      <point x="697.0" y="1608.0" type="curve" smooth="yes"/>
      <point x="435.0" y="1608.0"/>
      <point x="261.0" y="1489.0"/>
      <point x="220.0" y="1224.0" type="curve" smooth="yes"/>
      <point x="209.0" y="1158.0"/>
      <point x="215.0" y="1023.0"/>
      <point x="220.0" y="964.0" type="curve" smooth="yes"/>
      <point x="224.0" y="905.0" type="line"/>
      <point x="89.0" y="905.0" type="line"/>
      <point x="52.0" y="673.0" type="line"/>
      <point x="214.0" y="673.0" type="line"/>
      <point x="216.0" y="647.0"/>
      <point x="214.0" y="612.0"/>
      <point x="207.0" y="568.0" type="curve" smooth="yes"/>
      <point x="181.0" y="402.0"/>
      <point x="117.0" y="352.0"/>
    </contour>
  </outline>
</glyph>
<glyph name="currency" format="1">
  <advance width="1017.0"/>
  <unicode hex="00A4"/>
  <outline>
    <contour>
      <point x="39.0" y="659.0" type="line"/>
      <point x="164.0" y="509.0" type="line"/>
      <point x="267.0" y="598.0" type="line"/>
      <point x="323.0" y="563.0"/>
      <point x="393.0" y="545.0"/>
      <point x="476.0" y="545.0" type="curve" smooth="yes"/>
      <point x="558.0" y="545.0"/>
      <point x="632.0" y="562.0"/>
      <point x="699.0" y="597.0" type="curve"/>
      <point x="774.0" y="509.0" type="line"/>
      <point x="948.0" y="658.0" type="line"/>
      <point x="873.0" y="748.0" type="line"/>
      <point x="919.0" y="813.0"/>
      <point x="948.0" y="885.0"/>
      <point x="960.0" y="964.0" type="curve" smooth="yes"/>
      <point x="973.0" y="1043.0"/>
      <point x="966.0" y="1114.0"/>
      <point x="941.0" y="1179.0" type="curve"/>
      <point x="1045.0" y="1269.0" type="line"/>
      <point x="918.0" y="1418.0" type="line"/>
      <point x="817.0" y="1331.0" type="line"/>
      <point x="758.0" y="1367.0"/>
      <point x="688.0" y="1385.0"/>
      <point x="608.0" y="1385.0" type="curve" smooth="yes"/>
      <point x="527.0" y="1385.0"/>
      <point x="452.0" y="1367.0"/>
      <point x="381.0" y="1330.0" type="curve"/>
      <point x="308.0" y="1418.0" type="line"/>
      <point x="136.0" y="1268.0" type="line"/>
      <point x="212.0" y="1178.0" type="line"/>
      <point x="166.0" y="1113.0"/>
      <point x="138.0" y="1042.0"/>
      <point x="125.0" y="964.0" type="curve" smooth="yes"/>
      <point x="113.0" y="887.0"/>
      <point x="120.0" y="815.0"/>
      <point x="145.0" y="750.0" type="curve"/>
    </contour>
    <contour>
      <point x="633.0" y="741.0"/>
      <point x="506.0" y="741.0" type="curve" smooth="yes"/>
      <point x="379.0" y="741.0"/>
      <point x="314.0" y="840.0"/>
      <point x="333.0" y="964.0" type="curve" smooth="yes"/>
      <point x="352.0" y="1087.0"/>
      <point x="451.0" y="1186.0"/>
      <point x="577.0" y="1186.0" type="curve" smooth="yes"/>
      <point x="706.0" y="1186.0"/>
      <point x="771.0" y="1092.0"/>
      <point x="751.0" y="966.0" type="curve" smooth="yes"/>
      <point x="731.0" y="842.0"/>
    </contour>
  </outline>
</glyph>
<glyph name="yen" format="1">
  <advance width="961.0"/>
  <unicode hex="00A5"/>
  <outline>
    <contour>
      <point x="67.0" y="445.0" type="line"/>
      <point x="39.0" y="271.0" type="line"/>
      <point x="763.0" y="271.0" type="line"/>
      <point x="791.0" y="445.0" type="line"/>
    </contour>
    <contour>
      <point x="110.0" y="717.0" type="line"/>
      <point x="83.0" y="543.0" type="line"/>
      <point x="807.0" y="543.0" type="line"/>
      <point x="834.0" y="717.0" type="line"/>
    </contour>
    <component base="Y" xOffset="30.0"/>
  </outline>
</glyph>
<glyph name="brokenbar" format="1">
  <advance width="520.0"/>
  <unicode hex="00A6"/>
  <outline>
    <contour>
      <point x="109.0" y="796.0" type="line"/>
      <point x="-30.0" y="-84.0" type="line"/>
      <point x="289.0" y="-84.0" type="line"/>
      <point x="428.0" y="796.0" type="line"/>
    </contour>
    <contour>
      <point x="291.0" y="1953.0" type="line"/>
      <point x="147.0" y="1043.0" type="line"/>
      <point x="466.0" y="1043.0" type="line"/>
      <point x="610.0" y="1953.0" type="line"/>
    </contour>
  </outline>
</glyph>
<glyph name="section" format="1">
  <advance width="954.0"/>
  <unicode hex="00A7"/>
  <outline>
    <contour>
      <point x="87.0" y="-19.0"/>
      <point x="361.0" y="-19.0" type="curve" smooth="yes"/>
      <point x="580.0" y="-19.0"/>
      <point x="788.0" y="107.0"/>
      <point x="820.0" y="313.0" type="curve" smooth="yes"/>
      <point x="835.0" y="407.0"/>
      <point x="802.0" y="488.0"/>
      <point x="719.0" y="557.0" type="curve"/>
      <point x="823.0" y="626.0"/>
      <point x="880.0" y="704.0"/>
      <point x="895.0" y="792.0" type="curve" smooth="yes"/>
      <point x="918.0" y="941.0"/>
      <point x="811.0" y="1042.0"/>
      <point x="706.0" y="1101.0" type="curve" smooth="yes"/>
      <point x="658.0" y="1129.0"/>
      <point x="464.0" y="1189.0"/>
      <point x="476.0" y="1264.0" type="curve" smooth="yes"/>
      <point x="484.0" y="1316.0"/>
      <point x="531.0" y="1346.0"/>
      <point x="585.0" y="1346.0" type="curve" smooth="yes"/>
      <point x="644.0" y="1346.0"/>
      <point x="668.0" y="1304.0"/>
      <point x="659.0" y="1221.0" type="curve"/>
      <point x="964.0" y="1221.0" type="line"/>
      <point x="1005.0" y="1488.0"/>
      <point x="881.0" y="1607.0"/>
      <point x="615.0" y="1607.0" type="curve" smooth="yes"/>
      <point x="396.0" y="1607.0"/>
      <point x="190.0" y="1481.0"/>
      <point x="156.0" y="1275.0" type="curve" smooth="yes"/>
      <point x="142.0" y="1180.0"/>
      <point x="175.0" y="1098.0"/>
      <point x="256.0" y="1031.0" type="curve"/>
      <point x="153.0" y="962.0"/>
      <point x="95.0" y="883.0"/>
      <point x="81.0" y="795.0" type="curve" smooth="yes"/>
      <point x="57.0" y="646.0"/>
      <point x="164.0" y="546.0"/>
      <point x="269.0" y="488.0" type="curve" smooth="yes"/>
      <point x="317.0" y="460.0"/>
      <point x="513.0" y="401.0"/>
      <point x="500.0" y="324.0" type="curve" smooth="yes"/>
      <point x="492.0" y="274.0"/>
      <point x="452.0" y="242.0"/>
      <point x="401.0" y="242.0" type="curve" smooth="yes"/>
      <point x="342.0" y="242.0"/>
      <point x="319.0" y="284.0"/>
      <point x="329.0" y="367.0" type="curve"/>
      <point x="-6.0" y="367.0" type="line"/>
      <point x="-50.0" y="95.0"/>
    </contour>
    <contour>
      <point x="594.0" y="717.0"/>
      <point x="561.0" y="681.0" type="curve"/>
      <point x="483.0" y="707.0"/>
      <point x="360.0" y="741.0"/>
      <point x="371.0" y="813.0" type="curve" smooth="yes"/>
      <point x="375.0" y="843.0"/>
      <point x="398.0" y="878.0"/>
      <point x="437.0" y="917.0" type="curve"/>
      <point x="565.0" y="872.0"/>
      <point x="625.0" y="826.0"/>
      <point x="617.0" y="780.0" type="curve" smooth="yes"/>
      <point x="613.0" y="750.0"/>
    </contour>
  </outline>
</glyph>
<glyph name="dieresis" format="1">
  <advance width="976.0"/>
  <unicode hex="00A8"/>
  <outline>
    <contour>
      <point x="186.0" y="1897.0" type="line"/>
      <point x="139.0" y="1599.0" type="line"/>
      <point x="497.0" y="1599.0" type="line"/>
      <point x="544.0" y="1897.0" type="line"/>
    </contour>
    <contour>
      <point x="670.0" y="1897.0" type="line"/>
      <point x="623.0" y="1599.0" type="line"/>
      <point x="981.0" y="1599.0" type="line"/>
      <point x="1028.0" y="1897.0" type="line"/>
    </contour>
    <contour>
      <point x="551" y="1500" type="move" name="_top"/>
    </contour>
  </outline>
</glyph>
<glyph name="copyright" format="1">
  <advance width="1388.0"/>
  <unicode hex="00A9"/>
  <outline>
    <contour>
      <point x="499.0" y="424.0"/>
      <point x="638.0" y="424.0" type="curve" smooth="yes"/>
      <point x="800.0" y="424.0"/>
      <point x="892.0" y="497.0"/>
      <point x="914.0" y="643.0" type="curve" smooth="yes"/>
      <point x="940.0" y="806.0" type="line"/>
      <point x="747.0" y="806.0" type="line"/>
      <point x="724.0" y="657.0" type="line" smooth="yes"/>
      <point x="717.0" y="614.0"/>
      <point x="699.0" y="592.0"/>
      <point x="668.0" y="592.0" type="curve" smooth="yes"/>
      <point x="640.0" y="592.0"/>
      <point x="629.0" y="627.0"/>
      <point x="634.0" y="657.0" type="curve" smooth="yes"/>
      <point x="698.0" y="1066.0" type="line" smooth="yes"/>
      <point x="705.0" y="1104.0"/>
      <point x="715.0" y="1130.0"/>
      <point x="752.0" y="1130.0" type="curve" smooth="yes"/>
      <point x="783.0" y="1130.0"/>
      <point x="795.0" y="1104.0"/>
      <point x="787.0" y="1053.0" type="curve" smooth="yes"/>
      <point x="770.0" y="952.0" type="line"/>
      <point x="959.0" y="952.0" type="line"/>
      <point x="984.0" y="1105.0" type="line" smooth="yes"/>
      <point x="1005.0" y="1239.0"/>
      <point x="915.0" y="1305.0"/>
      <point x="781.0" y="1305.0" type="curve" smooth="yes"/>
      <point x="616.0" y="1305.0"/>
      <point x="532.0" y="1217.0"/>
      <point x="506.0" y="1049.0" type="curve" smooth="yes"/>
      <point x="443.0" y="648.0" type="line" smooth="yes"/>
      <point x="421.0" y="507.0"/>
    </contour>
    <contour>
      <point x="919.0" y="334.0"/>
      <point x="630.0" y="334.0" type="curve" smooth="yes"/>
      <point x="341.0" y="334.0"/>
      <point x="169.0" y="571.0"/>
      <point x="214.0" y="862.0" type="curve" smooth="yes"/>
      <point x="260.0" y="1153.0"/>
      <point x="506.0" y="1390.0"/>
      <point x="795.0" y="1390.0" type="curve" smooth="yes"/>
      <point x="1084.0" y="1390.0"/>
      <point x="1256.0" y="1153.0"/>
      <point x="1210.0" y="862.0" type="curve" smooth="yes"/>
      <point x="1165.0" y="571.0"/>
    </contour>
    <contour>
      <point x="236.0" y="205.0"/>
      <point x="609.0" y="205.0" type="curve" smooth="yes"/>
      <point x="982.0" y="205.0"/>
      <point x="1311.0" y="489.0"/>
      <point x="1369.0" y="862.0" type="curve" smooth="yes"/>
      <point x="1428.0" y="1235.0"/>
      <point x="1189.0" y="1519.0"/>
      <point x="816.0" y="1519.0" type="curve" smooth="yes"/>
      <point x="443.0" y="1519.0"/>
      <point x="114.0" y="1235.0"/>
      <point x="55.0" y="862.0" type="curve" smooth="yes"/>
      <point x="-3.0" y="489.0"/>
    </contour>
  </outline>
</glyph>
<glyph name="ordfeminine" format="1">
  <advance width="837.0"/>
  <unicode hex="00AA"/>
  <outline>
    <contour>
      <point x="102.0" y="779.0"/>
      <point x="300.0" y="779.0" type="curve" smooth="yes"/>
      <point x="382.0" y="779.0"/>
      <point x="472.0" y="851.0"/>
      <point x="499.0" y="917.0" type="curve"/>
      <point x="480.0" y="793.0" type="line"/>
      <point x="762.0" y="793.0" type="line"/>
      <point x="906.0" y="1700.0" type="line" smooth="yes"/>
      <point x="935.0" y="1891.0"/>
      <point x="813.0" y="1997.0"/>
      <point x="626.0" y="1997.0" type="curve" smooth="yes"/>
      <point x="619.0" y="1997.0" type="line" smooth="yes"/>
      <point x="376.0" y="1997.0"/>
      <point x="255.0" y="1906.0"/>
      <point x="218.0" y="1670.0" type="curve" smooth="yes"/>
      <point x="215.0" y="1653.0"/>
      <point x="213.0" y="1640.0"/>
      <point x="212.0" y="1631.0" type="curve"/>
      <point x="488.0" y="1631.0" type="line"/>
      <point x="501.0" y="1711.0" type="line" smooth="yes"/>
      <point x="508.0" y="1754.0"/>
      <point x="531.0" y="1776.0"/>
      <point x="570.0" y="1776.0" type="curve" smooth="yes"/>
      <point x="646.0" y="1776.0"/>
      <point x="611.0" y="1649.0"/>
      <point x="599.0" y="1573.0" type="curve" smooth="yes"/>
      <point x="599.0" y="1571.0" type="line"/>
      <point x="319.0" y="1480.0"/>
      <point x="166.0" y="1458.0"/>
      <point x="115.0" y="1134.0" type="curve" smooth="yes"/>
      <point x="83.0" y="931.0"/>
    </contour>
    <contour>
      <point x="494.0" y="1001.0"/>
      <point x="448.0" y="1001.0" type="curve" smooth="yes"/>
      <point x="405.0" y="1001.0"/>
      <point x="389.0" y="1036.0"/>
      <point x="401.0" y="1106.0" type="curve" smooth="yes"/>
      <point x="423.0" y="1245.0" type="line" smooth="yes"/>
      <point x="437.0" y="1338.0"/>
      <point x="488.0" y="1376.0"/>
      <point x="572.0" y="1407.0" type="curve"/>
      <point x="522.0" y="1094.0" type="line" smooth="yes"/>
      <point x="516.0" y="1049.0"/>
    </contour>
  </outline>
</glyph>
<glyph name="guillemotleft" format="1">
  <advance width="1229.0"/>
  <unicode hex="00AB"/>
  <outline>
    <contour>
      <point x="21.0" y="545.0" type="line"/>
      <point x="486.0" y="260.0" type="line"/>
      <point x="543.0" y="618.0" type="line"/>
      <point x="251.0" y="749.0" type="line"/>
      <point x="582.0" y="871.0" type="line"/>
      <point x="639.0" y="1230.0" type="line"/>
      <point x="87.0" y="959.0" type="line"/>
    </contour>
    <contour>
      <point x="599.0" y="545.0" type="line"/>
      <point x="1064.0" y="260.0" type="line"/>
      <point x="1121.0" y="618.0" type="line"/>
      <point x="829.0" y="749.0" type="line"/>
      <point x="1160.0" y="871.0" type="line"/>
      <point x="1217.0" y="1230.0" type="line"/>
      <point x="665.0" y="959.0" type="line"/>
    </contour>
  </outline>
</glyph>
<glyph name="logicalnot" format="1">
  <advance width="869.0"/>
  <unicode hex="00AC"/>
  <outline>
    <contour>
      <point x="478.0" y="801.0" type="line"/>
      <point x="421.0" y="439.0" type="line"/>
      <point x="732.0" y="439.0" type="line"/>
      <point x="817.0" y="979.0" type="line"/>
      <point x="88.0" y="979.0" type="line"/>
      <point x="60.0" y="801.0" type="line"/>
    </contour>
  </outline>
</glyph>
<glyph name="registered" format="1">
  <advance width="1388.0"/>
  <unicode hex="00AE"/>
  <outline>
    <contour>
      <point x="557.0" y="1282.0" type="line"/>
      <point x="422.0" y="430.0" type="line"/>
      <point x="612.0" y="430.0" type="line"/>
      <point x="674.0" y="818.0" type="line"/>
      <point x="724.0" y="818.0"/>
      <point x="744.0" y="812.0"/>
      <point x="737.0" y="762.0" type="curve" smooth="yes"/>
      <point x="684.0" y="430.0" type="line"/>
      <point x="868.0" y="430.0" type="line"/>
      <point x="919.0" y="751.0" type="line" smooth="yes"/>
      <point x="930.0" y="822.0"/>
      <point x="910.0" y="863.0"/>
      <point x="859.0" y="873.0" type="curve"/>
      <point x="935.0" y="896.0"/>
      <point x="964.0" y="951.0"/>
      <point x="979.0" y="1043.0" type="curve" smooth="yes"/>
      <point x="1001.0" y="1187.0"/>
      <point x="991.0" y="1282.0"/>
      <point x="846.0" y="1282.0" type="curve" smooth="yes"/>
    </contour>
    <contour>
      <point x="919.0" y="334.0"/>
      <point x="630.0" y="334.0" type="curve" smooth="yes"/>
      <point x="341.0" y="334.0"/>
      <point x="169.0" y="571.0"/>
      <point x="214.0" y="862.0" type="curve" smooth="yes"/>
      <point x="260.0" y="1153.0"/>
      <point x="506.0" y="1390.0"/>
      <point x="795.0" y="1390.0" type="curve" smooth="yes"/>
      <point x="1084.0" y="1390.0"/>
      <point x="1256.0" y="1153.0"/>
      <point x="1210.0" y="862.0" type="curve" smooth="yes"/>
      <point x="1165.0" y="571.0"/>
    </contour>
    <contour>
      <point x="236.0" y="205.0"/>
      <point x="609.0" y="205.0" type="curve" smooth="yes"/>
      <point x="982.0" y="205.0"/>
      <point x="1311.0" y="489.0"/>
      <point x="1369.0" y="862.0" type="curve" smooth="yes"/>
      <point x="1428.0" y="1235.0"/>
      <point x="1189.0" y="1519.0"/>
      <point x="816.0" y="1519.0" type="curve" smooth="yes"/>
      <point x="443.0" y="1519.0"/>
      <point x="114.0" y="1235.0"/>
      <point x="55.0" y="862.0" type="curve" smooth="yes"/>
      <point x="-3.0" y="489.0"/>
    </contour>
    <contour>
      <point x="746.0" y="965.0" type="curve" smooth="yes"/>
      <point x="698.0" y="965.0" type="line"/>
      <point x="723.0" y="1124.0" type="line"/>
      <point x="793.0" y="1124.0"/>
      <point x="806.0" y="1114.0"/>
      <point x="795.0" y="1043.0" type="curve" smooth="yes"/>
      <point x="787.0" y="991.0"/>
      <point x="771.0" y="965.0"/>
    </contour>
  </outline>
</glyph>
<glyph name="degree" format="1">
  <advance width="787.0"/>
  <unicode hex="00B0"/>
  <outline>
    <contour>
      <point x="541.0" y="1112.0"/>
      <point x="452.0" y="1112.0" type="curve" smooth="yes"/>
      <point x="363.0" y="1112.0"/>
      <point x="321.0" y="1182.0"/>
      <point x="334.0" y="1269.0" type="curve" smooth="yes"/>
      <point x="348.0" y="1356.0"/>
      <point x="413.0" y="1426.0"/>
      <point x="502.0" y="1426.0" type="curve" smooth="yes"/>
      <point x="591.0" y="1426.0"/>
      <point x="632.0" y="1356.0"/>
      <point x="618.0" y="1269.0" type="curve" smooth="yes"/>
      <point x="605.0" y="1182.0"/>
    </contour>
    <contour>
      <point x="208.0" y="931.0"/>
      <point x="422.0" y="931.0" type="curve" smooth="yes"/>
      <point x="636.0" y="931.0"/>
      <point x="797.0" y="1058.0"/>
      <point x="829.0" y="1269.0" type="curve" smooth="yes"/>
      <point x="863.0" y="1480.0"/>
      <point x="743.0" y="1607.0"/>
      <point x="529.0" y="1607.0" type="curve" smooth="yes"/>
      <point x="315.0" y="1607.0"/>
      <point x="156.0" y="1480.0"/>
      <point x="122.0" y="1269.0" type="curve" smooth="yes"/>
      <point x="89.0" y="1057.0"/>
    </contour>
  </outline>
</glyph>
<glyph name="uni00B2" format="1">
  <advance width="660.0"/>
  <unicode hex="00B2"/>
  <outline>
    <contour>
      <point x="58.0" y="678.0" type="curve" smooth="yes"/>
      <point x="50.0" y="631.0" type="line"/>
      <point x="569.0" y="631.0" type="line"/>
      <point x="598.0" y="814.0" type="line"/>
      <point x="325.0" y="814.0" type="line"/>
      <point x="442.0" y="987.0"/>
      <point x="648.0" y="1085.0"/>
      <point x="689.0" y="1344.0" type="curve" smooth="yes"/>
      <point x="715.0" y="1511.0"/>
      <point x="632.0" y="1606.0"/>
      <point x="467.0" y="1606.0" type="curve" smooth="yes"/>
      <point x="256.0" y="1606.0"/>
      <point x="184.0" y="1496.0"/>
      <point x="151.0" y="1278.0" type="curve" smooth="yes"/>
      <point x="142.0" y="1218.0" type="line"/>
      <point x="352.0" y="1218.0" type="line"/>
      <point x="372.0" y="1337.0" type="line" smooth="yes"/>
      <point x="381.0" y="1395.0"/>
      <point x="403.0" y="1424.0"/>
      <point x="437.0" y="1424.0" type="curve" smooth="yes"/>
      <point x="472.0" y="1424.0"/>
      <point x="485.0" y="1396.0"/>
      <point x="476.0" y="1341.0" type="curve" smooth="yes"/>
      <point x="465.0" y="1272.0"/>
      <point x="439.0" y="1218.0"/>
      <point x="399.0" y="1178.0" type="curve" smooth="yes"/>
      <point x="238.0" y="1015.0"/>
      <point x="91.0" y="890.0"/>
    </contour>
  </outline>
</glyph>
<glyph name="uni00B3" format="1">
  <advance width="639.0"/>
  <unicode hex="00B3"/>
  <outline>
    <contour>
      <point x="116.0" y="635.0"/>
      <point x="290.0" y="635.0" type="curve" smooth="yes"/>
      <point x="482.0" y="635.0"/>
      <point x="575.0" y="743.0"/>
      <point x="606.0" y="935.0" type="curve" smooth="yes"/>
      <point x="626.0" y="1066.0"/>
      <point x="625.0" y="1132.0"/>
      <point x="547.0" y="1170.0" type="curve"/>
      <point x="621.0" y="1194.0"/>
      <point x="653.0" y="1258.0"/>
      <point x="668.0" y="1351.0" type="curve" smooth="yes"/>
      <point x="695.0" y="1521.0"/>
      <point x="624.0" y="1606.0"/>
      <point x="456.0" y="1606.0" type="curve" smooth="yes"/>
      <point x="282.0" y="1606.0"/>
      <point x="188.0" y="1532.0"/>
      <point x="159.0" y="1351.0" type="curve" smooth="yes"/>
      <point x="155.0" y="1317.0" type="line"/>
      <point x="359.0" y="1317.0" type="line"/>
      <point x="370.0" y="1373.0"/>
      <point x="368.0" y="1430.0"/>
      <point x="429.0" y="1430.0" type="curve" smooth="yes"/>
      <point x="461.0" y="1430.0"/>
      <point x="473.0" y="1403.0"/>
      <point x="464.0" y="1349.0" type="curve" smooth="yes"/>
      <point x="454.0" y="1279.0"/>
      <point x="414.0" y="1254.0"/>
      <point x="345.0" y="1254.0" type="curve"/>
      <point x="318.0" y="1081.0" type="line"/>
      <point x="323.0" y="1082.0"/>
      <point x="329.0" y="1082.0"/>
      <point x="338.0" y="1082.0" type="curve" smooth="yes"/>
      <point x="414.0" y="1082.0"/>
      <point x="410.0" y="1011.0"/>
      <point x="399.0" y="935.0" type="curve" smooth="yes"/>
      <point x="387.0" y="865.0"/>
      <point x="379.0" y="813.0"/>
      <point x="328.0" y="813.0" type="curve" smooth="yes"/>
      <point x="280.0" y="813.0"/>
      <point x="277.0" y="851.0"/>
      <point x="285.0" y="903.0" type="curve" smooth="yes"/>
      <point x="301.0" y="1004.0" type="line"/>
      <point x="99.0" y="1004.0" type="line"/>
      <point x="83.0" y="904.0" type="line" smooth="yes"/>
      <point x="55.0" y="725.0"/>
    </contour>
  </outline>
</glyph>
<glyph name="acute" format="1">
  <advance width="650.0"/>
  <unicode hex="00B4"/>
  <outline>
    <contour>
      <point x="176.0" y="1776.0" type="line"/>
      <point x="142.0" y="1553.0" type="line"/>
      <point x="631.0" y="1647.0" type="line"/>
      <point x="686.0" y="1994.0" type="line"/>
    </contour>
    <contour>
      <point x="374" y="1500" type="move" name="_top"/>
    </contour>
  </outline>
</glyph>
<glyph name="paragraph" format="1">
  <advance width="1062.0"/>
  <unicode hex="00B6"/>
  <outline>
    <contour>
      <point x="387.0" y="797.0" type="curve"/>
      <point x="261.0" y="0.0" type="line"/>
      <point x="507.0" y="0.0" type="line"/>
      <point x="710.0" y="1287.0" type="line"/>
      <point x="804.0" y="1287.0" type="line"/>
      <point x="601.0" y="0.0" type="line"/>
      <point x="840.0" y="0.0" type="line"/>
      <point x="1092.0" y="1593.0" type="line"/>
      <point x="717.0" y="1593.0" type="line" smooth="yes"/>
      <point x="409.0" y="1593.0"/>
      <point x="154.0" y="1516.0"/>
      <point x="106.0" y="1210.0" type="curve" smooth="yes"/>
      <point x="65.0" y="949.0"/>
      <point x="152.0" y="823.0"/>
    </contour>
  </outline>
</glyph>
<glyph name="periodcentered" format="1">
  <advance width="469.0"/>
  <unicode hex="00B7"/>
  <outline>
    <contour>
      <point x="119.0" y="1021.0" type="line"/>
      <point x="72.0" y="723.0" type="line"/>
      <point x="390.0" y="723.0" type="line"/>
      <point x="437.0" y="1021.0" type="line"/>
    </contour>
    <contour>
      <point x="262.0" y="878" type="move" name="_mid"/>
    </contour>
  </outline>
</glyph>
<glyph name="cedilla" format="1">
  <advance width="1015.0"/>
  <unicode hex="00B8"/>
  <outline>
    <contour>
      <point x="416.0" y="-631.0"/>
      <point x="484.0" y="-631.0" type="curve" smooth="yes"/>
      <point x="692.0" y="-631.0"/>
      <point x="799.0" y="-524.0"/>
      <point x="819.0" y="-387.0" type="curve" smooth="yes"/>
      <point x="840.0" y="-263.0"/>
      <point x="788.0" y="-114.0"/>
      <point x="677.0" y="0.0" type="curve"/>
      <point x="516.0" y="0.0" type="line"/>
      <point x="566.0" y="-98.0"/>
      <point x="589.0" y="-198.0"/>
      <point x="576.0" y="-273.0" type="curve" smooth="yes"/>
      <point x="563.0" y="-360.0"/>
      <point x="508.0" y="-391.0"/>
      <point x="441.0" y="-391.0" type="curve" smooth="yes"/>
      <point x="405.0" y="-391.0"/>
      <point x="366.0" y="-382.0"/>
      <point x="327.0" y="-368.0" type="curve"/>
      <point x="291.0" y="-591.0" type="line"/>
      <point x="351.0" y="-618.0"/>
    </contour>
    <contour>
      <point x="609" y="0" type="move" name="_bot"/>
    </contour>
  </outline>
</glyph>
<glyph name="uni00B9" format="1">
  <advance width="451.0"/>
  <unicode hex="00B9"/>
  <outline>
    <contour>
      <point x="253.0" y="1364.0" type="curve"/>
      <point x="141.0" y="656.0" type="line"/>
      <point x="351.0" y="656.0" type="line"/>
      <point x="501.0" y="1607.0" type="line"/>
      <point x="342.0" y="1607.0" type="line"/>
      <point x="332.0" y="1545.0"/>
      <point x="207.0" y="1487.0"/>
      <point x="149.0" y="1487.0" type="curve"/>
      <point x="150.0" y="1483.0"/>
      <point x="148.0" y="1469.0"/>
      <point x="144.0" y="1444.0" type="curve" smooth="yes"/>
      <point x="139.0" y="1413.0"/>
      <point x="133.0" y="1377.0"/>
      <point x="124.0" y="1334.0" type="curve"/>
      <point x="167.0" y="1334.0"/>
      <point x="211.0" y="1344.0"/>
    </contour>
  </outline>
</glyph>
<glyph name="ordmasculine" format="1">
  <advance width="843.0"/>
  <unicode hex="00BA"/>
  <outline>
    <contour>
      <point x="189.0" y="779.0"/>
      <point x="426.0" y="779.0" type="curve" smooth="yes"/>
      <point x="665.0" y="779.0"/>
      <point x="803.0" y="907.0"/>
      <point x="841.0" y="1149.0" type="curve" smooth="yes"/>
      <point x="917.0" y="1627.0" type="line" smooth="yes"/>
      <point x="952.0" y="1852.0"/>
      <point x="842.0" y="1997.0"/>
      <point x="619.0" y="1997.0" type="curve" smooth="yes"/>
      <point x="616.0" y="1997.0" type="line" smooth="yes"/>
      <point x="395.0" y="1997.0"/>
      <point x="240.0" y="1848.0"/>
      <point x="205.0" y="1627.0" type="curve" smooth="yes"/>
      <point x="129.0" y="1149.0" type="line" smooth="yes"/>
      <point x="91.0" y="902.0"/>
    </contour>
    <contour>
      <point x="391.0" y="978.0"/>
      <point x="409.0" y="1091.0" type="curve" smooth="yes"/>
      <point x="501.0" y="1672.0" type="line" smooth="yes"/>
      <point x="512.0" y="1741.0"/>
      <point x="539.0" y="1776.0"/>
      <point x="584.0" y="1776.0" type="curve" smooth="yes"/>
      <point x="628.0" y="1776.0"/>
      <point x="645.0" y="1741.0"/>
      <point x="634.0" y="1672.0" type="curve" smooth="yes"/>
      <point x="542.0" y="1091.0" type="line" smooth="yes"/>
      <point x="522.0" y="961.0"/>
    </contour>
  </outline>
</glyph>
<glyph name="guillemotright" format="1">
  <advance width="1229.0"/>
  <unicode hex="00BB"/>
  <outline>
    <contour>
      <point x="69.0" y="618.0" type="line"/>
      <point x="12.0" y="260.0" type="line"/>
      <point x="567.0" y="545.0" type="line"/>
      <point x="633.0" y="959.0" type="line"/>
      <point x="165.0" y="1230.0" type="line"/>
      <point x="108.0" y="871.0" type="line"/>
      <point x="401.0" y="749.0" type="line"/>
    </contour>
    <contour>
      <point x="646.0" y="618.0" type="line"/>
      <point x="589.0" y="260.0" type="line"/>
      <point x="1144.0" y="545.0" type="line"/>
      <point x="1210.0" y="959.0" type="line"/>
      <point x="742.0" y="1230.0" type="line"/>
      <point x="685.0" y="871.0" type="line"/>
      <point x="978.0" y="749.0" type="line"/>
    </contour>
  </outline>
</glyph>
<glyph name="onequarter" format="1">
  <advance width="1437.0"/>
  <unicode hex="00BC"/>
  <outline>
    <contour>
      <point x="1052.0" y="151.0" type="line"/>
      <point x="1027.0" y="-1.0" type="line"/>
      <point x="1234.0" y="-1.0" type="line"/>
      <point x="1259.0" y="151.0" type="line"/>
      <point x="1298.0" y="151.0" type="line"/>
      <point x="1325.0" y="322.0" type="line"/>
      <point x="1286.0" y="322.0" type="line"/>
      <point x="1383.0" y="941.0" type="line"/>
      <point x="1060.0" y="941.0" type="line"/>
      <point x="772.0" y="300.0" type="line"/>
      <point x="749.0" y="151.0" type="line"/>
    </contour>
    <contour>
      <point x="260.0" y="1404.0" type="curve"/>
      <point x="149.0" y="696.0" type="line"/>
      <point x="359.0" y="696.0" type="line"/>
      <point x="509.0" y="1647.0" type="line"/>
      <point x="350.0" y="1647.0" type="line"/>
      <point x="341.0" y="1585.0"/>
      <point x="216.0" y="1527.0"/>
      <point x="158.0" y="1527.0" type="curve"/>
      <point x="157.0" y="1523.0"/>
      <point x="156.0" y="1509.0"/>
      <point x="152.0" y="1484.0" type="curve" smooth="yes"/>
      <point x="147.0" y="1453.0"/>
      <point x="141.0" y="1417.0"/>
      <point x="133.0" y="1374.0" type="curve"/>
      <point x="176.0" y="1374.0"/>
      <point x="219.0" y="1384.0"/>
    </contour>
    <contour>
      <point x="1026.0" y="1767.0" type="line"/>
      <point x="177.0" y="0.0" type="line"/>
      <point x="360.0" y="0.0" type="line"/>
      <point x="1310.0" y="1767.0" type="line"/>
    </contour>
    <contour>
      <point x="1079.0" y="322.0" type="line"/>
      <point x="939.0" y="322.0" type="line"/>
      <point x="1149.0" y="777.0" type="line"/>
    </contour>
  </outline>
</glyph>
<glyph name="onehalf" format="1">
  <advance width="1542.0"/>
  <unicode hex="00BD"/>
  <outline>
    <contour>
      <point x="862.0" y="46.0" type="curve" smooth="yes"/>
      <point x="854.0" y="-1.0" type="line"/>
      <point x="1373.0" y="-1.0" type="line"/>
      <point x="1402.0" y="182.0" type="line"/>
      <point x="1129.0" y="182.0" type="line"/>
      <point x="1247.0" y="355.0"/>
      <point x="1452.0" y="453.0"/>
      <point x="1492.0" y="712.0" type="curve" smooth="yes"/>
      <point x="1519.0" y="879.0"/>
      <point x="1436.0" y="974.0"/>
      <point x="1271.0" y="974.0" type="curve" smooth="yes"/>
      <point x="1060.0" y="974.0"/>
      <point x="988.0" y="864.0"/>
      <point x="954.0" y="646.0" type="curve" smooth="yes"/>
      <point x="947.0" y="586.0" type="line"/>
      <point x="1157.0" y="586.0" type="line"/>
      <point x="1176.0" y="705.0" type="line" smooth="yes"/>
      <point x="1185.0" y="763.0"/>
      <point x="1206.0" y="792.0"/>
      <point x="1240.0" y="792.0" type="curve" smooth="yes"/>
      <point x="1275.0" y="792.0"/>
      <point x="1289.0" y="764.0"/>
      <point x="1280.0" y="709.0" type="curve" smooth="yes"/>
      <point x="1270.0" y="640.0"/>
      <point x="1244.0" y="586.0"/>
      <point x="1203.0" y="546.0" type="curve" smooth="yes"/>
      <point x="1043.0" y="383.0"/>
      <point x="895.0" y="258.0"/>
    </contour>
    <contour>
      <point x="260.0" y="1404.0" type="curve"/>
      <point x="149.0" y="696.0" type="line"/>
      <point x="359.0" y="696.0" type="line"/>
      <point x="509.0" y="1647.0" type="line"/>
      <point x="350.0" y="1647.0" type="line"/>
      <point x="341.0" y="1585.0"/>
      <point x="216.0" y="1527.0"/>
      <point x="158.0" y="1527.0" type="curve"/>
      <point x="157.0" y="1523.0"/>
      <point x="156.0" y="1509.0"/>
      <point x="152.0" y="1484.0" type="curve" smooth="yes"/>
      <point x="147.0" y="1453.0"/>
      <point x="141.0" y="1417.0"/>
      <point x="133.0" y="1374.0" type="curve"/>
      <point x="176.0" y="1374.0"/>
      <point x="219.0" y="1384.0"/>
    </contour>
    <contour>
      <point x="1046.0" y="1767.0" type="line"/>
      <point x="197.0" y="0.0" type="line"/>
      <point x="380.0" y="0.0" type="line"/>
      <point x="1330.0" y="1767.0" type="line"/>
    </contour>
  </outline>
</glyph>
<glyph name="threequarters" format="1">
  <advance width="1572.0"/>
  <unicode hex="00BE"/>
  <outline>
    <contour>
      <point x="101.0" y="635.0"/>
      <point x="275.0" y="635.0" type="curve" smooth="yes"/>
      <point x="467.0" y="635.0"/>
      <point x="560.0" y="743.0"/>
      <point x="591.0" y="935.0" type="curve" smooth="yes"/>
      <point x="612.0" y="1066.0"/>
      <point x="611.0" y="1132.0"/>
      <point x="533.0" y="1170.0" type="curve"/>
      <point x="607.0" y="1194.0"/>
      <point x="639.0" y="1258.0"/>
      <point x="653.0" y="1351.0" type="curve" smooth="yes"/>
      <point x="680.0" y="1521.0"/>
      <point x="609.0" y="1606.0"/>
      <point x="441.0" y="1606.0" type="curve" smooth="yes"/>
      <point x="267.0" y="1606.0"/>
      <point x="174.0" y="1532.0"/>
      <point x="144.0" y="1351.0" type="curve" smooth="yes"/>
      <point x="140.0" y="1317.0" type="line"/>
      <point x="344.0" y="1317.0" type="line"/>
      <point x="356.0" y="1373.0"/>
      <point x="354.0" y="1430.0"/>
      <point x="415.0" y="1430.0" type="curve" smooth="yes"/>
      <point x="447.0" y="1430.0"/>
      <point x="458.0" y="1403.0"/>
      <point x="450.0" y="1349.0" type="curve" smooth="yes"/>
      <point x="439.0" y="1279.0"/>
      <point x="399.0" y="1254.0"/>
      <point x="330.0" y="1254.0" type="curve"/>
      <point x="303.0" y="1081.0" type="line"/>
      <point x="308.0" y="1082.0"/>
      <point x="314.0" y="1082.0"/>
      <point x="323.0" y="1082.0" type="curve" smooth="yes"/>
      <point x="399.0" y="1082.0"/>
      <point x="396.0" y="1011.0"/>
      <point x="384.0" y="935.0" type="curve" smooth="yes"/>
      <point x="373.0" y="865.0"/>
      <point x="365.0" y="813.0"/>
      <point x="314.0" y="813.0" type="curve" smooth="yes"/>
      <point x="266.0" y="813.0"/>
      <point x="263.0" y="851.0"/>
      <point x="271.0" y="903.0" type="curve" smooth="yes"/>
      <point x="286.0" y="1004.0" type="line"/>
      <point x="84.0" y="1004.0" type="line"/>
      <point x="69.0" y="904.0" type="line" smooth="yes"/>
      <point x="41.0" y="725.0"/>
    </contour>
    <contour>
      <point x="1194.0" y="151.0" type="line"/>
      <point x="1169.0" y="-1.0" type="line"/>
      <point x="1376.0" y="-1.0" type="line"/>
      <point x="1401.0" y="151.0" type="line"/>
      <point x="1440.0" y="151.0" type="line"/>
      <point x="1467.0" y="322.0" type="line"/>
      <point x="1428.0" y="322.0" type="line"/>
      <point x="1525.0" y="941.0" type="line"/>
      <point x="1202.0" y="941.0" type="line"/>
      <point x="914.0" y="300.0" type="line"/>
      <point x="891.0" y="151.0" type="line"/>
    </contour>
    <contour>
      <point x="1168.0" y="1767.0" type="line"/>
      <point x="319.0" y="0.0" type="line"/>
      <point x="502.0" y="0.0" type="line"/>
      <point x="1452.0" y="1767.0" type="line"/>
    </contour>
    <contour>
      <point x="1221.0" y="322.0" type="line"/>
      <point x="1081.0" y="322.0" type="line"/>
      <point x="1291.0" y="777.0" type="line"/>
    </contour>
  </outline>
</glyph>
<glyph name="AE" format="1">
  <advance width="1338.0"/>
  <unicode hex="00C6"/>
  <outline>
    <contour>
      <point x="461.0" y="1760.0" type="line"/>
      <point x="-137.0" y="0.0" type="line"/>
      <point x="244.0" y="0.0" type="line"/>
      <point x="398.0" y="479.0" type="line"/>
      <point x="604.0" y="479.0" type="line"/>
      <point x="530.0" y="0.0" type="line"/>
      <point x="1179.0" y="0.0" type="line"/>
      <point x="1227.0" y="311.0" type="line"/>
      <point x="918.0" y="311.0" type="line"/>
      <point x="988.0" y="750.0" type="line"/>
      <point x="1260.0" y="750.0" type="line"/>
      <point x="1307.0" y="1049.0" type="line"/>
      <point x="1035.0" y="1049.0" type="line"/>
      <point x="1098.0" y="1451.0" type="line"/>
      <point x="1384.0" y="1451.0" type="line"/>
      <point x="1433.0" y="1760.0" type="line"/>
    </contour>
    <contour>
      <point x="645.0" y="769.0" type="line"/>
      <point x="489.0" y="769.0" type="line"/>
      <point x="698.0" y="1461.0" type="line"/>
      <point x="755.0" y="1461.0" type="line"/>
    </contour>
    <contour>
      <point x="980.0" y="1760" type="move" name="top"/>
    </contour>
  </outline>
</glyph>
<glyph name="multiply" format="1">
  <advance width="717.0"/>
  <unicode hex="00D7"/>
  <outline>
    <contour>
      <point x="6.0" y="478.0" type="line"/>
      <point x="144.0" y="314.0" type="line"/>
      <point x="314.0" y="461.0" type="line"/>
      <point x="438.0" y="314.0" type="line"/>
      <point x="628.0" y="478.0" type="line"/>
      <point x="504.0" y="625.0" type="line"/>
      <point x="674.0" y="772.0" type="line"/>
      <point x="536.0" y="936.0" type="line"/>
      <point x="366.0" y="789.0" type="line"/>
      <point x="242.0" y="936.0" type="line"/>
      <point x="52.0" y="772.0" type="line"/>
      <point x="176.0" y="625.0" type="line"/>
    </contour>
  </outline>
</glyph>
<glyph name="Oslash" format="1">
  <advance width="995.0"/>
  <unicode hex="00D8"/>
  <outline>
    <contour>
      <point x="-47.0" y="-132.0" type="line"/>
      <point x="59.0" y="-172.0" type="line"/>
      <point x="236.0" y="230.0" type="line"/>
      <point x="151.0" y="316.0" type="line"/>
    </contour>
    <contour>
      <point x="694.0" y="1550.0" type="line"/>
      <point x="797.0" y="1500.0" type="line"/>
      <point x="1006.0" y="1971.0" type="line"/>
      <point x="894.0" y="2004.0" type="line"/>
    </contour>
    <component base="O"/>
  </outline>
</glyph>
<glyph name="Thorn" format="1">
  <advance width="973.0"/>
  <unicode hex="00DE"/>
  <outline>
    <contour>
      <point x="242.0" y="1760.0" type="line"/>
      <point x="-35.0" y="0.0" type="line"/>
      <point x="311.0" y="0.0" type="line"/>
      <point x="379.0" y="434.0" type="line"/>
      <point x="522.0" y="434.0" type="line" smooth="yes"/>
      <point x="827.0" y="434.0"/>
      <point x="926.0" y="666.0"/>
      <point x="974.0" y="973.0" type="curve" smooth="yes"/>
      <point x="1024.0" y="1291.0"/>
      <point x="976.0" y="1516.0"/>
      <point x="668.0" y="1516.0" type="curve" smooth="yes"/>
      <point x="548.0" y="1516.0" type="line"/>
      <point x="587.0" y="1760.0" type="line"/>
    </contour>
    <contour>
      <point x="444.0" y="721.0" type="curve" smooth="yes"/>
      <point x="424.0" y="721.0" type="line"/>
      <point x="503.0" y="1226.0" type="line"/>
      <point x="542.0" y="1226.0" type="line" smooth="yes"/>
      <point x="657.0" y="1226.0"/>
      <point x="650.0" y="1121.0"/>
      <point x="627.0" y="979.0" type="curve" smooth="yes"/>
      <point x="604.0" y="833.0"/>
      <point x="588.0" y="721.0"/>
    </contour>
  </outline>
</glyph>
<glyph name="germandbls" format="1">
  <advance width="1029.0"/>
  <unicode hex="00DF"/>
  <outline>
    <contour>
      <point x="180.0" y="1412.0" type="curve" smooth="yes"/>
      <point x="-42.0" y="0.0" type="line"/>
      <point x="308.0" y="0.0" type="line"/>
      <point x="537.0" y="1453.0" type="line" smooth="yes"/>
      <point x="546.0" y="1504.0"/>
      <point x="574.0" y="1529.0"/>
      <point x="624.0" y="1529.0" type="curve" smooth="yes"/>
      <point x="674.0" y="1529.0"/>
      <point x="696.0" y="1504.0"/>
      <point x="687.0" y="1453.0" type="curve" smooth="yes"/>
      <point x="654.0" y="1245.0" type="line" smooth="yes"/>
      <point x="643.0" y="1177.0"/>
      <point x="621.0" y="1126.0"/>
      <point x="551.0" y="1126.0" type="curve"/>
      <point x="513.0" y="878.0" type="line"/>
      <point x="622.0" y="878.0"/>
      <point x="653.0" y="839.0"/>
      <point x="637.0" y="731.0" type="curve" smooth="yes"/>
      <point x="584.0" y="399.0" type="line" smooth="yes"/>
      <point x="571.0" y="320.0"/>
      <point x="517.0" y="281.0"/>
      <point x="422.0" y="281.0" type="curve"/>
      <point x="378.0" y="0.0" type="line"/>
      <point x="482.0" y="0.0" type="line" smooth="yes"/>
      <point x="782.0" y="0.0"/>
      <point x="910.0" y="260.0"/>
      <point x="958.0" y="559.0" type="curve" smooth="yes"/>
      <point x="998.0" y="817.0"/>
      <point x="982.0" y="980.0"/>
      <point x="820.0" y="1020.0" type="curve"/>
      <point x="933.0" y="1055.0"/>
      <point x="991.0" y="1155.0"/>
      <point x="1013.0" y="1295.0" type="curve" smooth="yes"/>
      <point x="1031.0" y="1412.0" type="line" smooth="yes"/>
      <point x="1072.0" y="1673.0"/>
      <point x="922.0" y="1776.0"/>
      <point x="663.0" y="1776.0" type="curve" smooth="yes"/>
      <point x="380.0" y="1776.0"/>
      <point x="219.0" y="1655.0"/>
    </contour>
  </outline>
</glyph>
<glyph name="ae" format="1">
  <advance width="1498.0"/>
  <unicode hex="00E6"/>
  <outline>
    <contour>
      <point x="56.0" y="-18.0"/>
      <point x="323.0" y="-18.0" type="curve" smooth="yes"/>
      <point x="472.0" y="-18.0"/>
      <point x="588.0" y="51.0"/>
      <point x="649.0" y="148.0" type="curve"/>
      <point x="675.0" y="53.0"/>
      <point x="770.0" y="-18.0"/>
      <point x="910.0" y="-18.0" type="curve" smooth="yes"/>
      <point x="1232.0" y="-18.0"/>
      <point x="1351.0" y="172.0"/>
      <point x="1401.0" y="494.0" type="curve" smooth="yes"/>
      <point x="1415.0" y="579.0" type="line"/>
      <point x="1059.0" y="579.0" type="line"/>
      <point x="1059.0" y="574.0"/>
      <point x="1055.0" y="542.0"/>
      <point x="1046.0" y="483.0" type="curve" smooth="yes"/>
      <point x="1032.0" y="394.0"/>
      <point x="1013.0" y="260.0"/>
      <point x="927.0" y="260.0" type="curve" smooth="yes"/>
      <point x="869.0" y="260.0"/>
      <point x="852.0" y="338.0"/>
      <point x="876.0" y="494.0" type="curve" smooth="yes"/>
      <point x="910.0" y="704.0" type="line"/>
      <point x="1431.0" y="704.0" type="line"/>
      <point x="1441.0" y="755.0"/>
      <point x="1458.0" y="848.0"/>
      <point x="1478.0" y="983.0" type="curve" smooth="yes"/>
      <point x="1496.0" y="1092.0" type="line" smooth="yes"/>
      <point x="1541.0" y="1376.0"/>
      <point x="1419.0" y="1518.0"/>
      <point x="1131.0" y="1518.0" type="curve" smooth="yes"/>
      <point x="1006.0" y="1518.0"/>
      <point x="911.0" y="1477.0"/>
      <point x="845.0" y="1396.0" type="curve"/>
      <point x="803.0" y="1477.0"/>
      <point x="727.0" y="1518.0"/>
      <point x="618.0" y="1518.0" type="curve" smooth="yes"/>
      <point x="312.0" y="1518.0"/>
      <point x="159.0" y="1403.0"/>
      <point x="112.0" y="1105.0" type="curve" smooth="yes"/>
      <point x="109.0" y="1084.0"/>
      <point x="106.0" y="1067.0"/>
      <point x="105.0" y="1056.0" type="curve"/>
      <point x="453.0" y="1056.0" type="line"/>
      <point x="469.0" y="1157.0" type="line" smooth="yes"/>
      <point x="477.0" y="1212.0"/>
      <point x="507.0" y="1239.0"/>
      <point x="556.0" y="1239.0" type="curve" smooth="yes"/>
      <point x="651.0" y="1239.0"/>
      <point x="608.0" y="1079.0"/>
      <point x="592.0" y="983.0" type="curve" smooth="yes"/>
      <point x="592.0" y="980.0" type="line"/>
      <point x="238.0" y="865.0"/>
      <point x="48.0" y="839.0"/>
      <point x="-17.0" y="430.0" type="curve" smooth="yes"/>
      <point x="-60.0" y="154.0"/>
    </contour>
    <contour>
      <point x="460.0" y="262.0"/>
      <point x="402.0" y="262.0" type="curve" smooth="yes"/>
      <point x="349.0" y="262.0"/>
      <point x="329.0" y="306.0"/>
      <point x="343.0" y="395.0" type="curve" smooth="yes"/>
      <point x="371.0" y="570.0" type="line" smooth="yes"/>
      <point x="389.0" y="687.0"/>
      <point x="454.0" y="734.0"/>
      <point x="559.0" y="774.0" type="curve"/>
      <point x="496.0" y="379.0" type="line" smooth="yes"/>
      <point x="487.0" y="322.0"/>
    </contour>
    <contour>
      <point x="1115.0" y="931.0" type="line"/>
      <point x="946.0" y="931.0" type="line"/>
      <point x="965.0" y="1052.0" type="line" smooth="yes"/>
      <point x="983.0" y="1167.0"/>
      <point x="996.0" y="1249.0"/>
      <point x="1085.0" y="1249.0" type="curve" smooth="yes"/>
      <point x="1138.0" y="1249.0"/>
      <point x="1156.0" y="1195.0"/>
      <point x="1139.0" y="1087.0" type="curve" smooth="yes"/>
    </contour>
    <contour>
      <point x="883.0" y="1500" type="move" name="top"/>
    </contour>
  </outline>
</glyph>
<glyph name="eth" format="1">
  <advance width="1012.0"/>
  <unicode hex="00F0"/>
  <outline>
    <contour>
      <point x="872.0" y="1389.0" type="curve"/>
      <point x="1110.0" y="1529.0" type="line"/>
      <point x="1032.0" y="1690.0" type="line"/>
      <point x="768.0" y="1534.0" type="line"/>
      <point x="647.0" y="1670.0"/>
      <point x="485.0" y="1757.0"/>
      <point x="312.0" y="1774.0" type="curve"/>
      <point x="182.0" y="1546.0" type="line"/>
      <point x="282.0" y="1524.0"/>
      <point x="389.0" y="1456.0"/>
      <point x="475.0" y="1362.0" type="curve"/>
      <point x="287.0" y="1251.0" type="line"/>
      <point x="365.0" y="1090.0" type="line"/>
      <point x="578.0" y="1215.0" type="line"/>
      <point x="620.0" y="1134.0"/>
      <point x="644.0" y="1044.0"/>
      <point x="640.0" y="951.0" type="curve"/>
      <point x="606.0" y="975.0"/>
      <point x="528.0" y="992.0"/>
      <point x="475.0" y="992.0" type="curve" smooth="yes"/>
      <point x="184.0" y="992.0"/>
      <point x="34.0" y="826.0"/>
      <point x="-16.0" y="509.0" type="curve" smooth="yes"/>
      <point x="-72.0" y="157.0"/>
      <point x="15.0" y="-16.0"/>
      <point x="359.0" y="-16.0" type="curve" smooth="yes"/>
      <point x="726.0" y="-16.0"/>
      <point x="870.0" y="161.0"/>
      <point x="929.0" y="538.0" type="curve" smooth="yes"/>
      <point x="970.0" y="799.0" type="line" smooth="yes"/>
      <point x="1006.0" y="1023.0"/>
      <point x="963.0" y="1226.0"/>
    </contour>
    <contour>
      <point x="571.0" y="591.0" type="curve" smooth="yes"/>
      <point x="544.0" y="420.0" type="line" smooth="yes"/>
      <point x="528.0" y="326.0"/>
      <point x="490.0" y="279.0"/>
      <point x="426.0" y="279.0" type="curve" smooth="yes"/>
      <point x="336.0" y="279.0"/>
      <point x="347.0" y="364.0"/>
      <point x="365.0" y="482.0" type="curve" smooth="yes"/>
      <point x="379.0" y="570.0" type="line" smooth="yes"/>
      <point x="396.0" y="674.0"/>
      <point x="432.0" y="726.0"/>
      <point x="490.0" y="726.0" type="curve" smooth="yes"/>
      <point x="557.0" y="726.0"/>
      <point x="585.0" y="681.0"/>
    </contour>
  </outline>
</glyph>
<glyph name="divide" format="1">
  <advance width="713.0"/>
  <unicode hex="00F7"/>
  <outline>
    <contour>
      <point x="174.0" y="535.0" type="line"/>
      <point x="128.0" y="237.0" type="line"/>
      <point x="426.0" y="237.0" type="line"/>
      <point x="472.0" y="535.0" type="line"/>
    </contour>
    <contour>
      <point x="68.0" y="870.0" type="line"/>
      <point x="32.0" y="638.0" type="line"/>
      <point x="648.0" y="638.0" type="line"/>
      <point x="684.0" y="870.0" type="line"/>
    </contour>
    <contour>
      <point x="291.0" y="1274.0" type="line"/>
      <point x="244.0" y="976.0" type="line"/>
      <point x="542.0" y="976.0" type="line"/>
      <point x="589.0" y="1274.0" type="line"/>
    </contour>
  </outline>
</glyph>
<glyph name="oslash" format="1">
  <advance width="1011.0"/>
  <unicode hex="00F8"/>
  <outline>
    <contour>
      <point x="-77.0" y="-123.0" type="line"/>
      <point x="51.0" y="-175.0" type="line"/>
      <point x="206.0" y="92.0" type="line"/>
      <point x="77.0" y="144.0" type="line"/>
    </contour>
    <contour>
      <point x="783.0" y="1403.0" type="line"/>
      <point x="905.0" y="1348.0" type="line"/>
      <point x="1087.0" y="1603.0" type="line"/>
      <point x="955.0" y="1661.0" type="line"/>
    </contour>
    <component base="o"/>
  </outline>
</glyph>
<glyph name="thorn" format="1">
  <advance width="1036.0"/>
  <unicode hex="00FE"/>
  <outline>
    <contour>
      <point x="237.0" y="1769.0" type="line"/>
      <point x="-71.0" y="-185.0" type="line"/>
      <point x="297.0" y="-185.0" type="line"/>
      <point x="351.0" y="160.0" type="line"/>
      <point x="377.0" y="41.0"/>
      <point x="438.0" y="-18.0"/>
      <point x="535.0" y="-18.0" type="curve" smooth="yes"/>
      <point x="759.0" y="-18.0"/>
      <point x="878.0" y="160.0"/>
      <point x="915.0" y="391.0" type="curve" smooth="yes"/>
      <point x="1029.0" y="1114.0" type="line" smooth="yes"/>
      <point x="1068.0" y="1360.0"/>
      <point x="1009.0" y="1519.0"/>
      <point x="765.0" y="1519.0" type="curve" smooth="yes"/>
      <point x="692.0" y="1519.0"/>
      <point x="620.0" y="1488.0"/>
      <point x="551.0" y="1427.0" type="curve"/>
      <point x="605.0" y="1769.0" type="line"/>
    </contour>
    <contour>
      <point x="536.0" y="263.0"/>
      <point x="457.0" y="263.0" type="curve" smooth="yes"/>
      <point x="374.0" y="263.0"/>
      <point x="381.0" y="349.0"/>
      <point x="398.0" y="457.0" type="curve" smooth="yes"/>
      <point x="497.0" y="1085.0" type="line" smooth="yes"/>
      <point x="511.0" y="1175.0"/>
      <point x="537.0" y="1239.0"/>
      <point x="609.0" y="1239.0" type="curve" smooth="yes"/>
      <point x="679.0" y="1239.0"/>
      <point x="675.0" y="1171.0"/>
      <point x="661.0" y="1081.0" type="curve" smooth="yes"/>
      <point x="562.0" y="457.0" type="line" smooth="yes"/>
      <point x="544.0" y="347.0"/>
    </contour>
  </outline>
</glyph>
<glyph name="Hbar" format="1">
  <advance width="1058.0"/>
  <unicode hex="0126"/>
  <outline>
    <contour>
      <point x="108.0" y="1500.0" type="line"/>
      <point x="83.0" y="1342.0" type="line"/>
      <point x="1144.0" y="1342.0" type="line"/>
      <point x="1169.0" y="1500.0" type="line"/>
    </contour>
    <component base="H" xOffset="13.0"/>
  </outline>
</glyph>
<glyph name="dotlessi" format="1">
  <advance width="509.0"/>
  <unicode hex="0131"/>
  <outline>
    <contour>
      <point x="194.0" y="1500.0" type="line"/>
      <point x="-42.0" y="0.0" type="line"/>
      <point x="316.0" y="0.0" type="line"/>
      <point x="552.0" y="1500.0" type="line"/>
    </contour>
    <contour>
      <point x="126.0" y="0" type="move" name="ogonek"/>
    </contour>
    <contour>
      <point x="379.0" y="1500" type="move" name="top"/>
    </contour>
  </outline>
</glyph>
<glyph name="kgreenlandic" format="1">
  <advance width="1006.0"/>
  <unicode hex="0138"/>
  <outline>
    <contour>
      <point x="195.0" y="1500.0" type="line"/>
      <point x="-41.0" y="0.0" type="line"/>
      <point x="313.0" y="0.0" type="line"/>
      <point x="419.0" y="674.0" type="line"/>
      <point x="536.0" y="0.0" type="line"/>
      <point x="917.0" y="0.0" type="line"/>
      <point x="759.0" y="815.0" type="line"/>
      <point x="1092.0" y="1500.0" type="line"/>
      <point x="721.0" y="1500.0" type="line"/>
      <point x="462.0" y="950.0" type="line"/>
      <point x="549.0" y="1500.0" type="line"/>
    </contour>
  </outline>
</glyph>
<glyph name="Lslash" format="1">
  <advance width="851.0"/>
  <unicode hex="0141"/>
  <outline>
    <contour>
      <point x="77.0" y="1011.0" type="line"/>
      <point x="23.0" y="669.0" type="line"/>
      <point x="715.0" y="951.0" type="line"/>
      <point x="769.0" y="1293.0" type="line"/>
    </contour>
    <component base="L" xOffset="42.0"/>
  </outline>
</glyph>
<glyph name="lslash" format="1">
  <advance width="638.0"/>
  <unicode hex="0142"/>
  <outline>
    <contour>
      <point x="50.0" y="911.0" type="line"/>
      <point x="4.0" y="619.0" type="line"/>
      <point x="637.0" y="851.0" type="line"/>
      <point x="682.0" y="1143.0" type="line"/>
    </contour>
    <contour>
      <point x="300.0" y="1767.0" type="line"/>
      <point x="21.0" y="0.0" type="line"/>
      <point x="385.0" y="0.0" type="line"/>
      <point x="664.0" y="1767.0" type="line"/>
    </contour>
  </outline>
</glyph>
<glyph name="Eng" format="1">
  <advance width="1028.0"/>
  <unicode hex="014A"/>
  <outline>
    <contour>
      <point x="158.0" y="-488.0"/>
      <point x="298.0" y="-488.0" type="curve" smooth="yes"/>
      <point x="542.0" y="-488.0"/>
      <point x="764.0" y="-355.0"/>
      <point x="818.0" y="-18.0" type="curve" smooth="yes"/>
      <point x="849.0" y="182.0" type="line"/>
      <point x="484.0" y="182.0" type="line"/>
      <point x="449.0" y="-41.0" type="line" smooth="yes"/>
      <point x="427.0" y="-182.0"/>
      <point x="358.0" y="-236.0"/>
      <point x="258.0" y="-236.0" type="curve" smooth="yes"/>
      <point x="186.0" y="-236.0"/>
      <point x="96.0" y="-207.0"/>
      <point x="-2.0" y="-161.0" type="curve"/>
      <point x="-115.0" y="-368.0" type="line"/>
      <point x="10.0" y="-444.0"/>
    </contour>
    <component base="N"/>
  </outline>
</glyph>
<glyph name="eng" format="1">
  <advance width="1029.0"/>
  <unicode hex="014B"/>
  <outline>
    <contour>
      <point x="178.0" y="-488.0"/>
      <point x="318.0" y="-488.0" type="curve" smooth="yes"/>
      <point x="562.0" y="-488.0"/>
      <point x="784.0" y="-355.0"/>
      <point x="837.0" y="-18.0" type="curve" smooth="yes"/>
      <point x="868.0" y="182.0" type="line"/>
      <point x="516.0" y="182.0" type="line"/>
      <point x="482.0" y="-41.0" type="line" smooth="yes"/>
      <point x="460.0" y="-182.0"/>
      <point x="378.0" y="-236.0"/>
      <point x="278.0" y="-236.0" type="curve" smooth="yes"/>
      <point x="206.0" y="-236.0"/>
      <point x="116.0" y="-207.0"/>
      <point x="17.0" y="-161.0" type="curve"/>
      <point x="-96.0" y="-368.0" type="line"/>
      <point x="30.0" y="-444.0"/>
    </contour>
    <component base="n"/>
  </outline>
</glyph>
<glyph name="OE" format="1">
  <advance width="1348.0"/>
  <unicode hex="0152"/>
  <outline>
    <contour>
      <point x="133.0" y="0.0"/>
      <point x="504.0" y="0.0" type="curve" smooth="yes"/>
      <point x="1189.0" y="0.0" type="line"/>
      <point x="1237.0" y="311.0" type="line"/>
      <point x="877.0" y="311.0" type="line"/>
      <point x="952.0" y="784.0" type="line"/>
      <point x="1275.0" y="784.0" type="line"/>
      <point x="1322.0" y="1083.0" type="line"/>
      <point x="999.0" y="1083.0" type="line"/>
      <point x="1057.0" y="1451.0" type="line"/>
      <point x="1394.0" y="1451.0" type="line"/>
      <point x="1443.0" y="1760.0" type="line"/>
      <point x="773.0" y="1760.0" type="line" smooth="yes"/>
      <point x="448.0" y="1760.0"/>
      <point x="210.0" y="1665.0"/>
      <point x="161.0" y="1356.0" type="curve" smooth="yes"/>
      <point x="16.0" y="430.0" type="line" smooth="yes"/>
      <point x="-30.0" y="143.0"/>
    </contour>
    <contour>
      <point x="520.0" y="311.0" type="line"/>
      <point x="459.0" y="311.0" type="line" smooth="yes"/>
      <point x="377.0" y="311.0"/>
      <point x="356.0" y="387.0"/>
      <point x="371.0" y="480.0" type="curve" smooth="yes"/>
      <point x="502.0" y="1314.0" type="line" smooth="yes"/>
      <point x="516.0" y="1399.0"/>
      <point x="566.0" y="1451.0"/>
      <point x="645.0" y="1451.0" type="curve" smooth="yes"/>
      <point x="700.0" y="1451.0" type="line"/>
    </contour>
  </outline>
</glyph>
<glyph name="oe" format="1">
  <advance width="1527.0"/>
  <unicode hex="0153"/>
  <outline>
    <contour>
      <point x="84.0" y="-18.0"/>
      <point x="383.0" y="-18.0" type="curve" smooth="yes"/>
      <point x="493.0" y="-18.0"/>
      <point x="588.0" y="11.0"/>
      <point x="667.0" y="69.0" type="curve"/>
      <point x="721.0" y="11.0"/>
      <point x="798.0" y="-18.0"/>
      <point x="899.0" y="-18.0" type="curve" smooth="yes"/>
      <point x="1239.0" y="-18.0"/>
      <point x="1377.0" y="157.0"/>
      <point x="1430.0" y="494.0" type="curve" smooth="yes"/>
      <point x="1444.0" y="579.0" type="line"/>
      <point x="1088.0" y="579.0" type="line"/>
      <point x="1088.0" y="574.0"/>
      <point x="1084.0" y="542.0"/>
      <point x="1075.0" y="483.0" type="curve" smooth="yes"/>
      <point x="1061.0" y="395.0"/>
      <point x="1042.0" y="260.0"/>
      <point x="956.0" y="260.0" type="curve" smooth="yes"/>
      <point x="876.0" y="260.0"/>
      <point x="882.0" y="346.0"/>
      <point x="895.0" y="427.0" type="curve" smooth="yes"/>
      <point x="897.0" y="439.0"/>
      <point x="905.0" y="482.0"/>
      <point x="906.0" y="494.0" type="curve" smooth="yes"/>
      <point x="940.0" y="704.0" type="line"/>
      <point x="1460.0" y="704.0" type="line"/>
      <point x="1470.0" y="755.0"/>
      <point x="1487.0" y="848.0"/>
      <point x="1507.0" y="983.0" type="curve" smooth="yes"/>
      <point x="1525.0" y="1092.0" type="line" smooth="yes"/>
      <point x="1570.0" y="1376.0"/>
      <point x="1448.0" y="1518.0"/>
      <point x="1160.0" y="1518.0" type="curve" smooth="yes"/>
      <point x="1049.0" y="1518.0"/>
      <point x="954.0" y="1486.0"/>
      <point x="876.0" y="1422.0" type="curve"/>
      <point x="811.0" y="1486.0"/>
      <point x="728.0" y="1518.0"/>
      <point x="626.0" y="1518.0" type="curve" smooth="yes"/>
      <point x="346.0" y="1518.0"/>
      <point x="149.0" y="1333.0"/>
      <point x="105.0" y="1051.0" type="curve" smooth="yes"/>
      <point x="10.0" y="449.0" type="line" smooth="yes"/>
      <point x="-39.0" y="138.0"/>
    </contour>
    <contour>
      <point x="488.0" y="260.0"/>
      <point x="428.0" y="260.0" type="curve" smooth="yes"/>
      <point x="368.0" y="260.0"/>
      <point x="351.0" y="308.0"/>
      <point x="362.0" y="375.0" type="curve" smooth="yes"/>
      <point x="478.0" y="1108.0" type="line" smooth="yes"/>
      <point x="491.0" y="1195.0"/>
      <point x="526.0" y="1239.0"/>
      <point x="582.0" y="1239.0" type="curve" smooth="yes"/>
      <point x="638.0" y="1239.0"/>
      <point x="659.0" y="1195.0"/>
      <point x="646.0" y="1108.0" type="curve" smooth="yes"/>
      <point x="530.0" y="375.0" type="line" smooth="yes"/>
      <point x="519.0" y="308.0"/>
    </contour>
    <contour>
      <point x="1144.0" y="931.0" type="line"/>
      <point x="976.0" y="931.0" type="line"/>
      <point x="979.0" y="955.0"/>
      <point x="989.0" y="1033.0"/>
      <point x="993.0" y="1057.0" type="curve" smooth="yes"/>
      <point x="1007.0" y="1146.0"/>
      <point x="1027.0" y="1249.0"/>
      <point x="1114.0" y="1249.0" type="curve" smooth="yes"/>
      <point x="1167.0" y="1249.0"/>
      <point x="1185.0" y="1195.0"/>
      <point x="1168.0" y="1087.0" type="curve" smooth="yes"/>
    </contour>
  </outline>
</glyph>
<glyph name="uni018F" format="1">
  <advance width="992.0"/>
  <unicode hex="018F"/>
  <outline>
    <contour>
      <point x="667.0" y="1776.0" type="curve" smooth="yes"/>
      <point x="387.0" y="1776.0"/>
      <point x="202.0" y="1644.0"/>
      <point x="154.0" y="1335.0" type="curve" smooth="yes"/>
      <point x="114.0" y="1087.0" type="line"/>
      <point x="468.0" y="1087.0" type="line"/>
      <point x="505.0" y="1319.0" type="line" smooth="yes"/>
      <point x="518.0" y="1398.0"/>
      <point x="548.0" y="1452.0"/>
      <point x="608.0" y="1452.0" type="curve" smooth="yes"/>
      <point x="662.0" y="1452.0"/>
      <point x="685.0" y="1416.0"/>
      <point x="670.0" y="1319.0" type="curve" smooth="yes"/>
      <point x="602.0" y="890.0" type="line"/>
      <point x="87.0" y="890.0" type="line"/>
      <point x="10.0" y="398.0" type="line" smooth="yes"/>
      <point x="-34.0" y="121.0"/>
      <point x="126.0" y="-16.0"/>
      <point x="376.0" y="-16.0" type="curve" smooth="yes"/>
      <point x="681.0" y="-16.0"/>
      <point x="838.0" y="171.0"/>
      <point x="892.0" y="512.0" type="curve" smooth="yes"/>
      <point x="1020.0" y="1324.0" type="line" smooth="yes"/>
      <point x="1064.0" y="1609.0"/>
      <point x="922.0" y="1776.0"/>
    </contour>
    <contour>
      <point x="428.0" y="308.0" type="curve" smooth="yes"/>
      <point x="372.0" y="308.0"/>
      <point x="350.0" y="337.0"/>
      <point x="366.0" y="442.0" type="curve" smooth="yes"/>
      <point x="393.0" y="614.0" type="line"/>
      <point x="559.0" y="614.0" type="line"/>
      <point x="531.0" y="438.0" type="line" smooth="yes"/>
      <point x="519.0" y="360.0"/>
      <point x="493.0" y="308.0"/>
    </contour>
  </outline>
</glyph>
<glyph name="florin" format="1">
  <advance width="653.0"/>
  <unicode hex="0192"/>
  <outline>
    <contour>
      <point x="53.0" y="-47.0"/>
      <point x="138.0" y="-47.0" type="curve" smooth="yes"/>
      <point x="299.0" y="-47.0"/>
      <point x="393.0" y="34.0"/>
      <point x="419.0" y="195.0" type="curve" smooth="yes"/>
      <point x="543.0" y="986.0" type="line"/>
      <point x="634.0" y="986.0" type="line"/>
      <point x="678.0" y="1263.0" type="line"/>
      <point x="580.0" y="1263.0" type="line"/>
      <point x="583.0" y="1281.0" type="line" smooth="yes"/>
      <point x="590.0" y="1332.0"/>
      <point x="601.0" y="1362.0"/>
      <point x="650.0" y="1362.0" type="curve" smooth="yes"/>
      <point x="660.0" y="1362.0"/>
      <point x="674.0" y="1360.0"/>
      <point x="692.0" y="1357.0" type="curve"/>
      <point x="727.0" y="1578.0" type="line"/>
      <point x="680.0" y="1597.0"/>
      <point x="613.0" y="1607.0"/>
      <point x="528.0" y="1607.0" type="curve" smooth="yes"/>
      <point x="367.0" y="1607.0"/>
      <point x="273.0" y="1526.0"/>
      <point x="248.0" y="1365.0" type="curve" smooth="yes"/>
      <point x="232.0" y="1263.0" type="line"/>
      <point x="147.0" y="1263.0" type="line"/>
      <point x="103.0" y="986.0" type="line"/>
      <point x="188.0" y="986.0" type="line"/>
      <point x="86.0" y="297.0" type="line"/>
      <point x="84.0" y="279.0" type="line" smooth="yes"/>
      <point x="76.0" y="228.0"/>
      <point x="65.0" y="198.0"/>
      <point x="16.0" y="198.0" type="curve" smooth="yes"/>
      <point x="6.0" y="198.0"/>
      <point x="-8.0" y="200.0"/>
      <point x="-26.0" y="203.0" type="curve"/>
      <point x="-62.0" y="-18.0" type="line"/>
      <point x="-13.0" y="-37.0"/>
    </contour>
  </outline>
</glyph>
<glyph name="uni0237" format="1">
  <advance width="545.0"/>
  <unicode hex="0237"/>
  <outline>
    <contour>
      <point x="-34.0" y="-176.0"/>
      <point x="43.0" y="-176.0" type="curve" smooth="yes"/>
      <point x="249.0" y="-176.0"/>
      <point x="346.0" y="-47.0"/>
      <point x="379.0" y="166.0" type="curve" smooth="yes"/>
      <point x="590.0" y="1500.0" type="line"/>
      <point x="232.0" y="1500.0" type="line"/>
      <point x="20.0" y="156.0" type="line" smooth="yes"/>
      <point x="14.0" y="115.0"/>
      <point x="4.0" y="85.0"/>
      <point x="-34.0" y="85.0" type="curve" smooth="yes"/>
      <point x="-45.0" y="85.0"/>
      <point x="-55.0" y="87.0"/>
      <point x="-66.0" y="90.0" type="curve"/>
      <point x="-105.0" y="-150.0" type="line"/>
      <point x="-82.0" y="-167.0"/>
    </contour>
    <contour>
      <point x="424.0" y="1500" type="move" name="top"/>
    </contour>
  </outline>
</glyph>
<glyph name="uni0259" format="1">
  <advance width="996.0"/>
  <unicode hex="0259"/>
  <outline>
    <contour>
      <point x="81.0" y="-16.0"/>
      <point x="369.0" y="-16.0" type="curve" smooth="yes"/>
      <point x="649.0" y="-16.0"/>
      <point x="842.0" y="129.0"/>
      <point x="885.0" y="408.0" type="curve" smooth="yes"/>
      <point x="980.0" y="1011.0" type="line" smooth="yes"/>
      <point x="1031.0" y="1330.0"/>
      <point x="949.0" y="1516.0"/>
      <point x="628.0" y="1516.0" type="curve" smooth="yes"/>
      <point x="288.0" y="1516.0"/>
      <point x="151.0" y="1343.0"/>
      <point x="97.0" y="1006.0" type="curve" smooth="yes"/>
      <point x="84.0" y="921.0" type="line"/>
      <point x="440.0" y="921.0" type="line"/>
      <point x="463.0" y="1065.0" type="line" smooth="yes"/>
      <point x="476.0" y="1150.0"/>
      <point x="486.0" y="1240.0"/>
      <point x="572.0" y="1240.0" type="curve" smooth="yes"/>
      <point x="652.0" y="1240.0"/>
      <point x="645.0" y="1154.0"/>
      <point x="633.0" y="1073.0" type="curve" smooth="yes"/>
      <point x="586.0" y="783.0" type="line"/>
      <point x="66.0" y="783.0" type="line"/>
      <point x="56.0" y="732.0"/>
      <point x="42.0" y="652.0"/>
      <point x="20.0" y="517.0" type="curve" smooth="yes"/>
      <point x="3.0" y="408.0" type="line" smooth="yes"/>
      <point x="-42.0" y="124.0"/>
    </contour>
    <contour>
      <point x="472.0" y="251.0"/>
      <point x="415.0" y="251.0" type="curve" smooth="yes"/>
      <point x="362.0" y="251.0"/>
      <point x="343.0" y="305.0"/>
      <point x="360.0" y="413.0" type="curve" smooth="yes"/>
      <point x="390.0" y="605.0" type="line"/>
      <point x="560.0" y="605.0" type="line"/>
      <point x="530.0" y="413.0" type="line" smooth="yes"/>
      <point x="513.0" y="301.0"/>
    </contour>
  </outline>
</glyph>
<glyph name="uni02BC" format="1">
  <advance width="487.0"/>
  <unicode hex="02BC"/>
  <outline>
    <contour>
      <point x="255.0" y="1202.0" type="line"/>
      <point x="151.0" y="966.0" type="line"/>
      <point x="362.0" y="966.0" type="line"/>
      <point x="504.0" y="1211.0" type="line"/>
      <point x="549.0" y="1500.0" type="line"/>
      <point x="175.0" y="1500.0" type="line"/>
      <point x="128.0" y="1202.0" type="line"/>
    </contour>
  </outline>
</glyph>
<glyph name="circumflex" format="1">
  <advance width="970.0"/>
  <unicode hex="02C6"/>
  <outline>
    <contour>
      <point x="401.0" y="1994.0" type="line"/>
      <point x="97.0" y="1591.0" type="line"/>
      <point x="456.0" y="1591.0" type="line"/>
      <point x="587.0" y="1876.0" type="line"/>
      <point x="628.0" y="1591.0" type="line"/>
      <point x="987.0" y="1591.0" type="line"/>
      <point x="809.0" y="1994.0" type="line"/>
    </contour>
    <contour>
      <point x="536" y="1500" type="move" name="_top"/>
    </contour>
  </outline>
</glyph>
<glyph name="caron" format="1">
  <advance width="970.0"/>
  <unicode hex="02C7"/>
  <outline>
    <contour>
      <point x="160.0" y="1994.0" type="line"/>
      <point x="338.0" y="1591.0" type="line"/>
      <point x="746.0" y="1591.0" type="line"/>
      <point x="1050.0" y="1994.0" type="line"/>
      <point x="691.0" y="1994.0" type="line"/>
      <point x="560.0" y="1709.0" type="line"/>
      <point x="519.0" y="1994.0" type="line"/>
    </contour>
    <contour>
      <point x="536" y="1500" type="move" name="_top"/>
    </contour>
  </outline>
</glyph>
<glyph name="uni02C9" format="1">
  <advance width="600.0"/>
  <unicode hex="02C9"/>
  <outline>
    <contour>
      <point x="115.0" y="1751.0" type="line"/>
      <point x="91.0" y="1598.0" type="line"/>
      <point x="741.0" y="1598.0" type="line"/>
      <point x="765.0" y="1751.0" type="line"/>
    </contour>
  </outline>
</glyph>
<glyph name="breve" format="1">
  <advance width="1015.0"/>
  <unicode hex="02D8"/>
  <outline>
    <contour>
      <point x="332.0" y="1592.0"/>
      <point x="566.0" y="1592.0" type="curve" smooth="yes"/>
      <point x="806.0" y="1592.0"/>
      <point x="975.0" y="1687.0"/>
      <point x="1011.0" y="1910.0" type="curve" smooth="yes"/>
      <point x="1012.0" y="1917.0"/>
      <point x="1012.0" y="1929.0"/>
      <point x="1014.0" y="1945.0" type="curve"/>
      <point x="758.0" y="1944.0" type="line"/>
      <point x="746.0" y="1869.0"/>
      <point x="708.0" y="1829.0"/>
      <point x="605.0" y="1829.0" type="curve" smooth="yes"/>
      <point x="502.0" y="1829.0"/>
      <point x="476.0" y="1869.0"/>
      <point x="488.0" y="1944.0" type="curve"/>
      <point x="232.0" y="1945.0" type="line"/>
      <point x="228.0" y="1931.0"/>
      <point x="225.0" y="1917.0"/>
      <point x="223.0" y="1903.0" type="curve" smooth="yes"/>
      <point x="188.0" y="1686.0"/>
    </contour>
    <contour>
      <point x="547" y="1500" type="move" name="_top"/>
    </contour>
  </outline>
</glyph>
<glyph name="dotaccent" format="1">
  <advance width="491.0"/>
  <unicode hex="02D9"/>
  <outline>
    <contour>
      <point x="108.0" y="1890.0" type="line"/>
      <point x="61.0" y="1592.0" type="line"/>
      <point x="419.0" y="1592.0" type="line"/>
      <point x="466.0" y="1890.0" type="line"/>
    </contour>
    <contour>
      <point x="244" y="1500" type="move" name="_top"/>
    </contour>
  </outline>
</glyph>
<glyph name="ring" format="1">
  <advance width="804.0"/>
  <unicode hex="02DA"/>
  <outline>
    <contour>
      <point x="539.0" y="1772.0"/>
      <point x="450.0" y="1772.0" type="curve" smooth="yes"/>
      <point x="361.0" y="1772.0"/>
      <point x="319.0" y="1842.0"/>
      <point x="332.0" y="1929.0" type="curve" smooth="yes"/>
      <point x="346.0" y="2016.0"/>
      <point x="411.0" y="2086.0"/>
      <point x="500.0" y="2086.0" type="curve" smooth="yes"/>
      <point x="589.0" y="2086.0"/>
      <point x="630.0" y="2016.0"/>
      <point x="616.0" y="1929.0" type="curve" smooth="yes"/>
      <point x="603.0" y="1842.0"/>
    </contour>
    <contour>
      <point x="206.0" y="1591.0"/>
      <point x="420.0" y="1591.0" type="curve" smooth="yes"/>
      <point x="634.0" y="1591.0"/>
      <point x="795.0" y="1718.0"/>
      <point x="827.0" y="1929.0" type="curve" smooth="yes"/>
      <point x="861.0" y="2140.0"/>
      <point x="741.0" y="2267.0"/>
      <point x="527.0" y="2267.0" type="curve" smooth="yes"/>
      <point x="313.0" y="2267.0"/>
      <point x="154.0" y="2140.0"/>
      <point x="120.0" y="1929.0" type="curve" smooth="yes"/>
      <point x="87.0" y="1717.0"/>
    </contour>
    <contour>
      <point x="410" y="1500" type="move" name="_top"/>
    </contour>
  </outline>
</glyph>
<glyph name="ogonek" format="1">
  <advance width="1015.0"/>
  <unicode hex="02DB"/>
  <outline>
    <contour>
      <point x="484.0" y="-631.0"/>
      <point x="675.0" y="-631.0" type="curve" smooth="yes"/>
      <point x="743.0" y="-631.0"/>
      <point x="810.0" y="-618.0"/>
      <point x="878.0" y="-591.0" type="curve"/>
      <point x="914.0" y="-368.0" type="line"/>
      <point x="868.0" y="-383.0"/>
      <point x="827.0" y="-391.0"/>
      <point x="794.0" y="-391.0" type="curve" smooth="yes"/>
      <point x="721.0" y="-391.0"/>
      <point x="686.0" y="-354.0"/>
      <point x="697.0" y="-279.0" type="curve" smooth="yes"/>
      <point x="714.0" y="-169.0"/>
      <point x="813.0" y="-90.0"/>
      <point x="901.0" y="0.0" type="curve"/>
      <point x="690.0" y="0.0" type="line"/>
      <point x="499.0" y="-99.0"/>
      <point x="393.0" y="-209.0"/>
      <point x="373.0" y="-330.0" type="curve" smooth="yes"/>
      <point x="344.0" y="-519.0"/>
    </contour>
    <contour>
      <point x="789" y="0" type="move" name="_ogonek"/>
    </contour>
  </outline>
</glyph>
<glyph name="tilde" format="1">
  <advance width="1015.0"/>
  <unicode hex="02DC"/>
  <outline>
    <contour>
      <point x="584.0" y="1620.0"/>
      <point x="747.0" y="1620.0" type="curve" smooth="yes"/>
      <point x="912.0" y="1620.0"/>
      <point x="985.0" y="1758.0"/>
      <point x="1064.0" y="1905.0" type="curve"/>
      <point x="891.0" y="1965.0" type="line"/>
      <point x="852.0" y="1904.0"/>
      <point x="816.0" y="1883.0"/>
      <point x="776.0" y="1883.0" type="curve" smooth="yes"/>
      <point x="693.0" y="1883.0"/>
      <point x="596.0" y="1974.0"/>
      <point x="440.0" y="1974.0" type="curve" smooth="yes"/>
      <point x="284.0" y="1974.0"/>
      <point x="206.0" y="1863.0"/>
      <point x="132.0" y="1731.0" type="curve"/>
      <point x="281.0" y="1645.0" type="line"/>
      <point x="317.0" y="1701.0"/>
      <point x="354.0" y="1720.0"/>
      <point x="393.0" y="1720.0" type="curve" smooth="yes"/>
      <point x="481.0" y="1720.0"/>
    </contour>
    <contour>
      <point x="539" y="1500" type="move" name="_top"/>
    </contour>
  </outline>
</glyph>
<glyph name="hungarumlaut" format="1">
  <advance width="1300.0"/>
  <unicode hex="02DD"/>
  <outline>
    <contour>
      <point x="299.0" y="1654.0" type="line"/>
      <point x="456.0" y="1596.0" type="line"/>
      <point x="772.0" y="2025.0" type="line"/>
      <point x="559.0" y="2133.0" type="line"/>
    </contour>
    <contour>
      <point x="601.0" y="1654.0" type="line"/>
      <point x="758.0" y="1596.0" type="line"/>
      <point x="1115.0" y="2025.0" type="line"/>
      <point x="898.0" y="2133.0" type="line"/>
    </contour>
    <contour>
      <point x="505" y="1500" type="move" name="_top"/>
    </contour>
  </outline>
</glyph>
<glyph name="uni030F" format="1">
  <advance width="825.0"/>
  <unicode hex="030F"/>
  <outline>
    <contour>
      <point x="91.0" y="2015.0" type="line"/>
      <point x="312.0" y="1586.0" type="line"/>
      <point x="487.0" y="1644.0" type="line"/>
      <point x="342.0" y="2123.0" type="line"/>
    </contour>
    <contour>
      <point x="434.0" y="2015.0" type="line"/>
      <point x="614.0" y="1586.0" type="line"/>
      <point x="789.0" y="1644.0" type="line"/>
      <point x="681.0" y="2123.0" type="line"/>
    </contour>
    <contour>
      <point x="516" y="1500" type="move" name="_top"/>
    </contour>
  </outline>
</glyph>
<glyph name="uni0311" format="1">
  <advance width="1005.0"/>
  <unicode hex="0311"/>
  <outline>
    <contour>
      <point x="196.0" y="1621.0"/>
      <point x="197.0" y="1607.0" type="curve"/>
      <point x="433.0" y="1608.0" type="line"/>
      <point x="447.0" y="1698.0"/>
      <point x="511.0" y="1742.0"/>
      <point x="588.0" y="1742.0" type="curve" smooth="yes"/>
      <point x="666.0" y="1742.0"/>
      <point x="717.0" y="1698.0"/>
      <point x="703.0" y="1608.0" type="curve"/>
      <point x="939.0" y="1607.0" type="line"/>
      <point x="942.0" y="1623.0"/>
      <point x="945.0" y="1635.0"/>
      <point x="946.0" y="1642.0" type="curve" smooth="yes"/>
      <point x="981.0" y="1865.0"/>
      <point x="861.0" y="1960.0"/>
      <point x="621.0" y="1960.0" type="curve" smooth="yes"/>
      <point x="387.0" y="1960.0"/>
      <point x="234.0" y="1866.0"/>
      <point x="200.0" y="1649.0" type="curve" smooth="yes"/>
      <point x="198.0" y="1635.0"/>
    </contour>
    <contour>
      <point x="546" y="1500" type="move" name="_top"/>
    </contour>
  </outline>
</glyph>
<glyph name="uni0312" format="1">
  <advance width="600.0"/>
  <unicode hex="0312"/>
  <outline>
    <contour>
      <point x="573.0" y="1942.0" type="line"/>
      <point x="677.0" y="2178.0" type="line"/>
      <point x="466.0" y="2178.0" type="line"/>
      <point x="324.0" y="1933.0" type="line"/>
      <point x="279.0" y="1644.0" type="line"/>
      <point x="653.0" y="1644.0" type="line"/>
      <point x="700.0" y="1942.0" type="line"/>
    </contour>
    <contour>
      <point x="419" y="1500" type="move" name="_top"/>
    </contour>
  </outline>
</glyph>
<glyph name="uni0326" format="1">
  <advance width="600.0"/>
  <unicode hex="0326"/>
  <outline>
    <contour>
      <point x="195.0" y="-439.0" type="line"/>
      <point x="91.0" y="-675.0" type="line"/>
      <point x="302.0" y="-675.0" type="line"/>
      <point x="444.0" y="-430.0" type="line"/>
      <point x="489.0" y="-141.0" type="line"/>
      <point x="115.0" y="-141.0" type="line"/>
      <point x="68.0" y="-439.0" type="line"/>
    </contour>
    <contour>
      <point x="336" y="0" type="move" name="_bot"/>
    </contour>
  </outline>
</glyph>
<glyph name="uni0358" format="1">
  <advance width="600.0"/>
  <unicode hex="0358"/>
  <outline>
    <contour>
      <point x="187.0" y="1890.0" type="line"/>
      <point x="140.0" y="1592.0" type="line"/>
      <point x="498.0" y="1592.0" type="line"/>
      <point x="545.0" y="1890.0" type="line"/>
    </contour>
  </outline>
</glyph>
<glyph name="uni0394" format="1">
  <advance width="1035.0"/>
  <unicode hex="0394"/>
  <outline>
    <contour>
      <point x="554.0" y="225.0" type="line"/>
      <point x="245.0" y="225.0" type="line"/>
      <point x="611.0" y="1560.0" type="line"/>
      <point x="627.0" y="1560.0" type="line"/>
    </contour>
    <contour>
      <point x="427.0" y="1760.0" type="line"/>
      <point x="-119.0" y="0.0" type="line"/>
      <point x="924.0" y="0.0" type="line"/>
      <point x="924.0" y="1760.0" type="line"/>
    </contour>
  </outline>
</glyph>
<glyph name="Sigma" format="1">
  <advance width="836.0"/>
  <unicode hex="03A3"/>
  <outline>
    <contour>
      <point x="-100.0" y="-119.0" type="line"/>
      <point x="633.0" y="-119.0" type="line"/>
      <point x="685.0" y="176.0" type="line"/>
      <point x="277.0" y="176.0" type="line"/>
      <point x="691.0" y="790.0" type="line"/>
      <point x="704.0" y="866.0" type="line"/>
      <point x="501.0" y="1444.0" type="line"/>
      <point x="893.0" y="1444.0" type="line"/>
      <point x="949.0" y="1760.0" type="line"/>
      <point x="232.0" y="1760.0" type="line"/>
      <point x="178.0" y="1455.0" type="line"/>
      <point x="403.0" y="822.0" type="line"/>
      <point x="-52.0" y="149.0" type="line"/>
    </contour>
  </outline>
</glyph>
<glyph name="uni03A9" format="1">
  <advance width="1009.0"/>
  <unicode hex="03A9"/>
  <outline>
    <contour>
      <point x="-24.0" y="246.0" type="line"/>
      <point x="-62.0" y="0.0" type="line"/>
      <point x="354.0" y="0.0" type="line"/>
      <point x="393.0" y="247.0" type="line"/>
      <point x="334.0" y="282.0"/>
      <point x="371.0" y="441.0"/>
      <point x="393.0" y="581.0" type="curve" smooth="yes"/>
      <point x="492.0" y="1211.0" type="line" smooth="yes"/>
      <point x="504.0" y="1281.0"/>
      <point x="529.0" y="1335.0"/>
      <point x="598.0" y="1335.0" type="curve" smooth="yes"/>
      <point x="667.0" y="1335.0"/>
      <point x="674.0" y="1281.0"/>
      <point x="662.0" y="1211.0" type="curve" smooth="yes"/>
      <point x="563.0" y="581.0" type="line" smooth="yes"/>
      <point x="540.0" y="431.0"/>
      <point x="540.0" y="285.0"/>
      <point x="459.0" y="247.0" type="curve"/>
      <point x="420.0" y="0.0" type="line"/>
      <point x="836.0" y="0.0" type="line"/>
      <point x="874.0" y="246.0" type="line"/>
      <point x="752.0" y="246.0" type="line"/>
      <point x="833.0" y="345.0"/>
      <point x="889.0" y="499.0"/>
      <point x="923.0" y="710.0" type="curve" smooth="yes"/>
      <point x="998.0" y="1189.0" type="line" smooth="yes"/>
      <point x="1041.0" y="1462.0"/>
      <point x="918.0" y="1607.0"/>
      <point x="640.0" y="1607.0" type="curve" smooth="yes"/>
      <point x="362.0" y="1607.0"/>
      <point x="193.0" y="1462.0"/>
      <point x="150.0" y="1189.0" type="curve" smooth="yes"/>
      <point x="75.0" y="710.0" type="line" smooth="yes"/>
      <point x="41.0" y="499.0"/>
      <point x="49.0" y="345.0"/>
      <point x="98.0" y="246.0" type="curve"/>
    </contour>
  </outline>
</glyph>
<glyph name="uni03BC" format="1">
  <advance width="1035.0"/>
  <unicode hex="03BC"/>
  <outline>
    <contour>
      <point x="45.0" y="541.0" type="line"/>
      <point x="-70.0" y="-186.0" type="line"/>
      <point x="289.0" y="-186.0" type="line"/>
      <point x="404.0" y="541.0" type="line"/>
    </contour>
    <component base="u" xOffset="6.0"/>
  </outline>
</glyph>
<glyph name="pi" format="1">
  <advance width="1194.0"/>
  <unicode hex="03C0"/>
  <outline>
    <contour>
      <point x="219.0" y="1178.0" type="line"/>
      <point x="34.0" y="0.0" type="line"/>
      <point x="392.0" y="0.0" type="line"/>
      <point x="577.0" y="1178.0" type="line"/>
      <point x="754.0" y="1178.0" type="line"/>
      <point x="579.0" y="0.0" type="line"/>
      <point x="928.0" y="0.0" type="line"/>
      <point x="1109.0" y="1178.0" type="line"/>
      <point x="1250.0" y="1178.0" type="line"/>
      <point x="1301.0" y="1500.0" type="line"/>
      <point x="132.0" y="1500.0" type="line"/>
      <point x="81.0" y="1178.0" type="line"/>
    </contour>
  </outline>
</glyph>
<glyph name="endash" format="1">
  <advance width="662.0"/>
  <unicode hex="2013"/>
  <outline>
    <contour>
      <point x="72.0" y="741.0" type="line"/>
      <point x="36.0" y="509.0" type="line"/>
      <point x="552.0" y="509.0" type="line"/>
      <point x="588.0" y="741.0" type="line"/>
    </contour>
  </outline>
</glyph>
<glyph name="quoteleft" format="1">
  <advance width="488.0"/>
  <unicode hex="2018"/>
  <outline>
    <contour>
      <point x="180.0" y="1515.0" type="line"/>
      <point x="134.0" y="1226.0" type="line"/>
      <point x="508.0" y="1226.0" type="line"/>
      <point x="556.0" y="1524.0" type="line"/>
      <point x="429.0" y="1524.0" type="line"/>
      <point x="532.0" y="1760.0" type="line"/>
      <point x="321.0" y="1760.0" type="line"/>
    </contour>
  </outline>
</glyph>
<glyph name="quoteright" format="1">
  <advance width="479.0"/>
  <unicode hex="2019"/>
  <outline>
    <contour>
      <point x="295.0" y="1480.0" type="line"/>
      <point x="191.0" y="1244.0" type="line"/>
      <point x="402.0" y="1244.0" type="line"/>
      <point x="544.0" y="1489.0" type="line"/>
      <point x="589.0" y="1778.0" type="line"/>
      <point x="215.0" y="1778.0" type="line"/>
      <point x="168.0" y="1480.0" type="line"/>
    </contour>
  </outline>
</glyph>
<glyph name="quotedblleft" format="1">
  <advance width="957.0"/>
  <unicode hex="201C"/>
  <outline>
    <contour>
      <point x="180.0" y="1515.0" type="line"/>
      <point x="134.0" y="1226.0" type="line"/>
      <point x="508.0" y="1226.0" type="line"/>
      <point x="556.0" y="1524.0" type="line"/>
      <point x="429.0" y="1524.0" type="line"/>
      <point x="532.0" y="1760.0" type="line"/>
      <point x="321.0" y="1760.0" type="line"/>
    </contour>
    <contour>
      <point x="649.0" y="1515.0" type="line"/>
      <point x="603.0" y="1226.0" type="line"/>
      <point x="977.0" y="1226.0" type="line"/>
      <point x="1025.0" y="1524.0" type="line"/>
      <point x="898.0" y="1524.0" type="line"/>
      <point x="1001.0" y="1760.0" type="line"/>
      <point x="790.0" y="1760.0" type="line"/>
    </contour>
  </outline>
</glyph>
<glyph name="quotedblright" format="1">
  <advance width="952.0"/>
  <unicode hex="201D"/>
  <outline>
    <contour>
      <point x="292.0" y="1462.0" type="line"/>
      <point x="188.0" y="1226.0" type="line"/>
      <point x="399.0" y="1226.0" type="line"/>
      <point x="541.0" y="1471.0" type="line"/>
      <point x="586.0" y="1760.0" type="line"/>
      <point x="212.0" y="1760.0" type="line"/>
      <point x="165.0" y="1462.0" type="line"/>
    </contour>
    <contour>
      <point x="765.0" y="1462.0" type="line"/>
      <point x="661.0" y="1226.0" type="line"/>
      <point x="872.0" y="1226.0" type="line"/>
      <point x="1014.0" y="1471.0" type="line"/>
      <point x="1059.0" y="1760.0" type="line"/>
      <point x="685.0" y="1760.0" type="line"/>
      <point x="638.0" y="1462.0" type="line"/>
    </contour>
  </outline>
</glyph>
<glyph name="quotedblbase" format="1">
  <advance width="974.0"/>
  <unicode hex="201E"/>
  <outline>
    <contour>
      <point x="73.0" y="0.0" type="line"/>
      <point x="-31.0" y="-236.0" type="line"/>
      <point x="180.0" y="-236.0" type="line"/>
      <point x="322.0" y="9.0" type="line"/>
      <point x="367.0" y="298.0" type="line"/>
      <point x="-7.0" y="298.0" type="line"/>
      <point x="-54.0" y="0.0" type="line"/>
    </contour>
    <contour>
      <point x="546.0" y="0.0" type="line"/>
      <point x="442.0" y="-236.0" type="line"/>
      <point x="653.0" y="-236.0" type="line"/>
      <point x="795.0" y="9.0" type="line"/>
      <point x="840.0" y="298.0" type="line"/>
      <point x="466.0" y="298.0" type="line"/>
      <point x="419.0" y="0.0" type="line"/>
    </contour>
  </outline>
</glyph>
<glyph name="dagger" format="1">
  <advance width="798.0"/>
  <unicode hex="2020"/>
  <outline>
    <contour>
      <point x="258.0" y="996.0" type="line"/>
      <point x="101.0" y="0.0" type="line"/>
      <point x="465.0" y="0.0" type="line"/>
      <point x="622.0" y="996.0" type="line"/>
      <point x="802.0" y="996.0" type="line"/>
      <point x="849.0" y="1292.0" type="line"/>
      <point x="669.0" y="1292.0" type="line"/>
      <point x="716.0" y="1592.0" type="line"/>
      <point x="352.0" y="1592.0" type="line"/>
      <point x="305.0" y="1292.0" type="line"/>
      <point x="122.0" y="1292.0" type="line"/>
      <point x="75.0" y="996.0" type="line"/>
    </contour>
  </outline>
</glyph>
<glyph name="daggerdbl" format="1">
  <advance width="854.0"/>
  <unicode hex="2021"/>
  <outline>
    <contour>
      <point x="185.0" y="350.0" type="line"/>
      <point x="129.0" y="0.0" type="line"/>
      <point x="493.0" y="0.0" type="line"/>
      <point x="549.0" y="350.0" type="line"/>
      <point x="729.0" y="350.0" type="line"/>
      <point x="775.0" y="646.0" type="line"/>
      <point x="595.0" y="646.0" type="line"/>
      <point x="641.0" y="940.0" type="line"/>
      <point x="821.0" y="940.0" type="line"/>
      <point x="868.0" y="1236.0" type="line"/>
      <point x="688.0" y="1236.0" type="line"/>
      <point x="744.0" y="1592.0" type="line"/>
      <point x="380.0" y="1592.0" type="line"/>
      <point x="324.0" y="1236.0" type="line"/>
      <point x="141.0" y="1236.0" type="line"/>
      <point x="94.0" y="940.0" type="line"/>
      <point x="277.0" y="940.0" type="line"/>
      <point x="231.0" y="646.0" type="line"/>
      <point x="48.0" y="646.0" type="line"/>
      <point x="2.0" y="350.0" type="line"/>
    </contour>
  </outline>
</glyph>
<glyph name="bullet" format="1">
  <advance width="808.0"/>
  <unicode hex="2022"/>
  <outline>
    <contour>
      <point x="151.0" y="403.0"/>
      <point x="350.0" y="403.0" type="curve" smooth="yes"/>
      <point x="549.0" y="403.0"/>
      <point x="686.0" y="539.0"/>
      <point x="717.0" y="741.0" type="curve" smooth="yes"/>
      <point x="749.0" y="943.0"/>
      <point x="656.0" y="1079.0"/>
      <point x="457.0" y="1079.0" type="curve" smooth="yes"/>
      <point x="258.0" y="1079.0"/>
      <point x="122.0" y="943.0"/>
      <point x="90.0" y="741.0" type="curve" smooth="yes"/>
      <point x="59.0" y="539.0"/>
    </contour>
  </outline>
</glyph>
<glyph name="ellipsis" format="1">
  <advance width="1468.0"/>
  <unicode hex="2026"/>
  <outline>
    <contour>
      <point x="-6.0" y="299.0" type="line"/>
      <point x="-53.0" y="1.0" type="line"/>
      <point x="305.0" y="1.0" type="line"/>
      <point x="352.0" y="299.0" type="line"/>
    </contour>
    <contour>
      <point x="485.0" y="299.0" type="line"/>
      <point x="438.0" y="1.0" type="line"/>
      <point x="796.0" y="1.0" type="line"/>
      <point x="843.0" y="299.0" type="line"/>
    </contour>
    <contour>
      <point x="976.0" y="299.0" type="line"/>
      <point x="929.0" y="1.0" type="line"/>
      <point x="1287.0" y="1.0" type="line"/>
      <point x="1334.0" y="299.0" type="line"/>
    </contour>
  </outline>
</glyph>
